STARTFONT 2.1
FONT -FontForge-Times Square-Book-R-Normal--100-960-75-75-P-449-ISO10646-1
SIZE 96 75 75
FONTBOUNDINGBOX 58 92 0 -15
COMMENT "Generated by fontforge, http://fontforge.sourceforge.net"
COMMENT "(c)1996 by Charles T. Minow. All rights reserved."
STARTPROPERTIES 40
FOUNDRY "FontForge"
FAMILY_NAME "Times Square"
WEIGHT_NAME "Book"
SLANT "R"
SETWIDTH_NAME "Normal"
ADD_STYLE_NAME ""
PIXEL_SIZE 100
POINT_SIZE 960
RESOLUTION_X 75
RESOLUTION_Y 75
SPACING "P"
AVERAGE_WIDTH 449
CHARSET_REGISTRY "ISO10646"
CHARSET_ENCODING "1"
FONTNAME_REGISTRY ""
CHARSET_COLLECTIONS "Symbol ISO10646-1"
FONT_NAME "TimesSquare"
FACE_NAME "Times Square"
COPYRIGHT "(c)1996 by Charles T. Minow. All rights reserved."
FONT_VERSION "Macromedia Fontographer 4.1 6/22/96"
FONT_ASCENT 77
FONT_DESCENT 23
UNDERLINE_POSITION -11
UNDERLINE_THICKNESS 2
X_HEIGHT 37
CAP_HEIGHT 53
RAW_ASCENT 769
RAW_DESCENT 230
NORM_SPACE 38
RELATIVE_WEIGHT 40
RELATIVE_SETWIDTH 50
SUPERSCRIPT_X 0
SUPERSCRIPT_Y 45
SUPERSCRIPT_SIZE 65
SUBSCRIPT_X 0
SUBSCRIPT_Y 14
SUBSCRIPT_SIZE 65
FIGURE_WIDTH 46
AVG_LOWERCASE_WIDTH 450
AVG_UPPERCASE_WIDTH 449
ENDPROPERTIES
CHARS 238
STARTCHAR space
ENCODING 32
SWIDTH 384 0
DWIDTH 38 0
BBX 1 1 0 0
BITMAP
00
ENDCHAR
STARTCHAR exclam
ENCODING 33
SWIDTH 153 0
DWIDTH 15 0
BBX 8 55 4 -1
BITMAP
3C
7E
FF
FF
FF
FF
7E
3C
00
3C
7E
FF
FF
FF
7E
00
3C
7E
FF
FF
FF
7E
3C
00
3C
7E
FF
FF
FF
7E
3C
00
3C
7E
FF
FF
FF
FF
7E
3C
00
00
00
00
00
00
00
3C
7E
FF
FF
FF
FF
7E
3C
ENDCHAR
STARTCHAR quotedbl
ENCODING 34
SWIDTH 461 0
DWIDTH 46 0
BBX 23 16 11 38
BITMAP
3C0078
7E00FC
FF01FE
FF01FE
FF01FE
FF01FE
7E00FC
3C0078
3C0078
7E00FC
FF01FE
FF01FE
FF01FE
FF01FE
7E00FC
3C0078
ENDCHAR
STARTCHAR numbersign
ENCODING 35
SWIDTH 461 0
DWIDTH 46 0
BBX 38 39 4 15
BITMAP
0038007000
00FC00FC00
00FE01FC00
00FE01FE00
00FE01FE00
00FE01FC00
00FC00FC00
0038007000
7C7C7878F8
FEFEFCFDFC
FEFFFFFDFC
FFFFFFFFFC
FEFFFFFFFC
FEFEFDFDFC
7C7CFCF8F8
0010000020
007C00F800
00FE01FC00
00FE01FC00
00FE01FE00
00FE01FC00
00FE00FC00
007C00F800
3838307070
7EFCFCFCF8
FEFEFFFDFC
FEFFFFFFFC
FFFFFFFFFC
FEFFFFFDFC
7EFCFCFDF8
3838787870
0078007800
00FC00FC00
00FE01FC00
00FE01FE00
00FE01FE00
00FE01FC00
007C00FC00
0010002000
ENDCHAR
STARTCHAR dollar
ENCODING 36
SWIDTH 461 0
DWIDTH 46 0
BBX 38 69 4 -8
BITMAP
0000FC0000
0000FC0000
0001FE0000
0001FE0000
0001FE0000
0000FC0000
0000780000
0038787000
00FCFCFC00
00FFFFFC00
00FFFFFE00
00FFFFFE00
00FFFFFC00
00FCFCFC00
0038787000
7C007800F8
FE00FC01FC
FE01FE01FC
FF01FE01FC
FE01FE01FC
FE00FC01FC
7C00FC00F8
0000000020
7C007C0000
FE00FC0000
FE01FE0000
FF01FE0000
FE01FE0000
FE00FC0000
7C00780000
0038307000
00FCFCFC00
00FEFFFC00
00FFFFFE00
00FFFFFE00
00FFFFFC00
00FCFCFC00
0038787800
00007800F0
0000FC01FC
0001FE01FC
0001FE01FC
0001FE01FC
0000FE01FC
0000FC00F8
0000300020
7C007C00F8
FE00FC01FC
FE01FE01FC
FF01FE01FC
FE01FE01FC
FE00FC01FC
7C007800F8
0030303000
007CFCFC00
00FEFFFC00
00FFFFFE00
00FFFFFE00
00FFFFFC00
00FCFCFC00
0078787800
0000780000
0000FC0000
0001FE0000
0001FE0000
0001FE0000
0000FE0000
0000FC0000
0000300000
ENDCHAR
STARTCHAR percent
ENCODING 37
SWIDTH 461 0
DWIDTH 46 0
BBX 38 54 4 0
BITMAP
0038787070
00FCFCFCF8
00FFFFFDFC
00FFFFFFFC
00FFFFFFFC
00FFFFFDFC
00FCFCFDF8
0038787070
7C007800F8
FE00FC01FC
FE01FE01FC
FF01FE01FC
FE01FE01FC
FE00FC01FC
7C00FC00F8
0000000020
7C007CF800
FE00FDFC00
FE01FFFC00
FF01FFFE00
FE01FFFC00
FE00FCFC00
7C0078F800
0038007000
00FC00FC00
00FE01FC00
00FE01FE00
00FE01FE00
00FE01FC00
00FC00FC00
0038007800
00787800F0
00FCFC01FC
00FFFE01FC
00FFFE01FC
00FFFE01FC
00FEFE01FC
007CFC00F8
0010300020
7C007C00F8
FE00FC01FC
FE01FE01FC
FF01FE01FC
FE01FE01FC
FE00FC01FC
7C007800F8
1800003000
7C0000FC00
FE0001FC00
FE0001FE00
FF0001FE00
FE0001FC00
7E0000FC00
3C00007800
ENDCHAR
STARTCHAR ampersand
ENCODING 38
SWIDTH 461 0
DWIDTH 46 0
BBX 38 54 4 0
BITMAP
0038780000
00FCFC0000
00FFFE0000
00FFFE0000
00FFFE0000
00FFFE0000
00FCFC0000
0038780000
7C00007800
FE0000FC00
FE0001FC00
FF0001FE00
FE0001FE00
FE0001FC00
7C0000F800
0000000000
7C007C0000
FE00FC0000
FE01FE0000
FF01FE0000
FE01FE0000
FE00FC0000
7C00780000
0038000000
00FC000000
00FE000000
00FE000000
00FE000000
00FE000000
00FC000000
0038000000
3C00780000
7E00FC0000
FE01FE0000
FF01FE0000
FE01FE0000
FE00FE0000
7C00FC0000
1000300000
7C0000F800
FE0001FC00
FE0001FC00
FF0001FE00
FE0001FC00
FE0001FC00
7C0000F800
0030300060
007CFC00F8
00FEFE01FC
00FFFE01FC
00FFFE01FC
00FFFE01FC
00FCFC01FC
0078780070
ENDCHAR
STARTCHAR quotesingle
ENCODING 39
SWIDTH 461 0
DWIDTH 46 0
BBX 8 16 19 46
BITMAP
3C
7E
FF
FF
FF
FF
7E
3C
3C
7E
FF
FF
FF
FF
7E
3C
ENDCHAR
STARTCHAR parenleft
ENCODING 40
SWIDTH 461 0
DWIDTH 46 0
BBX 24 55 11 -1
BITMAP
00003C
00007E
00007F
0000FF
0000FF
00007F
00007E
00001C
001C00
007E00
007F00
007F00
007F00
007F00
003E00
000800
3C0000
7E0000
FF0000
FF0000
FF0000
7E0000
3C0000
180000
7E0000
FF0000
FF0000
FF0000
FF0000
7E0000
3C0000
3C0000
7E0000
FF0000
FF0000
FF0000
FF0000
7E0000
3C0000
003E00
007E00
007F00
007F00
007F00
007F00
007E00
001C18
00003E
00007E
0000FF
0000FF
0000FF
00007F
00007E
00003C
ENDCHAR
STARTCHAR parenright
ENCODING 41
SWIDTH 461 0
DWIDTH 46 0
BBX 24 55 11 -1
BITMAP
3C0000
7E0000
FF0000
FF0000
FF0000
FF0000
7E0000
3C0000
001C00
007E00
007F00
007F00
007F00
007F00
003E00
000800
00003C
00007E
00007F
0000FF
0000FF
00007E
00003E
000000
00003C
00007E
00007F
0000FF
00007F
00007E
00003C
000000
00003C
00007E
0000FF
0000FF
00007F
00007E
000018
000000
003C00
007E00
007F00
007F00
007F00
003E00
000000
000000
3C0000
7E0000
FF0000
FF0000
FF0000
7E0000
3C0000
ENDCHAR
STARTCHAR asterisk
ENCODING 42
SWIDTH 461 0
DWIDTH 46 0
BBX 38 39 4 15
BITMAP
0000780000
0000FC0000
0001FE0000
0001FE0000
0001FE0000
0001FE0000
0000FC0000
0000780000
7C007800F8
FE00FC01FC
FE01FE01FC
FF01FE01FC
FE01FE01FC
FE00FC01FC
7C00FC00F8
0000000020
007C7CF800
00FEFDFC00
00FFFFFC00
00FFFFFE00
00FFFFFC00
00FEFCFC00
007C78F800
3800300070
7E00FC00F8
FE00FE01FC
FE01FE01FC
FF01FE01FC
FE01FE01FC
7E00FC01F8
3800780070
0000780000
0000FC0000
0001FE0000
0001FE0000
0001FE0000
0000FE0000
0000FC0000
0000300000
ENDCHAR
STARTCHAR plus
ENCODING 43
SWIDTH 461 0
DWIDTH 46 0
BBX 38 38 4 8
BITMAP
0000780000
0000FC0000
0001FE0000
0001FE0000
0001FE0000
0000FC0000
0000FC0000
0000000000
00007C0000
0000FC0000
0001FE0000
0001FE0000
0001FE0000
0000FC0000
0000780000
3838307070
7EFCFCFCF8
FEFEFFFDFC
FEFFFFFFFC
FFFFFFFFFC
FEFFFFFDFC
7EFCFCFDF8
3838787870
0000780000
0000FC0000
0001FE0000
0001FE0000
0001FE0000
0000FE0000
0000FC0000
0000300000
00007C0000
0000FC0000
0001FE0000
0001FE0000
0001FE0000
0000FC0000
0000780000
ENDCHAR
STARTCHAR comma
ENCODING 44
SWIDTH 461 0
DWIDTH 46 0
BBX 16 23 12 -8
BITMAP
003C
007E
00FF
00FF
00FF
007E
007E
0000
003C
007E
00FF
00FF
00FF
00FF
007E
3C3C
7E00
FE00
FF00
FF00
FE00
7E00
3C00
ENDCHAR
STARTCHAR hyphen
ENCODING 45
SWIDTH 307 0
DWIDTH 31 0
BBX 24 7 3 31
BITMAP
3C3C3C
7E7E7E
FF7F7F
FF7FFF
FF7F7F
7E7E7E
3C3C3C
ENDCHAR
STARTCHAR period
ENCODING 46
SWIDTH 153 0
DWIDTH 15 0
BBX 8 9 4 -1
BITMAP
3C
7E
FF
FF
FF
FF
FF
7E
3C
ENDCHAR
STARTCHAR slash
ENCODING 47
SWIDTH 461 0
DWIDTH 46 0
BBX 32 62 4 -8
BITMAP
0000003C
0000007E
000000FF
000000FF
000000FF
000000FF
0000007E
0000003C
0000003C
0000007E
000000FF
000000FF
000000FF
000000FF
0000007E
00000000
00003C00
00007E00
00007F00
0000FF00
0000FF00
00007E00
00003E00
00000000
00003C00
00007E00
00007F00
0000FF00
00007F00
00007E00
00003C00
00000000
003C0000
007E0000
007F0000
007F0000
007F0000
003E0000
00080000
00000000
003C0000
007E0000
007F0000
007F0000
007F0000
003E0000
00000000
00000000
3C000000
7E000000
FF000000
FF000000
FF000000
7E000000
3C000000
00000000
3C000000
7E000000
FF000000
FF000000
FE000000
3C000000
ENDCHAR
STARTCHAR zero
ENCODING 48
SWIDTH 461 0
DWIDTH 46 0
BBX 38 54 4 0
BITMAP
0038787000
00FCFCFC00
00FFFFFC00
00FFFFFE00
00FFFFFE00
00FFFFFC00
00FCFCFC00
0038787000
7C000000F8
FE000001FC
FE000001FC
FF000001FC
FE000001FC
FE000001FC
7C000000F8
0000000020
7C000000F8
FE000001FC
FE000001FC
FF000001FC
FE000001FC
FE000001FC
7C000000F8
3800000070
7E000000F8
FE000001FC
FE000001FC
FF000001FC
FE000001FC
7E000001F8
3800000070
3C000000F0
7E000001FC
FE000001FC
FF000001FC
FE000001FC
FE000001FC
7C000000F8
1000000020
7C000000F8
FE000001FC
FE000001FC
FF000001FC
FE000001FC
FE000001FC
7C000000F8
0030303000
007CFCFC00
00FEFFFC00
00FFFFFE00
00FFFFFE00
00FFFFFC00
00FCFCFC00
0078787800
ENDCHAR
STARTCHAR one
ENCODING 49
SWIDTH 461 0
DWIDTH 46 0
BBX 23 54 19 0
BITMAP
003800
007E00
00FE00
00FF00
00FF00
00FE00
007E00
003800
3C3C00
7E7E00
FFFE00
FFFF00
FFFF00
7EFE00
7E7C00
000000
007C00
00FE00
00FE00
00FF00
00FE00
007E00
007C00
003800
007E00
00FE00
00FF00
00FF00
00FE00
007E00
003C00
003C00
007E00
00FE00
00FF00
00FF00
00FE00
007E00
001000
007C00
00FE00
00FE00
00FF00
00FE00
00FE00
007C00
181830
7E7E7C
7FFEFE
FFFFFE
FFFFFE
FFFEFE
7E7EFE
3C3C38
ENDCHAR
STARTCHAR two
ENCODING 50
SWIDTH 461 0
DWIDTH 46 0
BBX 38 54 4 0
BITMAP
0038787000
00FCFCFC00
00FFFFFC00
00FFFFFE00
00FFFFFE00
00FFFFFC00
00FCFCFC00
0038787000
7C000000F8
FE000001FC
FE000001FC
FF000001FC
FE000001FC
FE000001FC
7C000000F8
0000000020
7C000000F8
FE000001FC
FE000001FC
FF000001FC
FE000001FC
FE000001FC
7C000000F8
0000007000
000000FC00
000001FC00
000001FE00
000001FE00
000001FC00
000000FC00
0000007800
0000780000
0000FC0000
0001FE0000
0001FE0000
0001FE0000
0000FE0000
0000FC0000
0000300000
007C000000
00FE000000
00FE000000
00FE000000
00FE000000
00FE000000
007C000000
1830303060
7C7CFCFCF8
FEFEFFFDFC
FEFFFFFFFC
FFFFFFFFFC
FEFFFFFDFC
7EFCFCFDFC
3C78787870
ENDCHAR
STARTCHAR three
ENCODING 51
SWIDTH 461 0
DWIDTH 46 0
BBX 38 54 4 0
BITMAP
0038787000
00FCFCFC00
00FFFFFC00
00FFFFFE00
00FFFFFE00
00FFFFFC00
00FCFCFC00
0038787000
7C000000F8
FE000001FC
FE000001FC
FF000001FC
FE000001FC
FE000001FC
7C000000F8
0000000020
00000000F8
00000001FC
00000001FC
00000001FC
00000001FC
00000001FC
00000000F8
0000307000
0000FCFC00
0000FFFC00
0001FFFE00
0001FFFE00
0001FFFC00
0000FCFC00
0000787800
00000000F0
00000001FC
00000001FC
00000001FC
00000001FC
00000001FC
00000000F8
0000000020
7C000000F8
FE000001FC
FE000001FC
FF000001FC
FE000001FC
FE000001FC
7C000000F8
0030303000
007CFCFC00
00FEFFFC00
00FFFFFE00
00FFFFFE00
00FFFFFC00
00FCFCFC00
0078787800
ENDCHAR
STARTCHAR four
ENCODING 52
SWIDTH 461 0
DWIDTH 46 0
BBX 38 54 4 0
BITMAP
0000007000
000000FC00
000001FC00
000001FE00
000001FE00
000001FC00
000000FC00
0000007000
0000787800
0000FCFC00
0001FFFC00
0001FFFE00
0001FFFE00
0000FDFC00
0000FCF800
0000000000
007C00F800
00FE01FC00
00FE01FC00
00FE01FE00
00FE01FC00
00FE00FC00
007C00F800
3800007000
7E0000FC00
FE0001FC00
FE0001FE00
FF0001FE00
FE0001FC00
7E0000FC00
3800007800
3C787878F0
7EFCFCFDFC
FEFFFFFDFC
FFFFFFFFFC
FEFFFFFFFC
FEFEFFFDFC
7C7CFCFCF8
1010302020
000000F800
000001FC00
000001FC00
000001FE00
000001FC00
000001FC00
000000F800
0000003000
000000FC00
000001FC00
000001FE00
000001FE00
000001FC00
000000FC00
0000007800
ENDCHAR
STARTCHAR five
ENCODING 53
SWIDTH 461 0
DWIDTH 46 0
BBX 38 54 4 0
BITMAP
3838787070
7EFCFCFCF8
FEFFFFFDFC
FEFFFFFFFC
FFFFFFFFFC
FEFFFFFDFC
7EFCFCFDF8
3838787070
7C00000000
FE00000000
FE00000000
FF00000000
FE00000000
FE00000000
7C00000000
0000000000
7C7C7CF800
FEFEFDFC00
FEFFFFFC00
FFFFFFFE00
FEFFFFFC00
FEFEFCFC00
7C7C78F800
0000000070
00000000F8
00000001FC
00000001FC
00000001FC
00000001FC
00000001F8
0000000070
00000000F0
00000001FC
00000001FC
00000001FC
00000001FC
00000001FC
00000000F8
0000000020
7C000000F8
FE000001FC
FE000001FC
FF000001FC
FE000001FC
FE000001FC
7C000000F8
0030303000
007CFCFC00
00FEFFFC00
00FFFFFE00
00FFFFFE00
00FFFFFC00
00FCFCFC00
0078787800
ENDCHAR
STARTCHAR six
ENCODING 54
SWIDTH 461 0
DWIDTH 46 0
BBX 38 54 4 0
BITMAP
0038787000
00FCFCFC00
00FFFFFC00
00FFFFFE00
00FFFFFE00
00FFFFFC00
00FCFCFC00
0038787000
7C00000000
FE00000000
FE00000000
FF00000000
FE00000000
FE00000000
7C00000000
0000000000
7C7C7CF800
FEFEFDFC00
FEFFFFFC00
FFFFFFFE00
FEFFFFFC00
FEFEFCFC00
7C7C78F800
3800000070
7E000000F8
FE000001FC
FE000001FC
FF000001FC
FE000001FC
7E000001F8
3800000070
3C000000F0
7E000001FC
FE000001FC
FF000001FC
FE000001FC
FE000001FC
7C000000F8
1000000020
7C000000F8
FE000001FC
FE000001FC
FF000001FC
FE000001FC
FE000001FC
7C000000F8
0030303000
007CFCFC00
00FEFFFC00
00FFFFFE00
00FFFFFE00
00FFFFFC00
00FCFCFC00
0078787800
ENDCHAR
STARTCHAR seven
ENCODING 55
SWIDTH 461 0
DWIDTH 46 0
BBX 38 54 4 0
BITMAP
3838787070
7EFCFCFCF8
FEFFFFFDFC
FEFFFFFFFC
FFFFFFFFFC
FEFFFFFDFC
7EFCFCFDF8
3838787070
00000000F8
00000001FC
00000001FC
00000001FC
00000001FC
00000001FC
00000000F8
0000000020
000000F800
000001FC00
000001FC00
000001FE00
000001FC00
000000FC00
000000F800
0000300000
0000FC0000
0000FE0000
0001FE0000
0001FE0000
0001FE0000
0000FC0000
0000780000
0000780000
0000FC0000
0001FE0000
0001FE0000
0001FE0000
0000FE0000
0000FC0000
0000300000
00007C0000
0000FC0000
0001FE0000
0001FE0000
0001FE0000
0000FC0000
0000780000
0000300000
0000FC0000
0000FE0000
0001FE0000
0001FE0000
0001FE0000
0000FC0000
0000780000
ENDCHAR
STARTCHAR eight
ENCODING 56
SWIDTH 461 0
DWIDTH 46 0
BBX 38 54 4 0
BITMAP
0038787000
00FCFCFC00
00FFFFFC00
00FFFFFE00
00FFFFFE00
00FFFFFC00
00FCFCFC00
0038787000
7C000000F8
FE000001FC
FE000001FC
FF000001FC
FE000001FC
FE000001FC
7C000000F8
0000000020
7C000000F8
FE000001FC
FE000001FC
FF000001FC
FE000001FC
FE000001FC
7C000000F8
0038307000
00FCFCFC00
00FEFFFC00
00FFFFFE00
00FFFFFE00
00FFFFFC00
00FCFCFC00
0038787800
3C000000F0
7E000001FC
FE000001FC
FF000001FC
FE000001FC
FE000001FC
7C000000F8
1000000020
7C000000F8
FE000001FC
FE000001FC
FF000001FC
FE000001FC
FE000001FC
7C000000F8
0030303000
007CFCFC00
00FEFFFC00
00FFFFFE00
00FFFFFE00
00FFFFFC00
00FCFCFC00
0078787800
ENDCHAR
STARTCHAR nine
ENCODING 57
SWIDTH 461 0
DWIDTH 46 0
BBX 38 54 4 0
BITMAP
0038787000
00FCFCFC00
00FFFFFC00
00FFFFFE00
00FFFFFE00
00FFFFFC00
00FCFCFC00
0038787000
7C000000F8
FE000001FC
FE000001FC
FF000001FC
FE000001FC
FE000001FC
7C000000F8
0000000020
7C000000F8
FE000001FC
FE000001FC
FF000001FC
FE000001FC
FE000001FC
7C000000F8
3800000070
7E000000F8
FE000001FC
FE000001FC
FF000001FC
FE000001FC
7E000001F8
3800000070
00787878F0
00FCFCFDFC
00FFFFFDFC
00FFFFFFFC
00FFFFFFFC
00FEFFFDFC
007CFCFCF8
0010302020
00000000F8
00000001FC
00000001FC
00000001FC
00000001FC
00000001FC
00000000F8
0030303000
007CFCFC00
00FEFFFC00
00FFFFFE00
00FFFFFE00
00FFFFFC00
00FCFCFC00
0078787800
ENDCHAR
STARTCHAR colon
ENCODING 58
SWIDTH 461 0
DWIDTH 46 0
BBX 8 32 19 -1
BITMAP
3C
7E
FF
FF
FF
FF
7E
3C
00
00
00
00
00
00
00
00
00
00
00
00
00
00
00
00
3C
7E
FF
FF
FF
FF
7E
3C
ENDCHAR
STARTCHAR semicolon
ENCODING 59
SWIDTH 461 0
DWIDTH 46 0
BBX 16 46 12 -15
BITMAP
003C
007E
00FF
00FF
00FF
00FF
007E
003C
0000
0000
0000
0000
0000
0000
0000
0000
0000
0000
0000
0000
0000
0000
0000
0000
003C
007E
00FF
00FF
00FF
00FF
007E
003C
007E
00FF
00FF
00FF
007E
003C
0000
7C00
FE00
FF00
FF00
FF00
7E00
3C00
ENDCHAR
STARTCHAR less
ENCODING 60
SWIDTH 461 0
DWIDTH 46 0
BBX 23 38 11 8
BITMAP
000078
0000FC
0000FE
0001FE
0001FE
0000FE
00007C
000000
003800
007C00
00FE00
00FE00
00FE00
00FE00
007C00
000000
3C0000
7E0000
FF0000
FF0000
FF0000
7E0000
3C0000
000000
003800
00FE00
00FE00
00FE00
00FE00
003800
000000
00007C
0000FE
0001FE
0001FE
0000FE
0000FC
000078
ENDCHAR
STARTCHAR equal
ENCODING 61
SWIDTH 461 0
DWIDTH 46 0
BBX 38 23 4 8
BITMAP
3838307070
7EFCFCFCF8
FEFEFFFDFC
FEFFFFFFFC
FFFFFFFFFC
FEFFFFFDFC
7EFCFCFDF8
3838787870
0000000000
0000000000
0000000000
0000000000
0000000000
0000000000
0000000000
0000000000
7C7C7CF8F8
FEFEFDFDFC
FEFFFFFDFC
FFFFFFFFFC
FEFFFFFDFC
FEFEFDFDFC
7C7C78F8F8
ENDCHAR
STARTCHAR greater
ENCODING 62
SWIDTH 461 0
DWIDTH 46 0
BBX 24 38 11 8
BITMAP
3C0000
7E0000
FF0000
FF0000
FF0000
FF0000
7E0000
000000
003C00
007E00
007F00
007F00
007F00
007E00
003E00
000000
00003C
00007E
00007F
0000FF
00007F
00007E
00003C
000000
003C00
007E00
007F00
007F00
007F00
003E00
000800
000000
3C0000
7E0000
FF0000
FF0000
FE0000
3C0000
ENDCHAR
STARTCHAR question
ENCODING 63
SWIDTH 461 0
DWIDTH 46 0
BBX 38 54 4 0
BITMAP
0038787000
00FCFCFC00
00FFFFFC00
00FFFFFE00
00FFFFFE00
00FFFFFC00
00FCFCFC00
0038787000
7C000000F8
FE000001FC
FE000001FC
FF000001FC
FE000001FC
FE000001FC
7C000000F8
0000000020
7C000000F8
FE000001FC
FE000001FC
FF000001FC
FE000001FC
FE000001FC
7C000000F8
0000007000
000000FC00
000001FC00
000001FE00
000001FE00
000001FC00
000000FC00
0000007800
0000780000
0000FC0000
0001FE0000
0001FE0000
0001FE0000
0000FE0000
0000FC0000
0000300000
0000000000
0000000000
0000000000
0000000000
0000000000
0000000000
0000000000
0000300000
0000FC0000
0000FE0000
0001FE0000
0001FE0000
0001FE0000
0000FC0000
0000780000
ENDCHAR
STARTCHAR at
ENCODING 64
SWIDTH 461 0
DWIDTH 46 0
BBX 38 54 4 0
BITMAP
0038787000
00FCFCFC00
00FFFFFC00
00FFFFFE00
00FFFFFE00
00FFFFFC00
00FCFCFC00
0038787000
7C000000F8
FE000001FC
FE000001FC
FF000001FC
FE000001FC
FE000001FC
7C000000F8
0000000020
7C7C7C00F8
FEFEFC01FC
FEFFFE01FC
FFFFFE01FC
FEFFFE01FC
FEFEFC01FC
7C7C7800F8
3800300070
7E00FC00F8
FE00FE01FC
FE01FE01FC
FF01FE01FC
FE01FE01FC
7E00FC01F8
3800780070
3C78787800
7EFCFCFC00
FEFFFFFC00
FFFFFFFE00
FEFFFFFE00
FEFEFFFC00
7C7CFCFC00
1010302000
7C00000000
FE00000000
FE00000000
FF00000000
FE00000000
FE00000000
7C00000000
0030303000
007CFCFC00
00FEFFFC00
00FFFFFE00
00FFFFFE00
00FFFFFC00
00FCFCFC00
0078787800
ENDCHAR
STARTCHAR A
ENCODING 65
SWIDTH 461 0
DWIDTH 46 0
BBX 38 54 4 0
BITMAP
0038787000
00FCFCFC00
00FFFFFC00
00FFFFFE00
00FFFFFE00
00FFFFFC00
00FCFCFC00
0038787000
7C000000F8
FE000001FC
FE000001FC
FF000001FC
FE000001FC
FE000001FC
7C000000F8
0000000020
7C000000F8
FE000001FC
FE000001FC
FF000001FC
FE000001FC
FE000001FC
7C000000F8
3838307070
7EFCFCFCF8
FEFEFFFDFC
FEFFFFFFFC
FFFFFFFFFC
FEFFFFFDFC
7EFCFCFDF8
3838787870
3C000000F0
7E000001FC
FE000001FC
FF000001FC
FE000001FC
FE000001FC
7C000000F8
1000000020
7C000000F8
FE000001FC
FE000001FC
FF000001FC
FE000001FC
FE000001FC
7C000000F8
1800000060
7C000000F8
FE000001FC
FE000001FC
FF000001FC
FE000001FC
7E000001FC
3C00000070
ENDCHAR
STARTCHAR B
ENCODING 66
SWIDTH 461 0
DWIDTH 46 0
BBX 38 54 4 0
BITMAP
3838787000
7EFCFCFC00
FEFFFFFC00
FEFFFFFE00
FFFFFFFE00
FEFFFFFC00
7EFCFCFC00
3838787000
7C000000F8
FE000001FC
FE000001FC
FF000001FC
FE000001FC
FE000001FC
7C000000F8
0000000020
7C000000F8
FE000001FC
FE000001FC
FF000001FC
FE000001FC
FE000001FC
7C000000F8
3838307000
7EFCFCFC00
FEFEFFFC00
FEFFFFFE00
FFFFFFFE00
FEFFFFFC00
7EFCFCFC00
3838787800
3C000000F0
7E000001FC
FE000001FC
FF000001FC
FE000001FC
FE000001FC
7C000000F8
1000000020
7C000000F8
FE000001FC
FE000001FC
FF000001FC
FE000001FC
FE000001FC
7C000000F8
1830303000
7C7CFCFC00
FEFEFFFC00
FEFFFFFE00
FFFFFFFE00
FEFFFFFC00
7EFCFCFC00
3C78787800
ENDCHAR
STARTCHAR C
ENCODING 67
SWIDTH 461 0
DWIDTH 46 0
BBX 38 54 4 0
BITMAP
0038787000
00FCFCFC00
00FFFFFC00
00FFFFFE00
00FFFFFE00
00FFFFFC00
00FCFCFC00
0038787000
7C000000F8
FE000001FC
FE000001FC
FF000001FC
FE000001FC
FE000001FC
7C000000F8
0000000020
7C000000F8
FE000001FC
FE000001FC
FF000001FC
FE000001FC
FE000001FC
7C000000F8
3800000000
7E00000000
FE00000000
FE00000000
FF00000000
FE00000000
7E00000000
3800000000
3C00000000
7E00000000
FE00000000
FF00000000
FE00000000
FE00000000
7C00000000
1000000000
7C000000F8
FE000001FC
FE000001FC
FF000001FC
FE000001FC
FE000001FC
7C000000F8
0030303000
007CFCFC00
00FEFFFC00
00FFFFFE00
00FFFFFE00
00FFFFFC00
00FCFCFC00
0078787800
ENDCHAR
STARTCHAR D
ENCODING 68
SWIDTH 461 0
DWIDTH 46 0
BBX 38 54 4 0
BITMAP
3838787000
7EFCFCFC00
FEFFFFFC00
FEFFFFFE00
FFFFFFFE00
FEFFFFFC00
7EFCFCFC00
3838787000
7C000000F8
FE000001FC
FE000001FC
FF000001FC
FE000001FC
FE000001FC
7C000000F8
0000000020
7C000000F8
FE000001FC
FE000001FC
FF000001FC
FE000001FC
FE000001FC
7C000000F8
3800000070
7E000000F8
FE000001FC
FE000001FC
FF000001FC
FE000001FC
7E000001F8
3800000070
3C000000F0
7E000001FC
FE000001FC
FF000001FC
FE000001FC
FE000001FC
7C000000F8
1000000020
7C000000F8
FE000001FC
FE000001FC
FF000001FC
FE000001FC
FE000001FC
7C000000F8
1830303000
7C7CFCFC00
FEFEFFFC00
FEFFFFFE00
FFFFFFFE00
FEFFFFFC00
7EFCFCFC00
3C78787800
ENDCHAR
STARTCHAR E
ENCODING 69
SWIDTH 461 0
DWIDTH 46 0
BBX 38 54 4 0
BITMAP
3838787070
7EFCFCFCF8
FEFFFFFDFC
FEFFFFFFFC
FFFFFFFFFC
FEFFFFFDFC
7EFCFCFDF8
3838787070
7C00000000
FE00000000
FE00000000
FF00000000
FE00000000
FE00000000
7C00000000
0000000000
7C00000000
FE00000000
FE00000000
FF00000000
FE00000000
FE00000000
7C00000000
3838307000
7EFCFCFC00
FEFEFFFC00
FEFFFFFE00
FFFFFFFE00
FEFFFFFC00
7EFCFCFC00
3838787800
3C00000000
7E00000000
FE00000000
FF00000000
FE00000000
FE00000000
7C00000000
1000000000
7C00000000
FE00000000
FE00000000
FF00000000
FE00000000
FE00000000
7C00000000
1830303060
7C7CFCFCF8
FEFEFFFDFC
FEFFFFFFFC
FFFFFFFFFC
FEFFFFFDFC
7EFCFCFDFC
3C78787870
ENDCHAR
STARTCHAR F
ENCODING 70
SWIDTH 461 0
DWIDTH 46 0
BBX 38 54 4 0
BITMAP
3838787070
7EFCFCFCF8
FEFFFFFDFC
FEFFFFFFFC
FFFFFFFFFC
FEFFFFFDFC
7EFCFCFDF8
3838787070
7C00000000
FE00000000
FE00000000
FF00000000
FE00000000
FE00000000
7C00000000
0000000000
7C00000000
FE00000000
FE00000000
FF00000000
FE00000000
FE00000000
7C00000000
3838307000
7EFCFCFC00
FEFEFFFC00
FEFFFFFE00
FFFFFFFE00
FEFFFFFC00
7EFCFCFC00
3838787800
3C00000000
7E00000000
FE00000000
FF00000000
FE00000000
FE00000000
7C00000000
1000000000
7C00000000
FE00000000
FE00000000
FF00000000
FE00000000
FE00000000
7C00000000
1800000000
7C00000000
FE00000000
FE00000000
FF00000000
FE00000000
7E00000000
3C00000000
ENDCHAR
STARTCHAR G
ENCODING 71
SWIDTH 461 0
DWIDTH 46 0
BBX 38 54 4 0
BITMAP
0038787000
00FCFCFC00
00FFFFFC00
00FFFFFE00
00FFFFFE00
00FFFFFC00
00FCFCFC00
0038787000
7C000000F8
FE000001FC
FE000001FC
FF000001FC
FE000001FC
FE000001FC
7C000000F8
0000000020
7C00000000
FE00000000
FE00000000
FF00000000
FE00000000
FE00000000
7C00000000
3800307070
7E00FCFCF8
FE00FFFDFC
FE01FFFFFC
FF01FFFFFC
FE01FFFDFC
7E00FCFDF8
3800787870
3C000000F0
7E000001FC
FE000001FC
FF000001FC
FE000001FC
FE000001FC
7C000000F8
1000000020
7C000000F8
FE000001FC
FE000001FC
FF000001FC
FE000001FC
FE000001FC
7C000000F8
0030303000
007CFCFC00
00FEFFFC00
00FFFFFE00
00FFFFFE00
00FFFFFC00
00FCFCFC00
0078787800
ENDCHAR
STARTCHAR H
ENCODING 72
SWIDTH 461 0
DWIDTH 46 0
BBX 38 55 4 -1
BITMAP
3800000070
7E000000F8
FE000001FC
FE000001FC
FF000001FC
FE000001FC
7E000001F8
3800000070
7C000000F8
FE000001FC
FE000001FC
FF000001FC
FE000001FC
FE000001FC
7C000000F8
0000000020
7C000000F8
FE000001FC
FE000001FC
FF000001FC
FE000001FC
FE000001FC
7C000000F8
3838307070
7EFCFCFCF8
FEFEFFFDFC
FEFFFFFFFC
FFFFFFFFFC
FEFFFFFDFC
7EFCFCFDF8
3838787870
3C000000F0
7E000001FC
FE000001FC
FF000001FC
FE000001FC
FE000001FC
7C000000F8
1000000020
7C000000F8
FE000001FC
FE000001FC
FF000001FC
FE000001FC
FE000001FC
7C000000F8
1800000060
7C000000F8
FE000001FC
FE000001FC
FF000001FC
FE000001FC
FE000001FC
7E00000070
3C00000000
ENDCHAR
STARTCHAR I
ENCODING 73
SWIDTH 307 0
DWIDTH 31 0
BBX 23 54 4 0
BITMAP
383878
7EFCFC
FEFFFE
FEFFFE
FFFFFE
FEFFFE
7EFCFC
383878
007C00
00FE00
00FE00
00FE00
00FE00
00FE00
007C00
001000
007C00
00FE00
00FE00
00FE00
00FE00
00FE00
007C00
003800
00FC00
00FE00
00FE00
00FE00
00FE00
00FC00
003800
007800
00FC00
00FE00
00FE00
00FE00
00FE00
007C00
001000
007C00
00FE00
00FE00
00FE00
00FE00
00FE00
007C00
183030
7C7CFC
FEFEFE
FEFFFE
FFFFFE
FEFFFE
7EFCFC
3C7878
ENDCHAR
STARTCHAR J
ENCODING 74
SWIDTH 461 0
DWIDTH 46 0
BBX 38 54 4 0
BITMAP
0000787070
0000FCFCF8
0001FFFDFC
0001FFFFFC
0001FFFFFC
0001FFFDFC
0000FCFDF8
0000787070
00000000F8
00000001FC
00000001FC
00000001FC
00000001FC
00000001FC
00000000F8
0000000020
00000000F8
00000001FC
00000001FC
00000001FC
00000001FC
00000001FC
00000000F8
0000000070
00000000F8
00000001FC
00000001FC
00000001FC
00000001FC
00000001F8
0000000070
3C000000F0
7E000001FC
FE000001FC
FF000001FC
FE000001FC
FE000001FC
7C000000F8
1000000020
7C000000F8
FE000001FC
FE000001FC
FF000001FC
FE000001FC
FE000001FC
7C000000F8
0030303000
007CFCFC00
00FEFFFC00
00FFFFFE00
00FFFFFE00
00FFFFFC00
00FCFCFC00
0078787800
ENDCHAR
STARTCHAR K
ENCODING 75
SWIDTH 461 0
DWIDTH 46 0
BBX 38 54 4 0
BITMAP
3800000070
7E000000F8
FE000001FC
FE000001FC
FF000001FC
FE000001FC
7E000001F8
3800000070
7C00007800
FE0000FC00
FE0001FC00
FF0001FE00
FE0001FE00
FE0001FC00
7C0000F800
0000000000
7C007C0000
FE00FC0000
FE01FE0000
FF01FE0000
FE01FE0000
FE00FC0000
7C00780000
3838000000
7EFC000000
FEFE000000
FEFE000000
FFFE000000
FEFE000000
7EFC000000
3838000000
3C00780000
7E00FC0000
FE01FE0000
FF01FE0000
FE01FE0000
FE00FE0000
7C00FC0000
1000300000
7C0000F800
FE0001FC00
FE0001FC00
FF0001FE00
FE0001FC00
FE0001FC00
7C0000F800
1800000060
7C000000F8
FE000001FC
FE000001FC
FF000001FC
FE000001FC
7E000001FC
3C00000070
ENDCHAR
STARTCHAR L
ENCODING 76
SWIDTH 461 0
DWIDTH 46 0
BBX 38 54 4 0
BITMAP
3800000000
7E00000000
FE00000000
FE00000000
FF00000000
FE00000000
7E00000000
3800000000
7C00000000
FE00000000
FE00000000
FF00000000
FE00000000
FE00000000
7C00000000
0000000000
7C00000000
FE00000000
FE00000000
FF00000000
FE00000000
FE00000000
7C00000000
3800000000
7E00000000
FE00000000
FE00000000
FF00000000
FE00000000
7E00000000
3800000000
3C00000000
7E00000000
FE00000000
FF00000000
FE00000000
FE00000000
7C00000000
1000000000
7C00000000
FE00000000
FE00000000
FF00000000
FE00000000
FE00000000
7C00000000
1830303060
7C7CFCFCF8
FEFEFFFDFC
FEFFFFFFFC
FFFFFFFFFC
FEFFFFFDFC
7EFCFCFDFC
3C78787870
ENDCHAR
STARTCHAR M
ENCODING 77
SWIDTH 461 0
DWIDTH 46 0
BBX 38 55 4 -1
BITMAP
3800000070
7E000000F8
FE000001FC
FE000001FC
FF000001FC
FE000001FC
7E000001F8
3800000070
7C7C0078F8
FEFE00FDFC
FEFE01FDFC
FFFE01FFFC
FEFE01FFFC
FEFE01FDFC
7C7C00F8F8
0010000020
7C007C00F8
FE00FC01FC
FE01FE01FC
FF01FE01FC
FE01FE01FC
FE00FC01FC
7C007800F8
3800000070
7E000000F8
FE000001FC
FE000001FC
FF000001FC
FE000001FC
7E000001F8
3800000070
3C000000F0
7E000001FC
FE000001FC
FF000001FC
FE000001FC
FE000001FC
7C000000F8
1000000020
7C000000F8
FE000001FC
FE000001FC
FF000001FC
FE000001FC
FE000001FC
7C000000F8
1800000060
7C000000F8
FE000001FC
FE000001FC
FF000001FC
FE000001FC
FE000001FC
7E00000070
3C00000000
ENDCHAR
STARTCHAR N
ENCODING 78
SWIDTH 461 0
DWIDTH 46 0
BBX 38 55 4 -1
BITMAP
3800000070
7E000000F8
FE000001FC
FE000001FC
FF000001FC
FE000001FC
7E000001F8
3800000070
7C7C0000F8
FEFE0001FC
FEFE0001FC
FFFE0001FC
FEFE0001FC
FEFE0001FC
7C7C0000F8
0010000020
7C007C00F8
FE00FC01FC
FE01FE01FC
FF01FE01FC
FE01FE01FC
FE00FC01FC
7C007800F8
3800007070
7E0000FCF8
FE0001FDFC
FE0001FFFC
FF0001FFFC
FE0001FDFC
7E0000FDF8
3800007870
3C000000F0
7E000001FC
FE000001FC
FF000001FC
FE000001FC
FE000001FC
7C000000F8
1000000020
7C000000F8
FE000001FC
FE000001FC
FF000001FC
FE000001FC
FE000001FC
7C000000F8
1800000060
7C000000F8
FE000001FC
FE000001FC
FF000001FC
FE000001FC
FE000001FC
7E00000070
3C00000000
ENDCHAR
STARTCHAR O
ENCODING 79
SWIDTH 461 0
DWIDTH 46 0
BBX 38 54 4 0
BITMAP
0038787000
00FCFCFC00
00FFFFFC00
00FFFFFE00
00FFFFFE00
00FFFFFC00
00FCFCFC00
0038787000
7C000000F8
FE000001FC
FE000001FC
FF000001FC
FE000001FC
FE000001FC
7C000000F8
0000000020
7C000000F8
FE000001FC
FE000001FC
FF000001FC
FE000001FC
FE000001FC
7C000000F8
3800000070
7E000000F8
FE000001FC
FE000001FC
FF000001FC
FE000001FC
7E000001F8
3800000070
3C000000F0
7E000001FC
FE000001FC
FF000001FC
FE000001FC
FE000001FC
7C000000F8
1000000020
7C000000F8
FE000001FC
FE000001FC
FF000001FC
FE000001FC
FE000001FC
7C000000F8
0030303000
007CFCFC00
00FEFFFC00
00FFFFFE00
00FFFFFE00
00FFFFFC00
00FCFCFC00
0078787800
ENDCHAR
STARTCHAR P
ENCODING 80
SWIDTH 461 0
DWIDTH 46 0
BBX 38 54 4 0
BITMAP
3838787000
7EFCFCFC00
FEFFFFFC00
FEFFFFFE00
FFFFFFFE00
FEFFFFFC00
7EFCFCFC00
3838787000
7C000000F8
FE000001FC
FE000001FC
FF000001FC
FE000001FC
FE000001FC
7C000000F8
0000000020
7C000000F8
FE000001FC
FE000001FC
FF000001FC
FE000001FC
FE000001FC
7C000000F8
3838307000
7EFCFCFC00
FEFEFFFC00
FEFFFFFE00
FFFFFFFE00
FEFFFFFC00
7EFCFCFC00
3838787800
3C00000000
7E00000000
FE00000000
FF00000000
FE00000000
FE00000000
7C00000000
1000000000
7C00000000
FE00000000
FE00000000
FF00000000
FE00000000
FE00000000
7C00000000
1800000000
7C00000000
FE00000000
FE00000000
FF00000000
FE00000000
7E00000000
3C00000000
ENDCHAR
STARTCHAR Q
ENCODING 81
SWIDTH 461 0
DWIDTH 46 0
BBX 38 62 4 -8
BITMAP
0038787000
00FCFCFC00
00FFFFFC00
00FFFFFE00
00FFFFFE00
00FFFFFC00
00FCFCFC00
0038787000
7C000000F8
FE000001FC
FE000001FC
FF000001FC
FE000001FC
FE000001FC
7C000000F8
0000000020
7C000000F8
FE000001FC
FE000001FC
FF000001FC
FE000001FC
FE000001FC
7C000000F8
3800000070
7E000000F8
FE000001FC
FE000001FC
FF000001FC
FE000001FC
7E000001F8
3800000070
3C000000F0
7E000001FC
FE000001FC
FF000001FC
FE000001FC
FE000001FC
7C000000F8
1000000020
7C000000F8
FE000001FC
FE000001FC
FF000001FC
FE000001FC
FE000001FC
7C000000F8
0030303000
007CFCFC00
00FEFFFC00
00FFFFFE00
00FFFFFE00
00FFFFFC00
00FCFCFC00
0078787800
0000000070
00000001F8
00000001FC
00000001FC
00000001FC
00000001FC
00000000F8
0000000070
ENDCHAR
STARTCHAR R
ENCODING 82
SWIDTH 461 0
DWIDTH 46 0
BBX 38 54 4 0
BITMAP
3838787000
7EFCFCFC00
FEFFFFFC00
FEFFFFFE00
FFFFFFFE00
FEFFFFFC00
7EFCFCFC00
3838787000
7C000000F8
FE000001FC
FE000001FC
FF000001FC
FE000001FC
FE000001FC
7C000000F8
0000000020
7C000000F8
FE000001FC
FE000001FC
FF000001FC
FE000001FC
FE000001FC
7C000000F8
3838307000
7EFCFCFC00
FEFEFFFC00
FEFFFFFE00
FFFFFFFE00
FEFFFFFC00
7EFCFCFC00
3838787800
3C00007800
7E0000FC00
FE0001FC00
FF0001FE00
FE0001FE00
FE0001FC00
7C0000FC00
1000002000
7C000000F8
FE000001FC
FE000001FC
FF000001FC
FE000001FC
FE000001FC
7C000000F8
1800000060
7C000000F8
FE000001FC
FE000001FC
FF000001FC
FE000001FC
7E000001FC
3C00000070
ENDCHAR
STARTCHAR S
ENCODING 83
SWIDTH 461 0
DWIDTH 46 0
BBX 38 54 4 0
BITMAP
0038787000
00FCFCFC00
00FFFFFC00
00FFFFFE00
00FFFFFE00
00FFFFFC00
00FCFCFC00
0038787000
7C000000F8
FE000001FC
FE000001FC
FF000001FC
FE000001FC
FE000001FC
7C000000F8
0000000020
7C00000000
FE00000000
FE00000000
FF00000000
FE00000000
FE00000000
7C00000000
0038307000
00FCFCFC00
00FEFFFC00
00FFFFFE00
00FFFFFE00
00FFFFFC00
00FCFCFC00
0038787800
00000000F0
00000001FC
00000001FC
00000001FC
00000001FC
00000001FC
00000000F8
0000000020
7C000000F8
FE000001FC
FE000001FC
FF000001FC
FE000001FC
FE000001FC
7C000000F8
0030303000
007CFCFC00
00FEFFFC00
00FFFFFE00
00FFFFFE00
00FFFFFC00
00FCFCFC00
0078787800
ENDCHAR
STARTCHAR T
ENCODING 84
SWIDTH 461 0
DWIDTH 46 0
BBX 38 54 4 0
BITMAP
3838787070
7EFCFCFCF8
FEFFFFFDFC
FEFFFFFFFC
FFFFFFFFFC
FEFFFFFDFC
7EFCFCFDF8
3838787070
0000780000
0000FC0000
0001FE0000
0001FE0000
0001FE0000
0000FC0000
0000FC0000
0000000000
00007C0000
0000FC0000
0001FE0000
0001FE0000
0001FE0000
0000FC0000
0000780000
0000300000
0000FC0000
0000FE0000
0001FE0000
0001FE0000
0001FE0000
0000FC0000
0000780000
0000780000
0000FC0000
0001FE0000
0001FE0000
0001FE0000
0000FE0000
0000FC0000
0000300000
00007C0000
0000FC0000
0001FE0000
0001FE0000
0001FE0000
0000FC0000
0000780000
0000300000
0000FC0000
0000FE0000
0001FE0000
0001FE0000
0001FE0000
0000FC0000
0000780000
ENDCHAR
STARTCHAR U
ENCODING 85
SWIDTH 461 0
DWIDTH 46 0
BBX 38 54 4 0
BITMAP
3800000070
7E000000F8
FE000001FC
FE000001FC
FF000001FC
FE000001FC
7E000001F8
3800000070
7C000000F8
FE000001FC
FE000001FC
FF000001FC
FE000001FC
FE000001FC
7C000000F8
0000000020
7C000000F8
FE000001FC
FE000001FC
FF000001FC
FE000001FC
FE000001FC
7C000000F8
3800000070
7E000000F8
FE000001FC
FE000001FC
FF000001FC
FE000001FC
7E000001F8
3800000070
3C000000F0
7E000001FC
FE000001FC
FF000001FC
FE000001FC
FE000001FC
7C000000F8
1000000020
7C000000F8
FE000001FC
FE000001FC
FF000001FC
FE000001FC
FE000001FC
7C000000F8
0030303000
007CFCFC00
00FEFFFC00
00FFFFFE00
00FFFFFE00
00FFFFFC00
00FCFCFC00
0078787800
ENDCHAR
STARTCHAR V
ENCODING 86
SWIDTH 461 0
DWIDTH 46 0
BBX 38 54 4 0
BITMAP
3800000070
7E000000F8
FE000001FC
FE000001FC
FF000001FC
FE000001FC
7E000001F8
3800000070
7C000000F8
FE000001FC
FE000001FC
FF000001FC
FE000001FC
FE000001FC
7C000000F8
0000000020
7C000000F8
FE000001FC
FE000001FC
FF000001FC
FE000001FC
FE000001FC
7C000000F8
3800000070
7E000000F8
FE000001FC
FE000001FC
FF000001FC
FE000001FC
7E000001F8
3800000070
3C000000F0
7E000001FC
FE000001FC
FF000001FC
FE000001FC
FE000001FC
7C000000F8
1000000020
007C00F800
00FE01FC00
00FE01FC00
00FE01FE00
00FE01FC00
00FE01FC00
007C00F800
0000300000
0000FC0000
0000FE0000
0001FE0000
0001FE0000
0001FE0000
0000FC0000
0000780000
ENDCHAR
STARTCHAR W
ENCODING 87
SWIDTH 461 0
DWIDTH 46 0
BBX 38 54 4 0
BITMAP
3800000070
7E000000F8
FE000001FC
FE000001FC
FF000001FC
FE000001FC
7E000001F8
3800000070
7C000000F8
FE000001FC
FE000001FC
FF000001FC
FE000001FC
FE000001FC
7C000000F8
0000000020
7C000000F8
FE000001FC
FE000001FC
FF000001FC
FE000001FC
FE000001FC
7C000000F8
3800000070
7E000000F8
FE000001FC
FE000001FC
FF000001FC
FE000001FC
7E000001F8
3800000070
3C007800F0
7E00FC01FC
FE01FE01FC
FF01FE01FC
FE01FE01FC
FE00FE01FC
7C00FC00F8
1000300020
7C7C00F8F8
FEFE01FDFC
FEFE01FDFC
FFFE01FFFC
FEFE01FDFC
FEFE01FDFC
7C7C00F8F8
1800000060
7C000000F8
FE000001FC
FE000001FC
FF000001FC
FE000001FC
7E000001FC
3C00000070
ENDCHAR
STARTCHAR X
ENCODING 88
SWIDTH 461 0
DWIDTH 46 0
BBX 38 54 4 0
BITMAP
3800000070
7E000000F8
FE000001FC
FE000001FC
FF000001FC
FE000001FC
7E000001F8
3800000070
7C000000F8
FE000001FC
FE000001FC
FF000001FC
FE000001FC
FE000001FC
7C000000F8
0000000020
007C00F800
00FE01FC00
00FE01FC00
00FE01FE00
00FE01FC00
00FE00FC00
007C00F800
0000300000
0000FC0000
0000FE0000
0001FE0000
0001FE0000
0001FE0000
0000FC0000
0000780000
0078007800
00FC00FC00
00FE01FC00
00FE01FE00
00FE01FE00
00FE01FC00
007C00FC00
0010002000
7C000000F8
FE000001FC
FE000001FC
FF000001FC
FE000001FC
FE000001FC
7C000000F8
1800000060
7C000000F8
FE000001FC
FE000001FC
FF000001FC
FE000001FC
7E000001FC
3C00000070
ENDCHAR
STARTCHAR Y
ENCODING 89
SWIDTH 461 0
DWIDTH 46 0
BBX 38 54 4 0
BITMAP
3800000070
7E000000F8
FE000001FC
FE000001FC
FF000001FC
FE000001FC
7E000001F8
3800000070
7C000000F8
FE000001FC
FE000001FC
FF000001FC
FE000001FC
FE000001FC
7C000000F8
0000000020
007C00F800
00FE01FC00
00FE01FC00
00FE01FE00
00FE01FC00
00FE00FC00
007C00F800
0000300000
0000FC0000
0000FE0000
0001FE0000
0001FE0000
0001FE0000
0000FC0000
0000780000
0000780000
0000FC0000
0001FE0000
0001FE0000
0001FE0000
0000FE0000
0000FC0000
0000300000
00007C0000
0000FC0000
0001FE0000
0001FE0000
0001FE0000
0000FC0000
0000780000
0000300000
0000FC0000
0000FE0000
0001FE0000
0001FE0000
0001FE0000
0000FC0000
0000780000
ENDCHAR
STARTCHAR Z
ENCODING 90
SWIDTH 461 0
DWIDTH 46 0
BBX 38 54 4 0
BITMAP
3838787070
7EFCFCFCF8
FEFFFFFDFC
FEFFFFFFFC
FFFFFFFFFC
FEFFFFFDFC
7EFCFCFDF8
3838787070
00000000F8
00000001FC
00000001FC
00000001FC
00000001FC
00000001FC
00000000F8
0000000020
000000F800
000001FC00
000001FC00
000001FE00
000001FC00
000000FC00
000000F800
0000300000
0000FC0000
0000FE0000
0001FE0000
0001FE0000
0001FE0000
0000FC0000
0000780000
0078000000
00FC000000
00FE000000
00FE000000
00FE000000
00FE000000
007C000000
0010000000
7C00000000
FE00000000
FE00000000
FF00000000
FE00000000
FE00000000
7C00000000
1830303060
7C7CFCFCF8
FEFEFFFDFC
FEFFFFFFFC
FFFFFFFFFC
FEFFFFFDFC
7EFCFCFDFC
3C78787870
ENDCHAR
STARTCHAR bracketleft
ENCODING 91
SWIDTH 461 0
DWIDTH 46 0
BBX 16 54 19 0
BITMAP
3C38
7E7E
FFFE
FFFF
FFFF
FFFE
7E7E
3C38
3C00
7E00
FF00
FF00
FF00
7E00
7E00
0000
3E00
7E00
FF00
FF00
FF00
7E00
3C00
1800
7E00
7F00
FF00
FF00
FF00
7E00
3C00
3C00
7E00
FF00
FF00
FF00
7F00
7E00
1800
3E00
7E00
FF00
FF00
FF00
7E00
3C00
1818
7E7E
7FFE
FFFF
FFFF
FFFE
7E7E
3C3C
ENDCHAR
STARTCHAR backslash
ENCODING 92
SWIDTH 461 0
DWIDTH 46 0
BBX 32 62 4 -8
BITMAP
3C000000
7E000000
FF000000
FF000000
FF000000
7E000000
3C000000
00000000
3C000000
7E000000
FF000000
FF000000
FF000000
7E000000
3C000000
00000000
003C0000
007E0000
007F0000
007F0000
007F0000
007E0000
003C0000
001C0000
003E0000
007F0000
007F0000
007F0000
007F0000
007E0000
001C0000
00003C00
00007E00
00007F00
0000FF00
0000FF00
00007F00
00007E00
00003C00
00003E00
00007E00
00007F00
0000FF00
0000FF00
00007F00
00007E00
00003C18
0000007E
0000007E
000000FF
000000FF
000000FF
000000FF
0000007E
0000003C
0000007E
000000FF
000000FF
000000FF
000000FF
0000007E
0000003C
ENDCHAR
STARTCHAR bracketright
ENCODING 93
SWIDTH 461 0
DWIDTH 46 0
BBX 15 54 12 0
BITMAP
3878
FCFC
FFFE
FFFE
FFFE
FFFE
FCFC
3878
0078
00FC
01FE
01FE
01FE
00FC
00FC
0000
007C
00FC
01FE
01FE
01FE
00FC
0078
0030
00FC
00FE
01FE
01FE
01FE
00FC
0078
0078
00FC
01FE
01FE
01FE
00FE
00FC
0030
007C
00FC
01FE
01FE
01FE
00FC
0078
3030
7CFC
FEFE
FFFE
FFFE
FFFE
FCFC
7878
ENDCHAR
STARTCHAR asciicircum
ENCODING 94
SWIDTH 461 0
DWIDTH 46 0
BBX 23 16 11 38
BITMAP
003800
007C00
00FE00
00FE00
00FE00
00FE00
007C00
003800
3C0078
7E00FC
FE00FE
FF01FE
FF01FE
FE00FE
7E00FC
3C0078
ENDCHAR
STARTCHAR underscore
ENCODING 95
SWIDTH 461 0
DWIDTH 46 0
BBX 38 9 4 -1
BITMAP
3C38787070
7E7CFCF8F8
FFFEFFFDFC
FFFFFFFDFC
FFFFFFFDFC
FFFFFFFDFC
FFFEFFFDFC
7E7CFCF8F8
3C38787070
ENDCHAR
STARTCHAR grave
ENCODING 96
SWIDTH 461 0
DWIDTH 46 0
BBX 16 16 18 46
BITMAP
3C00
7E00
FF00
FF00
FF00
FF00
7E00
3C00
001C
007E
007F
007F
007F
007F
007E
001C
ENDCHAR
STARTCHAR a
ENCODING 97
SWIDTH 461 0
DWIDTH 46 0
BBX 38 38 4 0
BITMAP
007C7CF8F8
00FEFDFDFC
00FFFFFDFC
00FFFFFFFC
00FFFFFDFC
00FEFCFDFC
007C78F8F8
3800000070
7E000000F8
FE000001FC
FE000001FC
FF000001FC
FE000001FC
7E000001F8
3800000070
3C000000F0
7E000001FC
FE000001FC
FF000001FC
FE000001FC
FE000001FC
7C000000F8
1000000020
7C0000F8F8
FE0001FDFC
FE0001FDFC
FF0001FFFC
FE0001FDFC
FE0001FDFC
7C0000F8F8
0030300060
007CFC00F8
00FEFE01FC
00FFFE01FC
00FFFE01FC
00FFFE01FC
00FCFC01FC
0078780070
ENDCHAR
STARTCHAR b
ENCODING 98
SWIDTH 461 0
DWIDTH 46 0
BBX 38 54 4 0
BITMAP
3800000000
7E00000000
FE00000000
FE00000000
FF00000000
FE00000000
7E00000000
3800000000
7C00000000
FE00000000
FE00000000
FF00000000
FE00000000
FE00000000
7C00000000
0000000000
7C7C7CF800
FEFEFDFC00
FEFFFFFC00
FFFFFFFE00
FEFFFFFC00
FEFEFCFC00
7C7C78F800
3800000070
7E000000F8
FE000001FC
FE000001FC
FF000001FC
FE000001FC
7E000001F8
3800000070
3C000000F0
7E000001FC
FE000001FC
FF000001FC
FE000001FC
FE000001FC
7C000000F8
1000000020
7C7C0000F8
FEFE0001FC
FEFE0001FC
FFFE0001FC
FEFE0001FC
FEFE0001FC
7C7C0000F8
1800303000
7C00FCFC00
FE00FFFC00
FE01FFFE00
FF01FFFE00
FE01FFFC00
7E00FCFC00
3C00787800
ENDCHAR
STARTCHAR c
ENCODING 99
SWIDTH 461 0
DWIDTH 46 0
BBX 38 38 4 0
BITMAP
007C7CF800
00FEFDFC00
00FFFFFC00
00FFFFFE00
00FFFFFC00
00FEFCFC00
007C78F800
3800000070
7E000000F8
FE000001FC
FE000001FC
FF000001FC
FE000001FC
7E000001F8
3800000070
3C00000000
7E00000000
FE00000000
FF00000000
FE00000000
FE00000000
7C00000000
1000000000
7C00000000
FE00000000
FE00000000
FF00000000
FE00000000
FE00000000
7C00000000
0030303060
007CFCFCF8
00FEFFFDFC
00FFFFFFFC
00FFFFFFFC
00FFFFFDFC
00FCFCFDFC
0078787870
ENDCHAR
STARTCHAR d
ENCODING 100
SWIDTH 461 0
DWIDTH 46 0
BBX 38 54 4 0
BITMAP
0000000070
00000000F8
00000001FC
00000001FC
00000001FC
00000001FC
00000001F8
0000000070
00000000F8
00000001FC
00000001FC
00000001FC
00000001FC
00000001FC
00000000F8
0000000020
007C7CF8F8
00FEFDFDFC
00FFFFFDFC
00FFFFFFFC
00FFFFFDFC
00FEFCFDFC
007C78F8F8
3800000070
7E000000F8
FE000001FC
FE000001FC
FF000001FC
FE000001FC
7E000001F8
3800000070
3C000000F0
7E000001FC
FE000001FC
FF000001FC
FE000001FC
FE000001FC
7C000000F8
1000000020
7C000000F8
FE000001FC
FE000001FC
FF000001FC
FE000001FC
FE000001FC
7C000000F8
0030303060
007CFCFCF8
00FEFFFDFC
00FFFFFFFC
00FFFFFFFC
00FFFFFDFC
00FCFCFDFC
0078787870
ENDCHAR
STARTCHAR e
ENCODING 101
SWIDTH 461 0
DWIDTH 46 0
BBX 38 38 4 0
BITMAP
007C7CF800
00FEFDFC00
00FFFFFC00
00FFFFFE00
00FFFFFC00
00FEFCFC00
007C78F800
3800000070
7E000000F8
FE000001FC
FE000001FC
FF000001FC
FE000001FC
7E000001F8
3800000070
3C787878F0
7EFCFCFDFC
FEFFFFFDFC
FFFFFFFFFC
FEFFFFFFFC
FEFEFFFDFC
7C7CFCFCF8
1010302020
7C00000000
FE00000000
FE00000000
FF00000000
FE00000000
FE00000000
7C00000000
0030303060
007CFCFCF8
00FEFFFDFC
00FFFFFFFC
00FFFFFFFC
00FFFFFDFC
00FCFCFDFC
0078787870
ENDCHAR
STARTCHAR f
ENCODING 102
SWIDTH 384 0
DWIDTH 38 0
BBX 31 54 4 0
BITMAP
00007870
0000FCFC
0001FFFC
0001FFFE
0001FFFE
0001FFFC
0000FCFC
00007870
007C0000
00FE0000
00FE0000
00FE0000
00FE0000
00FE0000
007C0000
00100000
7C7C7C00
FEFEFC00
FEFFFE00
FFFFFE00
FEFFFE00
FEFEFC00
7C7C7800
00380000
00FC0000
00FE0000
00FE0000
00FE0000
00FE0000
00FC0000
00380000
00780000
00FC0000
00FE0000
00FE0000
00FE0000
00FE0000
007C0000
00100000
007C0000
00FE0000
00FE0000
00FE0000
00FE0000
00FE0000
007C0000
00300000
007C0000
00FE0000
00FE0000
00FE0000
00FE0000
00FC0000
00780000
ENDCHAR
STARTCHAR g
ENCODING 103
SWIDTH 461 0
DWIDTH 46 0
BBX 38 53 4 -15
BITMAP
007C7CF8F8
00FEFDFDFC
00FFFFFDFC
00FFFFFFFC
00FFFFFDFC
00FEFCFDFC
007C78F8F8
3800000070
7E000000F8
FE000001FC
FE000001FC
FF000001FC
FE000001FC
7E000001F8
3800000070
3C000000F0
7E000001FC
FE000001FC
FF000001FC
FE000001FC
FE000001FC
7C000000F8
1000000020
7C000000F8
FE000001FC
FE000001FC
FF000001FC
FE000001FC
FE000001FC
7C000000F8
0030303060
007CFCFCF8
00FEFFFDFC
00FFFFFFFC
00FFFFFFFC
00FFFFFDFC
00FCFCFDFC
0078787870
0000000070
00000001F8
00000001FC
00000001FC
00000001FC
00000001FC
00000000F8
0000000070
007C78F800
00FEFDFC00
00FFFFFC00
00FFFFFE00
00FFFFFC00
00FEFDFC00
007C7CF800
ENDCHAR
STARTCHAR h
ENCODING 104
SWIDTH 461 0
DWIDTH 46 0
BBX 38 54 4 0
BITMAP
3800000000
7E00000000
FE00000000
FE00000000
FF00000000
FE00000000
7E00000000
3800000000
7C00000000
FE00000000
FE00000000
FF00000000
FE00000000
FE00000000
7C00000000
0000000000
7C7C7CF800
FEFEFDFC00
FEFFFFFC00
FFFFFFFE00
FEFFFFFC00
FEFEFCFC00
7C7C78F800
3800000070
7E000000F8
FE000001FC
FE000001FC
FF000001FC
FE000001FC
7E000001F8
3800000070
3C000000F0
7E000001FC
FE000001FC
FF000001FC
FE000001FC
FE000001FC
7C000000F8
1000000020
7C000000F8
FE000001FC
FE000001FC
FF000001FC
FE000001FC
FE000001FC
7C000000F8
1800000060
7C000000F8
FE000001FC
FE000001FC
FF000001FC
FE000001FC
7E000001FC
3C00000070
ENDCHAR
STARTCHAR i
ENCODING 105
SWIDTH 307 0
DWIDTH 31 0
BBX 23 54 4 0
BITMAP
003800
00FC00
00FE00
00FE00
00FE00
00FE00
00FC00
003800
000000
000000
000000
000000
000000
000000
000000
000000
7C7C00
FEFE00
FEFE00
FFFE00
FEFE00
FEFE00
7C7C00
003800
00FC00
00FE00
00FE00
00FE00
00FE00
00FC00
003800
007800
00FC00
00FE00
00FE00
00FE00
00FE00
007C00
001000
007C00
00FE00
00FE00
00FE00
00FE00
00FE00
007C00
183030
7C7CFC
FEFEFE
FEFFFE
FFFFFE
FEFFFE
7EFCFC
3C7878
ENDCHAR
STARTCHAR j
ENCODING 106
SWIDTH 307 0
DWIDTH 31 0
BBX 23 69 4 -15
BITMAP
000078
0000FC
0001FE
0001FE
0001FE
0001FE
0000FC
000078
000000
000000
000000
000000
000000
000000
000000
000000
007C7C
00FEFC
00FFFE
00FFFE
00FFFE
00FEFC
007C78
000030
0000FC
0000FE
0001FE
0001FE
0001FE
0000FC
000078
000078
0000FC
0001FE
0001FE
0001FE
0000FE
0000FC
000030
00007C
0000FC
0001FE
0001FE
0001FE
0000FC
000078
000030
0000FC
0000FE
0001FE
0001FE
0001FE
0000FC
000078
000078
0000FC
0001FE
0001FE
0001FE
0000FE
0000FC
000030
7C7C00
FEFE00
FEFE00
FFFE00
FEFE00
FEFE00
7C7C00
ENDCHAR
STARTCHAR k
ENCODING 107
SWIDTH 461 0
DWIDTH 46 0
BBX 38 54 4 0
BITMAP
3800000000
7E00000000
FE00000000
FE00000000
FF00000000
FE00000000
7E00000000
3800000000
7C00000000
FE00000000
FE00000000
FF00000000
FE00000000
FE00000000
7C00000000
0000000000
7C0000F800
FE0001FC00
FE0001FC00
FF0001FE00
FE0001FC00
FE0000FC00
7C0000F800
3800300000
7E00FC0000
FE00FE0000
FE01FE0000
FF01FE0000
FE01FE0000
7E00FC0000
3800780000
3C78780000
7EFCFC0000
FEFFFE0000
FFFFFE0000
FEFFFE0000
FEFEFE0000
7C7CFC0000
1010300000
7C0000F800
FE0001FC00
FE0001FC00
FF0001FE00
FE0001FC00
FE0001FC00
7C0000F800
1800000060
7C000000F8
FE000001FC
FE000001FC
FF000001FC
FE000001FC
7E000001FC
3C00000070
ENDCHAR
STARTCHAR l
ENCODING 108
SWIDTH 307 0
DWIDTH 31 0
BBX 23 54 4 0
BITMAP
383800
7EFC00
FEFE00
FEFE00
FFFE00
FEFE00
7EFC00
383800
007C00
00FE00
00FE00
00FE00
00FE00
00FE00
007C00
001000
007C00
00FE00
00FE00
00FE00
00FE00
00FE00
007C00
003800
00FC00
00FE00
00FE00
00FE00
00FE00
00FC00
003800
007800
00FC00
00FE00
00FE00
00FE00
00FE00
007C00
001000
007C00
00FE00
00FE00
00FE00
00FE00
00FE00
007C00
183030
7C7CFC
FEFEFE
FEFFFE
FFFFFE
FEFFFE
7EFCFC
3C7878
ENDCHAR
STARTCHAR m
ENCODING 109
SWIDTH 461 0
DWIDTH 46 0
BBX 38 38 4 0
BITMAP
7C7C00F800
FEFE01FC00
FEFE01FC00
FFFE01FE00
FEFE01FC00
FEFE00FC00
7C7C00F800
3800300070
7E00FC00F8
FE00FE01FC
FE01FE01FC
FF01FE01FC
FE01FE01FC
7E00FC01F8
3800780070
3C007800F0
7E00FC01FC
FE01FE01FC
FF01FE01FC
FE01FE01FC
FE00FE01FC
7C00FC00F8
1000300020
7C007C00F8
FE00FC01FC
FE01FE01FC
FF01FE01FC
FE01FE01FC
FE00FC01FC
7C007800F8
1800300060
7C00FC00F8
FE00FE01FC
FE01FE01FC
FF01FE01FC
FE01FE01FC
7E00FC01FC
3C00780070
ENDCHAR
STARTCHAR n
ENCODING 110
SWIDTH 461 0
DWIDTH 46 0
BBX 38 38 4 0
BITMAP
7C007CF800
FE00FDFC00
FE01FFFC00
FF01FFFE00
FE01FFFC00
FE00FCFC00
7C0078F800
3838000070
7EFC0000F8
FEFE0001FC
FEFE0001FC
FFFE0001FC
FEFE0001FC
7EFC0001F8
3838000070
3C000000F0
7E000001FC
FE000001FC
FF000001FC
FE000001FC
FE000001FC
7C000000F8
1000000020
7C000000F8
FE000001FC
FE000001FC
FF000001FC
FE000001FC
FE000001FC
7C000000F8
1800000060
7C000000F8
FE000001FC
FE000001FC
FF000001FC
FE000001FC
7E000001FC
3C00000070
ENDCHAR
STARTCHAR o
ENCODING 111
SWIDTH 461 0
DWIDTH 46 0
BBX 38 38 4 0
BITMAP
007C7CF800
00FEFDFC00
00FFFFFC00
00FFFFFE00
00FFFFFC00
00FEFCFC00
007C78F800
3800000070
7E000000F8
FE000001FC
FE000001FC
FF000001FC
FE000001FC
7E000001F8
3800000070
3C000000F0
7E000001FC
FE000001FC
FF000001FC
FE000001FC
FE000001FC
7C000000F8
1000000020
7C000000F8
FE000001FC
FE000001FC
FF000001FC
FE000001FC
FE000001FC
7C000000F8
0030303000
007CFCFC00
00FEFFFC00
00FFFFFE00
00FFFFFE00
00FFFFFC00
00FCFCFC00
0078787800
ENDCHAR
STARTCHAR p
ENCODING 112
SWIDTH 461 0
DWIDTH 46 0
BBX 38 53 4 -15
BITMAP
7C7C7CF800
FEFEFDFC00
FEFFFFFC00
FFFFFFFE00
FEFFFFFC00
FEFEFCFC00
7C7C78F800
3800000070
7E000000F8
FE000001FC
FE000001FC
FF000001FC
FE000001FC
7E000001F8
3800000070
3C000000F0
7E000001FC
FE000001FC
FF000001FC
FE000001FC
FE000001FC
7C000000F8
1000000020
7C000000F8
FE000001FC
FE000001FC
FF000001FC
FE000001FC
FE000001FC
7C000000F8
1830303000
7C7CFCFC00
FEFEFFFC00
FEFFFFFE00
FFFFFFFE00
FEFFFFFC00
7EFCFCFC00
3C78787800
3C00000000
7E00000000
FE00000000
FF00000000
FE00000000
FE00000000
7E00000000
1800000000
7C00000000
FE00000000
FE00000000
FF00000000
FE00000000
FE00000000
7C00000000
ENDCHAR
STARTCHAR q
ENCODING 113
SWIDTH 461 0
DWIDTH 46 0
BBX 38 53 4 -15
BITMAP
007C7CF8F8
00FEFDFDFC
00FFFFFFFC
00FFFFFFFC
00FFFFFDFC
00FEFDFDFC
007C78F8F8
3800000070
7E000000F8
FE000001FC
FE000001FC
FE000001FC
FE000001FC
7E000001F8
3800000070
3C000000F0
7E000001FC
FE000001FC
FF000001FC
FE000001FC
FE000001FC
7C000000F8
1000000020
7C000000F8
FE000001FC
FE000001FC
FF000001FC
FE000001FC
FE000001FC
7C000000F8
0030303060
007CFCFCF8
00FEFFFDFC
00FFFFFFFC
00FFFFFFFC
00FFFFFDFC
00FCFCFDFC
0078787870
0000000070
00000001FC
00000001FC
00000001FC
00000001FC
00000001FC
00000000F8
0000000070
00000000F8
00000001FC
00000001FC
00000001FC
00000001FC
00000001FC
00000000F8
ENDCHAR
STARTCHAR r
ENCODING 114
SWIDTH 461 0
DWIDTH 46 0
BBX 38 38 4 0
BITMAP
7C007CF800
FE00FDFC00
FE01FFFC00
FF01FFFE00
FE01FFFC00
FE00FCFC00
7C0078F800
3838000070
7EFC0000F8
FEFE0001FC
FEFE0001FC
FFFE0001FC
FEFE0001FC
7EFC0001F8
3838000070
3C00000000
7E00000000
FE00000000
FF00000000
FE00000000
FE00000000
7C00000000
1000000000
7C00000000
FE00000000
FE00000000
FF00000000
FE00000000
FE00000000
7C00000000
1800000000
7C00000000
FE00000000
FE00000000
FF00000000
FE00000000
7E00000000
3C00000000
ENDCHAR
STARTCHAR s
ENCODING 115
SWIDTH 461 0
DWIDTH 46 0
BBX 38 38 4 0
BITMAP
007C7CF8F8
00FEFDFDFC
00FFFFFDFC
00FFFFFFFC
00FFFFFDFC
00FEFCFDFC
007C78F8F8
3800000000
7E00000000
FE00000000
FE00000000
FF00000000
FE00000000
7E00000000
3800000000
0078787800
00FCFCFC00
00FFFFFC00
00FFFFFE00
00FFFFFE00
00FEFFFC00
007CFCFC00
0010302000
00000000F8
00000001FC
00000001FC
00000001FC
00000001FC
00000001FC
00000000F8
1830303000
7C7CFCFC00
FEFEFFFC00
FEFFFFFE00
FFFFFFFE00
FEFFFFFC00
7EFCFCFC00
3C78787800
ENDCHAR
STARTCHAR t
ENCODING 116
SWIDTH 384 0
DWIDTH 38 0
BBX 31 54 4 0
BITMAP
00380000
00FC0000
00FE0000
00FE0000
00FE0000
00FE0000
00FC0000
00380000
007C0000
00FE0000
00FE0000
00FE0000
00FE0000
00FE0000
007C0000
00100000
7C7C7C00
FEFEFC00
FEFFFE00
FFFFFE00
FEFFFE00
FEFEFC00
7C7C7800
00380000
00FC0000
00FE0000
00FE0000
00FE0000
00FE0000
00FC0000
00380000
00780000
00FC0000
00FE0000
00FE0000
00FE0000
00FE0000
007C0000
00100000
007C0000
00FE0000
00FE0000
00FE0000
00FE0000
00FE0000
007C0000
00003030
0000FCFC
0000FFFC
0001FFFE
0001FFFE
0001FFFC
0000FCFC
00007878
ENDCHAR
STARTCHAR u
ENCODING 117
SWIDTH 461 0
DWIDTH 46 0
BBX 38 38 4 0
BITMAP
7C000000F8
FE000001FC
FE000001FC
FF000001FC
FE000001FC
FE000001FC
7C000000F8
3800000070
7E000000F8
FE000001FC
FE000001FC
FF000001FC
FE000001FC
7E000001F8
3800000070
3C000000F0
7E000001FC
FE000001FC
FF000001FC
FE000001FC
FE000001FC
7C000000F8
1000000020
7C0000F8F8
FE0001FDFC
FE0001FDFC
FF0001FFFC
FE0001FDFC
FE0001FDFC
7C0000F8F8
0030300060
007CFC00F8
00FEFE01FC
00FFFE01FC
00FFFE01FC
00FFFE01FC
00FCFC01FC
0078780070
ENDCHAR
STARTCHAR v
ENCODING 118
SWIDTH 461 0
DWIDTH 46 0
BBX 38 38 4 0
BITMAP
7C000000F8
FE000001FC
FE000001FC
FF000001FC
FE000001FC
FE000001FC
7C000000F8
3800000070
7E000000F8
FE000001FC
FE000001FC
FF000001FC
FE000001FC
7E000001F8
3800000070
3C000000F0
7E000001FC
FE000001FC
FF000001FC
FE000001FC
FE000001FC
7C000000F8
1000000020
007C00F800
00FE01FC00
00FE01FC00
00FE01FE00
00FE01FC00
00FE01FC00
007C00F800
0000300000
0000FC0000
0000FE0000
0001FE0000
0001FE0000
0001FE0000
0000FC0000
0000780000
ENDCHAR
STARTCHAR w
ENCODING 119
SWIDTH 461 0
DWIDTH 46 0
BBX 38 38 4 0
BITMAP
7C007C00F8
FE00FC01FC
FE01FE01FC
FF01FE01FC
FE01FE01FC
FE00FC01FC
7C007800F8
3800300070
7E00FC00F8
FE00FE01FC
FE01FE01FC
FF01FE01FC
FE01FE01FC
7E00FC01F8
3800780070
3C007800F0
7E00FC01FC
FE01FE01FC
FF01FE01FC
FE01FE01FC
FE00FE01FC
7C00FC00F8
1000300020
7C007C00F8
FE00FC01FC
FE01FE01FC
FF01FE01FC
FE01FE01FC
FE00FC01FC
7C007800F8
0030003000
007C00FC00
00FE01FC00
00FE01FE00
00FE01FE00
00FE01FC00
00FC00FC00
0078007800
ENDCHAR
STARTCHAR x
ENCODING 120
SWIDTH 461 0
DWIDTH 46 0
BBX 38 38 4 0
BITMAP
7C000000F8
FE000001FC
FE000001FC
FF000001FC
FE000001FC
FE000001FC
7C000000F8
0038007000
00FC00FC00
00FE01FC00
00FE01FE00
00FE01FE00
00FE01FC00
00FC00FC00
0038007800
0000780000
0000FC0000
0001FE0000
0001FE0000
0001FE0000
0000FE0000
0000FC0000
0000300000
007C00F800
00FE01FC00
00FE01FC00
00FE01FE00
00FE01FC00
00FE01FC00
007C00F800
1800000060
7C000000F8
FE000001FC
FE000001FC
FF000001FC
FE000001FC
7E000001FC
3C00000070
ENDCHAR
STARTCHAR y
ENCODING 121
SWIDTH 461 0
DWIDTH 46 0
BBX 38 53 4 -15
BITMAP
7C000000F8
FE000001FC
FE000001FC
FF000001FC
FE000001FC
FE000001FC
7C000000F8
3800000070
7E000000F8
FE000001FC
FE000001FC
FF000001FC
FE000001FC
7E000001F8
3800000070
3C000000F0
7E000001FC
FE000001FC
FF000001FC
FE000001FC
FE000001FC
7C000000F8
1000000020
7C000000F8
FE000001FC
FE000001FC
FF000001FC
FE000001FC
FE000001FC
7C000000F8
0030303060
007CFCFCF8
00FEFFFDFC
00FFFFFFFC
00FFFFFFFC
00FFFFFDFC
00FCFCFDFC
0078787870
0000000070
00000001F8
00000001FC
00000001FC
00000001FC
00000001FC
00000000F8
0000000070
007C78F800
00FEFDFC00
00FFFFFC00
00FFFFFE00
00FFFFFC00
00FEFDFC00
007C7CF800
ENDCHAR
STARTCHAR z
ENCODING 122
SWIDTH 461 0
DWIDTH 46 0
BBX 38 38 4 0
BITMAP
7C7C7CF8F8
FEFEFDFDFC
FEFFFFFDFC
FFFFFFFFFC
FEFFFFFDFC
FEFEFCFDFC
7C7C78F8F8
0000007000
000000FC00
000001FC00
000001FE00
000001FE00
000001FC00
000000FC00
0000007800
0000780000
0000FC0000
0001FE0000
0001FE0000
0001FE0000
0000FE0000
0000FC0000
0000300000
007C000000
00FE000000
00FE000000
00FE000000
00FE000000
00FE000000
007C000000
1830303060
7C7CFCFCF8
FEFEFFFDFC
FEFFFFFFFC
FFFFFFFFFC
FEFFFFFDFC
7EFCFCFDFC
3C78787870
ENDCHAR
STARTCHAR braceleft
ENCODING 123
SWIDTH 461 0
DWIDTH 46 0
BBX 23 69 12 -8
BITMAP
0000F8
0001FC
0001FE
0001FE
0001FC
0000FC
000078
007800
00FC00
01FE00
01FE00
01FE00
01FE00
00FC00
007800
007800
00FC00
01FE00
01FE00
01FE00
00FC00
00FC00
000000
007C00
00FC00
01FE00
01FE00
01FE00
00FC00
007800
380000
7C0000
FE0000
FE0000
FE0000
FE0000
FC0000
380000
007800
00FC00
01FE00
01FE00
01FE00
00FE00
00FC00
003000
007C00
00FC00
01FE00
01FE00
01FE00
00FC00
007800
003000
00FC00
00FE00
01FE00
01FE00
01FE00
00FC00
007800
000078
0000FC
0001FC
0001FE
0001FE
0001FC
0000FC
000030
ENDCHAR
STARTCHAR bar
ENCODING 124
SWIDTH 461 0
DWIDTH 46 0
BBX 8 62 19 -8
BITMAP
3C
7E
FF
FF
FF
FF
7E
3C
3C
7E
FF
FF
FF
FF
7E
00
3C
7E
FF
FF
FF
7E
3C
3C
7E
FF
FF
FF
FF
7E
3C
3C
7E
FF
FF
FF
FF
7E
18
3C
7E
FF
FF
FF
7E
7E
00
3C
7E
FF
FF
FF
FF
7E
3C
7E
FF
FF
FF
FF
7E
3C
ENDCHAR
STARTCHAR braceright
ENCODING 125
SWIDTH 461 0
DWIDTH 46 0
BBX 23 70 12 -8
BITMAP
100000
7C0000
FE0000
FE0000
FE0000
FE0000
FE0000
7C0000
007800
00FC00
00FE00
01FE00
01FE00
01FE00
00FC00
007800
007800
00FC00
01FE00
01FE00
01FE00
00FC00
00FC00
000000
007C00
00FC00
01FE00
01FE00
01FE00
00FC00
007800
000070
0000FC
0001FC
0001FE
0001FE
0001FC
0000FC
000078
007800
00FC00
01FE00
01FE00
01FE00
00FE00
00FC00
003000
007C00
00FC00
01FE00
01FE00
01FE00
00FC00
007800
003000
00FC00
00FE00
01FE00
01FE00
01FE00
00FC00
007800
780000
FC0000
FE0000
FE0000
FE0000
FE0000
7C0000
300000
ENDCHAR
STARTCHAR asciitilde
ENCODING 126
SWIDTH 461 0
DWIDTH 46 0
BBX 38 16 4 38
BITMAP
0038780070
00FCFC00F8
00FEFE01FC
00FFFE01FC
00FFFE01FC
00FEFE01FC
007CFC00F8
0038380070
3C00787000
7E00FCF800
FF00FFFC00
FF01FFFC00
FF01FFFC00
FF00FFFC00
7E00FCF800
3C00787000
ENDCHAR
STARTCHAR nonbreakingspace
ENCODING 160
SWIDTH 461 0
DWIDTH 46 0
BBX 1 1 0 0
BITMAP
00
ENDCHAR
STARTCHAR exclamdown
ENCODING 161
SWIDTH 307 0
DWIDTH 31 0
BBX 8 55 11 -1
BITMAP
3C
7E
FF
FF
FF
FF
7E
3C
00
00
00
00
00
00
00
00
3C
7E
FF
FF
FE
3C
00
3C
7E
FF
FF
FF
7E
3C
00
3C
7E
FF
FF
FF
7E
3C
00
7E
FE
FF
FF
FF
7E
3C
18
7E
FE
FF
FF
FF
FF
7E
3C
ENDCHAR
STARTCHAR cent
ENCODING 162
SWIDTH 461 0
DWIDTH 46 0
BBX 38 54 4 -8
BITMAP
0000780000
0000FC0000
0001FE0000
0001FE0000
0001FE0000
0000FC0000
0000FC0000
0000000000
007C7CF800
00FEFDFC00
00FFFFFC00
00FFFFFE00
00FFFFFC00
00FEFCFC00
007C78F800
3800300070
7E00FC00F8
FE00FE01FC
FE01FE01FC
FF01FE01FC
FE01FE01FC
7E00FC01F8
3800780070
3C00780000
7E00FC0000
FE01FE0000
FF01FE0000
FE01FE0000
FE00FE0000
7C00FC0000
1000300000
7C007C00F8
FE00FC01FC
FE01FE01FC
FF01FE01FC
FE01FE01FC
FE00FC01FC
7C007800F8
0030303000
007CFCFC00
00FEFFFC00
00FFFFFE00
00FFFFFE00
00FFFFFC00
00FCFCFC00
0078787800
0000780000
0000FC0000
0001FE0000
0001FE0000
0001FE0000
0000FE0000
0000FC0000
0000300000
ENDCHAR
STARTCHAR sterling
ENCODING 163
SWIDTH 461 0
DWIDTH 46 0
BBX 38 62 4 0
BITMAP
0010000000
007CFC0000
00FEFC0000
00FFFE0000
00FFFE0000
00FFFE0000
00FEFC0000
007C780000
3800007000
7E0000FC00
FE0001FC00
FE0001FE00
FF0001FE00
FE0001FC00
7E0000FC00
3800007000
7C00000000
FE00000000
FE00000000
FF00000000
FE00000000
FE00000000
7C00000000
0000000000
7C7C7C0000
FEFEFC0000
FEFFFE0000
FFFFFE0000
FEFFFE0000
FEFEFC0000
7C7C780000
3800000000
7E00000000
FE00000000
FE00000000
FF00000000
FE00000000
7E00000000
3800000000
3C000000F0
7E000001FC
FE000001FC
FF000001FC
FE000001FC
FE000001FC
7C000000F8
1000000020
7C0000F800
FE0001FC00
FE0001FC00
FF0001FE00
FE0001FC00
FE0001FC00
7C0000F800
1830300000
7C7CFC0000
FEFEFE0000
FEFFFE0000
FFFFFE0000
FEFFFE0000
7EFCFC0000
3C78780000
ENDCHAR
STARTCHAR currency
ENCODING 164
SWIDTH 461 0
DWIDTH 46 0
BBX 31 31 11 23
BITMAP
00387800
007CFC00
00FEFE00
00FFFE00
00FEFE00
007CFC00
00387800
00000000
3C000078
7E0000FC
FF0001FE
FF0001FE
FF0001FE
7E0000FC
3C000078
00000000
3C000078
7E0000FC
FF0001FE
FF0001FE
FF0001FE
7E0000FC
3C000078
00383800
007CFC00
00FEFE00
00FFFE00
00FFFE00
00FEFE00
007CFC00
00387800
ENDCHAR
STARTCHAR yen
ENCODING 165
SWIDTH 461 0
DWIDTH 46 0
BBX 38 54 4 0
BITMAP
3800000070
7E000000F8
FE000001FC
FE000001FC
FF000001FC
FE000001FC
7E000001F8
3800000070
007C007800
00FE00FC00
00FE01FC00
00FE01FE00
00FE01FE00
00FE01FC00
007C00F800
0010000000
7C7C7CF8F8
FEFEFDFDFC
FEFFFFFDFC
FFFFFFFFFC
FEFFFFFDFC
FEFEFCFDFC
7C7C78F8F8
0000300000
0000FC0000
0000FE0000
0001FE0000
0001FE0000
0001FE0000
0000FC0000
0000780000
3C787878F0
7EFCFCFDFC
FEFFFFFDFC
FFFFFFFFFC
FEFFFFFFFC
FEFEFFFDFC
7C7CFCFCF8
1010302020
00007C0000
0000FC0000
0001FE0000
0001FE0000
0001FE0000
0000FC0000
0000780000
0000300000
0000FC0000
0000FE0000
0001FE0000
0001FE0000
0001FE0000
0000FC0000
0000780000
ENDCHAR
STARTCHAR brokenbar
ENCODING 166
SWIDTH 461 0
DWIDTH 46 0
BBX 8 55 19 -1
BITMAP
3C
7E
FF
FF
FF
FF
7E
3C
3C
7E
FF
FF
FF
FF
7E
00
3C
7E
FF
FF
FF
FF
7E
3C
00
00
00
00
00
00
00
3C
7E
FF
FF
FF
FF
7E
18
3C
7E
FF
FF
FF
7E
7E
00
3C
7E
FF
FF
FF
FF
7E
3C
ENDCHAR
STARTCHAR section
ENCODING 167
SWIDTH 461 0
DWIDTH 46 0
BBX 38 77 4 -8
BITMAP
007C78F800
00FEFCFC00
00FFFFFC00
00FFFFFE00
00FFFFFE00
00FEFDFC00
007CFCF800
0000000020
7C000000F8
FE000001FC
FE000001FC
FF000001FC
FE000001FC
FE000001FC
7C000000F8
0038000070
00FC0000F8
00FE0001FC
00FE0001FC
00FE0001FC
00FE0001FC
00FC0001F8
0038000070
7C00780000
FE00FC0000
FE01FE0000
FF01FE0000
FE01FE0000
FE00FC0000
7C00FC0000
0000000000
7C0000F800
FE0001FC00
FE0001FC00
FF0001FE00
FE0001FC00
FE0000FC00
7C0000F800
0038000070
00FC0000F8
00FE0001FC
00FE0001FC
00FE0001FC
00FE0001FC
00FC0001F8
0038000070
00007800F0
0000FC01FC
0001FE01FC
0001FE01FC
0001FE01FC
0000FE01FC
0000FC00F8
0000300020
7C0000F800
FE0001FC00
FE0001FC00
FF0001FE00
FE0001FC00
FE0001FC00
7C0000F800
1800000060
7C000000F8
FE000001FC
FE000001FC
FF000001FC
FE000001FC
7E000001FC
3C00000070
0078787800
00FCFCFC00
00FFFFFC00
00FFFFFE00
00FFFFFE00
00FEFFFC00
007CFCFC00
0030303000
ENDCHAR
STARTCHAR dieresis
ENCODING 168
SWIDTH 461 0
DWIDTH 46 0
BBX 23 8 11 54
BITMAP
3C0078
7E00FC
FF01FE
FF01FE
FF01FE
FF01FE
7E00FC
3C0078
ENDCHAR
STARTCHAR copyright
ENCODING 169
SWIDTH 615 0
DWIDTH 62 0
BBX 54 61 4 8
BITMAP
000078F8F80000
0000FCFDFC0000
0001FFFDFC0000
0001FFFFFC0000
0001FFFFFC0000
0000FDFDFC0000
0000FCF8F80000
00100000000000
007C000000F800
00FE000001FC00
00FE000003FC00
00FE000003FC00
00FE000003FC00
00FE000001F800
007C000000F000
380000707000E0
7E0000FCF801F8
FE0001FDFC03F8
FE0001FFFC03FC
FF0001FFFC03FC
FE0001FDFC03F8
7E0000FDF801F8
380000707000E0
7C0078000000F0
FE00FC000001F8
FE01FE000003F8
FF01FE000003FC
FE01FE000003FC
FE00FC000003F8
7C00FC000001F8
00000000000000
7C007C000001F0
FE00FC000003F8
FE01FE000003FC
FF01FE000003FC
FE01FE000003FC
FE00FC000001F8
7C0078000000F0
380000707000E0
7E0000FCF801F8
FE0001FDFC03F8
FE0001FFFC03FC
FF0001FFFC03FC
FE0001FDFC03F8
7E0000FDF801F8
380000787000F0
0078000000F000
00FC000001F800
00FE000003FC00
00FE000003FC00
00FE000003FC00
00FE000001FC00
007C000001F800
00100000002000
00007CF8F80000
0000FDFDFC0000
0001FFFDFC0000
0001FFFFFC0000
0001FFFDFC0000
0000FDFDFC0000
000078F8F80000
ENDCHAR
STARTCHAR ordfeminine
ENCODING 170
SWIDTH 461 0
DWIDTH 46 0
BBX 31 46 4 8
BITMAP
00387870
00FCFCFC
00FFFFFC
00FFFFFE
00FFFFFE
00FFFFFC
00FCFCFC
00387870
7C000078
FE0000FC
FE0001FC
FF0001FE
FE0001FE
FE0001FC
7C0000F8
00000000
7C0000F8
FE0001FC
FE0001FC
FF0001FE
FE0001FC
FE0000FC
7C0000F8
00383070
00FCFCFC
00FEFFFC
00FFFFFE
00FFFFFE
00FFFFFC
00FCFCFC
00387878
00000000
00000000
00000000
00000000
00000000
00000000
00000000
00000000
7C7C7CF8
FEFEFDFC
FEFFFFFC
FFFFFFFE
FEFFFFFC
FEFEFDFC
7C7C78F8
ENDCHAR
STARTCHAR guillemotleft
ENCODING 171
SWIDTH 461 0
DWIDTH 46 0
BBX 38 32 4 -1
BITMAP
003C000070
007E0000F8
00FF0001FC
00FF0001FC
00FF0001FC
00FF0001FC
007E0000F8
003C000070
3C0000F000
7E0001F800
FE0003FC00
FF0003FC00
FF0003FC00
FE0003FC00
7E0001F800
1000006000
3C0000F000
7E0001F800
FE0003FC00
FF0003FC00
FF0003FC00
FE0001F800
7C0001F800
0000000000
003C000070
007E0000F8
00FF0001FC
00FF0001FC
00FF0001FC
00FF0001FC
007E0000F8
003C000070
ENDCHAR
STARTCHAR logicalnot
ENCODING 172
SWIDTH 461 0
DWIDTH 46 0
BBX 38 23 4 8
BITMAP
3C787870F0
7EFCFCF9F8
FFFEFFFDFC
FFFFFFFDFC
FFFEFFFDFC
7EFCFCF9F8
3C787870F0
0000000000
00000000F0
00000001F8
00000001FC
00000001FC
00000001FC
00000001F8
00000000F0
0000000000
00000000F8
00000001FC
00000001FC
00000001FC
00000001FC
00000001F8
0000000070
ENDCHAR
STARTCHAR minus
ENCODING 173
SWIDTH 461 0
DWIDTH 46 0
BBX 24 7 11 31
BITMAP
3C3C3C
7E7E7E
FF7F7F
FF7FFF
FF7F7F
7E7E7E
3C3C3C
ENDCHAR
STARTCHAR registered
ENCODING 174
SWIDTH 615 0
DWIDTH 62 0
BBX 54 61 4 8
BITMAP
000078F8F80000
0000FCFDFC0000
0001FFFDFC0000
0001FFFFFC0000
0001FFFFFC0000
0000FDFDFC0000
0000FCF8F80000
00100000000000
007C000000F800
00FE000001FC00
00FE000003FC00
00FE000003FC00
00FE000003FC00
00FE000001F800
007C000000F000
380078707000E0
7E00FCFCF801F8
FE01FFFDFC03F8
FE01FFFFFC03FC
FF01FFFFFC03FC
FE01FFFDFC03F8
7E00FCFDF801F8
380078707000E0
7C007800F800F0
FE00FC01FC01F8
FE01FE01FC03F8
FF01FE01FC03FC
FE01FE01FC03FC
FE00FC01FC03F8
7C00FC00F801F8
00000000200000
7C007CF80001F0
FE00FDFC0003F8
FE01FFFC0003FC
FF01FFFE0003FC
FE01FFFC0003FC
FE00FCFC0001F8
7C0078F80000F0
380030007000E0
7E00FC00F801F8
FE00FE01FC03F8
FE01FE01FC03FC
FF01FE01FC03FC
FE01FE01FC03F8
7E00FC01F801F8
380078007000F0
0078000000F000
00FC000001F800
00FE000003FC00
00FE000003FC00
00FE000003FC00
00FE000001FC00
007C000001F800
00100000002000
00007CF8F80000
0000FDFDFC0000
0001FFFDFC0000
0001FFFFFC0000
0001FFFDFC0000
0000FDFDFC0000
000078F8F80000
ENDCHAR
STARTCHAR macron
ENCODING 175
SWIDTH 461 0
DWIDTH 46 0
BBX 24 8 11 46
BITMAP
3C1C3C
7E7E7E
FF7F7F
FF7FFF
FF7FFF
FF7F7F
7E7E7E
3C1C3C
ENDCHAR
STARTCHAR degree
ENCODING 176
SWIDTH 461 0
DWIDTH 46 0
BBX 31 31 11 38
BITMAP
00387800
007CFC00
00FEFE00
00FFFE00
00FEFE00
007CFC00
00387800
00000000
7C0000FC
FE0001FE
FF0001FE
FF0001FE
FF0001FE
7E0000FC
3C000078
3C000078
7E0000FC
FE0001FE
FF0001FE
FF0001FE
FE0001FE
7E0000FC
3C000078
00387800
007CFC00
00FEFE00
00FFFE00
00FFFE00
00FEFE00
007CFC00
00387800
ENDCHAR
STARTCHAR plusminus
ENCODING 177
SWIDTH 461 0
DWIDTH 46 0
BBX 38 46 4 0
BITMAP
0000780000
0000FC0000
0001FE0000
0001FE0000
0001FE0000
0000FC0000
0000FC0000
0000000000
00007C0000
0000FC0000
0001FE0000
0001FE0000
0001FE0000
0000FC0000
0000780000
3838307070
7EFCFCFCF8
FEFEFFFDFC
FEFFFFFFFC
FFFFFFFFFC
FEFFFFFDFC
7EFCFCFDF8
3838787870
0000780000
0000FC0000
0001FE0000
0001FE0000
0001FE0000
0000FE0000
0000FC0000
0000300000
00007C0000
0000FC0000
0001FE0000
0001FE0000
0001FE0000
0000FC0000
0000780000
1830303060
7C7CFCFCF8
FEFEFFFDFC
FEFFFFFFFC
FFFFFFFFFC
FEFFFFFDFC
7EFCFCFDFC
3C78787870
ENDCHAR
STARTCHAR acute
ENCODING 180
SWIDTH 461 0
DWIDTH 46 0
BBX 16 16 19 46
BITMAP
003C
007E
00FF
00FF
00FF
00FF
007E
003C
3C00
7E00
FE00
FF00
FF00
FE00
7E00
3C00
ENDCHAR
STARTCHAR mu
ENCODING 181
SWIDTH 461 0
DWIDTH 46 0
BBX 38 53 4 -15
BITMAP
7C0000F800
FE0001FC00
FE0001FC00
FF0001FE00
FE0001FC00
FE0000FC00
7C0000F800
3800007000
7E0000FC00
FE0001FC00
FE0001FE00
FF0001FE00
FE0001FC00
7E0000FC00
3800007800
3C00007800
7E0000FC00
FE0001FC00
FF0001FE00
FE0001FE00
FE0001FC00
7C0000FC00
1000002000
7C0000F800
FE0001FC00
FE0001FC00
FF0001FE00
FE0001FC00
FE0001FC00
7C0000F800
1830303000
7C7CFCFC00
FEFEFFFC00
FEFFFFFE00
FFFFFFFE00
FEFFFFFC00
7EFCFCFC00
3C78787800
3C00000070
7E000001F8
FE000001FC
FF000001FC
FE000001FC
FE000001FC
7E000000F8
1800000070
7C00000000
FE00000000
FE00000000
FF00000000
FE00000000
FE00000000
7C00000000
ENDCHAR
STARTCHAR paragraph
ENCODING 182
SWIDTH 461 0
DWIDTH 46 0
BBX 38 54 4 0
BITMAP
0038787070
00FCFCFCF8
00FEFFFDFC
00FFFFFFFC
00FFFFFFFC
00FFFFFDFC
00FCFCFDF8
0038787070
3C007800F8
7E00FC01FC
FE01FE01FC
FF01FE01FC
FE01FE01FC
FE00FC01FC
7C00FC00F8
1000000020
7C007C00F8
FE00FC01FC
FE01FE01FC
FF01FE01FC
FE01FE01FC
FE00FC01FC
7C007800F8
0038307070
007CFCFCF8
00FEFFFDFC
00FFFFFFFC
00FFFFFFFC
00FFFFFDFC
00FCFCFDF8
0038787870
00007800F0
0000FC01FC
0001FE01FC
0001FE01FC
0001FE01FC
0000FE01FC
0000FC00F8
0000300020
00007C00F8
0000FC01FC
0001FE01FC
0001FE01FC
0001FE01FC
0000FC01FC
00007800F8
0000300060
0000FC00F8
0000FE01FC
0001FE01FC
0001FE01FC
0001FE01FC
0000FC01FC
0000780070
ENDCHAR
STARTCHAR periodcentered
ENCODING 183
SWIDTH 230 0
DWIDTH 23 0
BBX 16 15 3 23
BITMAP
3C3C
7E7E
FF7F
FF7F
FF7F
7E7E
3C3C
181C
7E3E
FF7F
FF7F
FF7F
FF7F
7E7E
3C1C
ENDCHAR
STARTCHAR cedilla
ENCODING 184
SWIDTH 461 0
DWIDTH 46 0
BBX 23 23 11 -15
BITMAP
003800
007C00
00FE00
00FE00
00FE00
00FE00
00FE00
007C00
003878
0000FC
0000FE
0001FE
0000FE
0000FC
000078
000000
7C7C00
FEFE00
FFFE00
FFFE00
FFFE00
7E7C00
3C3800
ENDCHAR
STARTCHAR ordmasculine
ENCODING 186
SWIDTH 461 0
DWIDTH 46 0
BBX 31 46 4 8
BITMAP
00387800
00FCFC00
00FFFE00
00FFFE00
00FFFE00
00FFFE00
00FCFC00
00387800
7C000078
FE0000FC
FE0001FC
FF0001FE
FE0001FE
FE0001FC
7C0000F8
00000000
7C0000F8
FE0001FC
FE0001FC
FF0001FE
FE0001FC
FE0000FC
7C0000F8
00383000
00FCFC00
00FEFE00
00FFFE00
00FFFE00
00FFFE00
00FCFC00
00387800
00000000
00000000
00000000
00000000
00000000
00000000
00000000
00000000
7C7C7CF8
FEFEFDFC
FEFFFFFC
FFFFFFFE
FEFFFFFC
FEFEFDFC
7C7C78F8
ENDCHAR
STARTCHAR guillemotright
ENCODING 187
SWIDTH 461 0
DWIDTH 46 0
BBX 38 31 4 0
BITMAP
3C00007800
7E0000FC00
FE0001FE00
FF0001FE00
FF0001FE00
FE0001FE00
7E0000FC00
3C00007800
003C000078
007E0000FC
00FF0001FC
00FF0001FC
00FF0001FC
00FF0001FC
007E0000F8
0018000020
007E0000F8
007E0001FC
00FF0001FC
00FF0001FC
00FF0001FC
007E0001FC
007C0000F8
3C00007800
7E0000FC00
FE0001FE00
FF0001FE00
FF0001FE00
FE0001FE00
7E0000FC00
3C00007800
ENDCHAR
STARTCHAR questiondown
ENCODING 191
SWIDTH 461 0
DWIDTH 46 0
BBX 38 54 4 0
BITMAP
0000780000
0000FC0000
0001FE0000
0001FE0000
0001FE0000
0001FE0000
0000FC0000
0000780000
0000000000
0000000000
0000000000
0000000000
0000000000
0000000000
0000000000
0000000000
00007C0000
0000FC0000
0001FE0000
0001FE0000
0001FE0000
0000FC0000
0000780000
0038000000
00FC000000
00FE000000
00FE000000
00FE000000
00FE000000
00FC000000
0038000000
3C000000F0
7E000001FC
FE000001FC
FF000001FC
FE000001FC
FE000001FC
7C000000F8
1000000020
7C000000F8
FE000001FC
FE000001FC
FF000001FC
FE000001FC
FE000001FC
7C000000F8
0030303000
007CFCFC00
00FEFFFC00
00FFFFFE00
00FFFFFE00
00FFFFFC00
00FCFCFC00
0078787800
ENDCHAR
STARTCHAR Agrave
ENCODING 192
SWIDTH 461 0
DWIDTH 46 0
BBX 38 69 4 0
BITMAP
007C000000
00FE000000
00FE000000
00FE000000
00FE000000
00FE000000
007C000000
0000000000
0000FC0000
0000FC0000
0001FE0000
0001FE0000
0001FE0000
0000FC0000
0000780000
0000000000
0000000000
0000000000
0000000000
0000000000
0000000000
0000000000
0000000000
007C787800
00FEFCFC00
00FFFFFC00
00FFFFFE00
00FFFFFE00
00FEFDFC00
007CFCF800
0010000000
7C000000F8
FE000001FC
FE000001FC
FF000001FC
FE000001FC
FE000001FC
7C000000F8
3800000070
7E000000F8
FE000001FC
FE000001FC
FF000001FC
FE000001FC
7E000001F8
3800000070
3C787878F0
7EFCFCFDFC
FEFFFFFDFC
FFFFFFFFFC
FEFFFFFFFC
FEFEFFFDFC
7C7CFCFCF8
1010302020
7C000000F8
FE000001FC
FE000001FC
FF000001FC
FE000001FC
FE000001FC
7C000000F8
1800000060
7C000000F8
FE000001FC
FE000001FC
FF000001FC
FE000001FC
7E000001FC
3C00000070
ENDCHAR
STARTCHAR Aacute
ENCODING 193
SWIDTH 461 0
DWIDTH 46 0
BBX 38 69 4 0
BITMAP
000000F800
000000FC00
000001FC00
000001FE00
000001FE00
000001FC00
000000F800
0000000000
0000FC0000
0000FC0000
0001FE0000
0001FE0000
0001FE0000
0000FC0000
0000780000
0000000000
0000000000
0000000000
0000000000
0000000000
0000000000
0000000000
0000000000
007C787800
00FEFCFC00
00FFFFFC00
00FFFFFE00
00FFFFFE00
00FEFDFC00
007CFCF800
0010000000
7C000000F8
FE000001FC
FE000001FC
FF000001FC
FE000001FC
FE000001FC
7C000000F8
3800000070
7E000000F8
FE000001FC
FE000001FC
FF000001FC
FE000001FC
7E000001F8
3800000070
3C787878F0
7EFCFCFDFC
FEFFFFFDFC
FFFFFFFFFC
FEFFFFFFFC
FEFEFFFDFC
7C7CFCFCF8
1010302020
7C000000F8
FE000001FC
FE000001FC
FF000001FC
FE000001FC
FE000001FC
7C000000F8
1800000060
7C000000F8
FE000001FC
FE000001FC
FF000001FC
FE000001FC
7E000001FC
3C00000070
ENDCHAR
STARTCHAR Acircumflex
ENCODING 194
SWIDTH 461 0
DWIDTH 46 0
BBX 38 69 4 0
BITMAP
0000780000
0000FC0000
0001FE0000
0001FE0000
0001FE0000
0000FC0000
0000FC0000
0010000000
007C00F800
00FE01FC00
00FE01FE00
00FE01FE00
00FE01FC00
00FE00FC00
007C007800
0000000000
0000000000
0000000000
0000000000
0000000000
0000000000
0000000000
0000000000
007C787800
00FEFCFC00
00FFFFFC00
00FFFFFE00
00FFFFFE00
00FEFDFC00
007CFCF800
0010000000
7C000000F8
FE000001FC
FE000001FC
FF000001FC
FE000001FC
FE000001FC
7C000000F8
3800000070
7E000000F8
FE000001FC
FE000001FC
FF000001FC
FE000001FC
7E000001F8
3800000070
3C787878F0
7EFCFCFDFC
FEFFFFFDFC
FFFFFFFFFC
FEFFFFFFFC
FEFEFFFDFC
7C7CFCFCF8
1010302020
7C000000F8
FE000001FC
FE000001FC
FF000001FC
FE000001FC
FE000001FC
7C000000F8
1800000060
7C000000F8
FE000001FC
FE000001FC
FF000001FC
FE000001FC
7E000001FC
3C00000070
ENDCHAR
STARTCHAR Atilde
ENCODING 195
SWIDTH 461 0
DWIDTH 46 0
BBX 38 69 4 0
BITMAP
007C7800F8
00FEFC01FC
00FFFE01FC
00FFFE01FC
00FFFE01FC
00FEFC01FC
007CFC00F8
0000000000
7C00FCF800
FE00FDFC00
FE01FFFE00
FF01FFFE00
FE01FFFC00
FE00FCFC00
7C00787800
0000000000
0000000000
0000000000
0000000000
0000000000
0000000000
0000000000
0000000000
007C787800
00FEFCFC00
00FFFFFC00
00FFFFFE00
00FFFFFE00
00FEFDFC00
007CFCF800
0010000000
7C000000F8
FE000001FC
FE000001FC
FF000001FC
FE000001FC
FE000001FC
7C000000F8
3800000070
7E000000F8
FE000001FC
FE000001FC
FF000001FC
FE000001FC
7E000001F8
3800000070
3C787878F0
7EFCFCFDFC
FEFFFFFDFC
FFFFFFFFFC
FEFFFFFFFC
FEFEFFFDFC
7C7CFCFCF8
1010302020
7C000000F8
FE000001FC
FE000001FC
FF000001FC
FE000001FC
FE000001FC
7C000000F8
1800000060
7C000000F8
FE000001FC
FE000001FC
FF000001FC
FE000001FC
7E000001FC
3C00000070
ENDCHAR
STARTCHAR Adieresis
ENCODING 196
SWIDTH 461 0
DWIDTH 46 0
BBX 38 69 4 0
BITMAP
007C00F800
00FE00FC00
00FE01FC00
00FE01FE00
00FE01FE00
00FE01FC00
007C00F800
0000000000
0000000000
0000000000
0000000000
0000000000
0000000000
0000000000
0000000000
0000000000
0000000000
0000000000
0000000000
0000000000
0000000000
0000000000
0000000000
007C787800
00FEFCFC00
00FFFFFC00
00FFFFFE00
00FFFFFE00
00FEFDFC00
007CFCF800
0010000000
7C000000F8
FE000001FC
FE000001FC
FF000001FC
FE000001FC
FE000001FC
7C000000F8
3800000070
7E000000F8
FE000001FC
FE000001FC
FF000001FC
FE000001FC
7E000001F8
3800000070
3C787878F0
7EFCFCFDFC
FEFFFFFDFC
FFFFFFFFFC
FEFFFFFFFC
FEFEFFFDFC
7C7CFCFCF8
1010302020
7C000000F8
FE000001FC
FE000001FC
FF000001FC
FE000001FC
FE000001FC
7C000000F8
1800000060
7C000000F8
FE000001FC
FE000001FC
FF000001FC
FE000001FC
7E000001FC
3C00000070
ENDCHAR
STARTCHAR Aring
ENCODING 197
SWIDTH 461 0
DWIDTH 46 0
BBX 38 69 4 0
BITMAP
0000780000
0000FC0000
0001FE0000
0001FE0000
0001FE0000
0000FC0000
0000FC0000
0010000000
007C00F800
00FE01FC00
00FE01FE00
00FE01FE00
00FE01FC00
00FE00FC00
007C007800
0000780000
0000FC0000
0001FE0000
0001FE0000
0001FE0000
0001FE0000
0000FC0000
0000780000
007C787800
00FEFCFC00
00FFFFFC00
00FFFFFE00
00FFFFFE00
00FEFDFC00
007CFCF800
0010000000
7C000000F8
FE000001FC
FE000001FC
FF000001FC
FE000001FC
FE000001FC
7C000000F8
3800000070
7E000000F8
FE000001FC
FE000001FC
FF000001FC
FE000001FC
7E000001F8
3800000070
3C787878F0
7EFCFCFDFC
FEFFFFFDFC
FFFFFFFFFC
FEFFFFFFFC
FEFEFFFDFC
7C7CFCFCF8
1010302020
7C000000F8
FE000001FC
FE000001FC
FF000001FC
FE000001FC
FE000001FC
7C000000F8
1800000060
7C000000F8
FE000001FC
FE000001FC
FF000001FC
FE000001FC
7E000001FC
3C00000070
ENDCHAR
STARTCHAR AE
ENCODING 198
SWIDTH 538 0
DWIDTH 54 0
BBX 46 54 4 0
BITMAP
003878707070
00FCFCFCF9F8
00FFFFFDFDFC
00FFFFFFFFFC
00FFFFFFFFFC
00FFFFFDFDFC
00FCFCFDF9F8
003878707070
7C0000780000
FE0000FC0000
FE0001FC0000
FF0001FE0000
FE0001FE0000
FE0001FC0000
7C0000F80000
000000000000
7C0000F80000
FE0001FC0000
FE0001FC0000
FF0001FE0000
FE0001FC0000
FE0000FC0000
7C0000F80000
383830707000
7EFCFCFCF800
FEFEFFFDFC00
FEFFFFFFFC00
FFFFFFFFFC00
FEFFFFFDFC00
7EFCFCFDF800
383878787000
3C0000780000
7E0000FC0000
FE0001FC0000
FF0001FE0000
FE0001FE0000
FE0001FC0000
7C0000FC0000
100000200000
7C0000F80000
FE0001FC0000
FE0001FC0000
FF0001FE0000
FE0001FC0000
FE0001FC0000
7C0000F80000
180000306060
7C0000FCF9F8
FE0001FDFDFC
FE0001FFFFFC
FF0001FFFFFC
FE0001FDFDFC
7E0000FDFDF8
3C00007870F0
ENDCHAR
STARTCHAR Ccedilla
ENCODING 199
SWIDTH 461 0
DWIDTH 46 0
BBX 38 69 4 -15
BITMAP
0038787000
00FCFCFC00
00FFFFFC00
00FFFFFE00
00FFFFFE00
00FFFFFC00
00FCFCFC00
0038787000
7C000000F8
FE000001FC
FE000001FC
FF000001FC
FE000001FC
FE000001FC
7C000000F8
0000000020
7C000000F8
FE000001FC
FE000001FC
FF000001FC
FE000001FC
FE000001FC
7C000000F8
3800000000
7E00000000
FE00000000
FE00000000
FF00000000
FE00000000
7E00000000
3800000000
3C00000000
7E00000000
FE00000000
FF00000000
FE00000000
FE00000000
7C00000000
1000000000
7C000000F8
FE000001FC
FE000001FC
FF000001FC
FE000001FC
FE000001FC
7C000000F8
0030303000
007CFCFC00
00FEFFFC00
00FFFFFE00
00FFFFFE00
00FFFFFC00
00FCFCFC00
0078787800
0000780000
0000FC0000
0001FE0000
0001FE0000
0001FE0000
0000FE0000
0000FC0000
0000300000
007C000000
00FE000000
00FE000000
00FE000000
00FE000000
00FE000000
007C000000
ENDCHAR
STARTCHAR Egrave
ENCODING 200
SWIDTH 461 0
DWIDTH 46 0
BBX 38 69 4 0
BITMAP
007C000000
00FE000000
00FE000000
00FE000000
00FE000000
00FE000000
007C000000
0000000000
0000FC0000
0000FC0000
0001FE0000
0001FE0000
0001FE0000
0000FC0000
0000780000
0000000000
0000000000
0000000000
0000000000
0000000000
0000000000
0000000000
0000000000
7C7C7878F8
FEFEFCFDFC
FEFFFFFDFC
FFFFFFFFFC
FEFFFFFFFC
FEFEFDFDFC
7C7CFCF8F8
0010000020
7C00000000
FE00000000
FE00000000
FF00000000
FE00000000
FE00000000
7C00000000
3800000000
7E00000000
FE00000000
FE00000000
FF00000000
FE00000000
7E00000000
3800000000
3C78787800
7EFCFCFC00
FEFFFFFC00
FFFFFFFE00
FEFFFFFE00
FEFEFFFC00
7C7CFCFC00
1010302000
7C00000000
FE00000000
FE00000000
FF00000000
FE00000000
FE00000000
7C00000000
1830303060
7C7CFCFCF8
FEFEFFFDFC
FEFFFFFFFC
FFFFFFFFFC
FEFFFFFDFC
7EFCFCFDFC
3C78787870
ENDCHAR
STARTCHAR Eacute
ENCODING 201
SWIDTH 461 0
DWIDTH 46 0
BBX 38 69 4 0
BITMAP
000000F800
000000FC00
000001FC00
000001FE00
000001FE00
000001FC00
000000F800
0000000000
0000FC0000
0000FC0000
0001FE0000
0001FE0000
0001FE0000
0000FC0000
0000780000
0000000000
0000000000
0000000000
0000000000
0000000000
0000000000
0000000000
0000000000
7C7C7878F8
FEFEFCFDFC
FEFFFFFDFC
FFFFFFFFFC
FEFFFFFFFC
FEFEFDFDFC
7C7CFCF8F8
0010000020
7C00000000
FE00000000
FE00000000
FF00000000
FE00000000
FE00000000
7C00000000
3800000000
7E00000000
FE00000000
FE00000000
FF00000000
FE00000000
7E00000000
3800000000
3C78787800
7EFCFCFC00
FEFFFFFC00
FFFFFFFE00
FEFFFFFE00
FEFEFFFC00
7C7CFCFC00
1010302000
7C00000000
FE00000000
FE00000000
FF00000000
FE00000000
FE00000000
7C00000000
1830303060
7C7CFCFCF8
FEFEFFFDFC
FEFFFFFFFC
FFFFFFFFFC
FEFFFFFDFC
7EFCFCFDFC
3C78787870
ENDCHAR
STARTCHAR Ecircumflex
ENCODING 202
SWIDTH 461 0
DWIDTH 46 0
BBX 38 69 4 0
BITMAP
0000780000
0000FC0000
0001FE0000
0001FE0000
0001FE0000
0000FC0000
0000FC0000
0010000000
007C00F800
00FE01FC00
00FE01FE00
00FE01FE00
00FE01FC00
00FE00FC00
007C007800
0000000000
0000000000
0000000000
0000000000
0000000000
0000000000
0000000000
0000000000
7C7C7878F8
FEFEFCFDFC
FEFFFFFDFC
FFFFFFFFFC
FEFFFFFFFC
FEFEFDFDFC
7C7CFCF8F8
0010000020
7C00000000
FE00000000
FE00000000
FF00000000
FE00000000
FE00000000
7C00000000
3800000000
7E00000000
FE00000000
FE00000000
FF00000000
FE00000000
7E00000000
3800000000
3C78787800
7EFCFCFC00
FEFFFFFC00
FFFFFFFE00
FEFFFFFE00
FEFEFFFC00
7C7CFCFC00
1010302000
7C00000000
FE00000000
FE00000000
FF00000000
FE00000000
FE00000000
7C00000000
1830303060
7C7CFCFCF8
FEFEFFFDFC
FEFFFFFFFC
FFFFFFFFFC
FEFFFFFDFC
7EFCFCFDFC
3C78787870
ENDCHAR
STARTCHAR Edieresis
ENCODING 203
SWIDTH 461 0
DWIDTH 46 0
BBX 38 62 4 0
BITMAP
0010000000
007C00F800
00FE01FC00
00FE01FE00
00FE01FE00
00FE01FC00
00FE00FC00
007C007800
0000000000
0000000000
0000000000
0000000000
0000000000
0000000000
0000000000
0000000000
7C7C7878F8
FEFEFCFDFC
FEFFFFFDFC
FFFFFFFFFC
FEFFFFFFFC
FEFEFDFDFC
7C7CFCF8F8
0010000020
7C00000000
FE00000000
FE00000000
FF00000000
FE00000000
FE00000000
7C00000000
3800000000
7E00000000
FE00000000
FE00000000
FF00000000
FE00000000
7E00000000
3800000000
3C78787800
7EFCFCFC00
FEFFFFFC00
FFFFFFFE00
FEFFFFFE00
FEFEFFFC00
7C7CFCFC00
1010302000
7C00000000
FE00000000
FE00000000
FF00000000
FE00000000
FE00000000
7C00000000
1830303060
7C7CFCFCF8
FEFEFFFDFC
FEFFFFFFFC
FFFFFFFFFC
FEFFFFFDFC
7EFCFCFDFC
3C78787870
ENDCHAR
STARTCHAR Igrave
ENCODING 204
SWIDTH 307 0
DWIDTH 31 0
BBX 23 69 4 0
BITMAP
7C0000
FE0000
FE0000
FF0000
FE0000
FE0000
7C0000
001000
007C00
00FE00
00FE00
00FE00
00FE00
00FE00
007C00
000000
000000
000000
000000
000000
000000
000000
000000
7C7C78
FEFEFC
FEFFFE
FFFFFE
FEFFFE
FEFEFC
7C7CFC
001000
007C00
00FE00
00FE00
00FE00
00FE00
00FE00
007C00
003800
00FC00
00FE00
00FE00
00FE00
00FE00
00FC00
003800
007800
00FC00
00FE00
00FE00
00FE00
00FE00
007C00
001000
007C00
00FE00
00FE00
00FE00
00FE00
00FE00
007C00
183030
7C7CFC
FEFEFE
FEFFFE
FFFFFE
FEFFFE
7EFCFC
3C7878
ENDCHAR
STARTCHAR Iacute
ENCODING 205
SWIDTH 307 0
DWIDTH 31 0
BBX 23 69 4 0
BITMAP
000078
0000FC
0001FE
0001FE
0001FE
0000FC
0000FC
001000
007C00
00FE00
00FE00
00FE00
00FE00
00FE00
007C00
000000
000000
000000
000000
000000
000000
000000
000000
7C7C78
FEFEFC
FEFFFE
FFFFFE
FEFFFE
FEFEFC
7C7CFC
001000
007C00
00FE00
00FE00
00FE00
00FE00
00FE00
007C00
003800
00FC00
00FE00
00FE00
00FE00
00FE00
00FC00
003800
007800
00FC00
00FE00
00FE00
00FE00
00FE00
007C00
001000
007C00
00FE00
00FE00
00FE00
00FE00
00FE00
007C00
183030
7C7CFC
FEFEFE
FEFFFE
FFFFFE
FEFFFE
7EFCFC
3C7878
ENDCHAR
STARTCHAR Icircumflex
ENCODING 206
SWIDTH 307 0
DWIDTH 31 0
BBX 23 69 4 0
BITMAP
007C00
00FE00
00FE00
00FE00
00FE00
00FE00
007C00
000000
7C00FC
FE00FC
FE01FE
FF01FE
FE01FE
FE00FC
7C0078
000000
000000
000000
000000
000000
000000
000000
000000
7C7C78
FEFEFC
FEFFFE
FFFFFE
FEFFFE
FEFEFC
7C7CFC
001000
007C00
00FE00
00FE00
00FE00
00FE00
00FE00
007C00
003800
00FC00
00FE00
00FE00
00FE00
00FE00
00FC00
003800
007800
00FC00
00FE00
00FE00
00FE00
00FE00
007C00
001000
007C00
00FE00
00FE00
00FE00
00FE00
00FE00
007C00
183030
7C7CFC
FEFEFE
FEFFFE
FFFFFE
FEFFFE
7EFCFC
3C7878
ENDCHAR
STARTCHAR Idieresis
ENCODING 207
SWIDTH 307 0
DWIDTH 31 0
BBX 23 61 4 0
BITMAP
7C00FC
FE00FC
FE01FE
FF01FE
FE01FE
FE00FC
7C0078
000000
000000
000000
000000
000000
000000
000000
000000
7C7C78
FEFEFC
FEFFFE
FFFFFE
FEFFFE
FEFEFC
7C7CFC
001000
007C00
00FE00
00FE00
00FE00
00FE00
00FE00
007C00
003800
00FC00
00FE00
00FE00
00FE00
00FE00
00FC00
003800
007800
00FC00
00FE00
00FE00
00FE00
00FE00
007C00
001000
007C00
00FE00
00FE00
00FE00
00FE00
00FE00
007C00
183030
7C7CFC
FEFEFE
FEFFFE
FFFFFE
FEFFFE
7EFCFC
3C7878
ENDCHAR
STARTCHAR Ntilde
ENCODING 209
SWIDTH 461 0
DWIDTH 46 0
BBX 38 69 4 0
BITMAP
007C7800F8
00FEFC01FC
00FFFE01FC
00FFFE01FC
00FFFE01FC
00FEFC01FC
007CFC00F8
0000000000
7C00FCF800
FE00FDFC00
FE01FFFE00
FF01FFFE00
FE01FFFC00
FE00FCFC00
7C00787800
0000000000
0000000000
0000000000
0000000000
0000000000
0000000000
0000000000
0000000000
7C000000F8
FE000001FC
FE000001FC
FF000001FC
FE000001FC
FE000001FC
7C000000F8
0000000020
7C7C0000F8
FEFE0001FC
FEFE0001FC
FFFE0001FC
FEFE0001FC
FEFE0001FC
7C7C0000F8
3800300070
7E00FC00F8
FE00FE01FC
FE01FE01FC
FF01FE01FC
FE01FE01FC
7E00FC01F8
3800780070
3C000078F0
7E0000FDFC
FE0001FDFC
FF0001FFFC
FE0001FFFC
FE0001FDFC
7C0000FCF8
1000002020
7C000000F8
FE000001FC
FE000001FC
FF000001FC
FE000001FC
FE000001FC
7C000000F8
1800000060
7C000000F8
FE000001FC
FE000001FC
FF000001FC
FE000001FC
7E000001FC
3C00000070
ENDCHAR
STARTCHAR Ograve
ENCODING 210
SWIDTH 461 0
DWIDTH 46 0
BBX 38 69 4 0
BITMAP
007C000000
00FE000000
00FE000000
00FE000000
00FE000000
00FE000000
007C000000
0000000000
0000FC0000
0000FC0000
0001FE0000
0001FE0000
0001FE0000
0000FC0000
0000780000
0000000000
0000000000
0000000000
0000000000
0000000000
0000000000
0000000000
0000000000
007C787800
00FEFCFC00
00FFFFFC00
00FFFFFE00
00FFFFFE00
00FEFDFC00
007CFCF800
0010000000
7C000000F8
FE000001FC
FE000001FC
FF000001FC
FE000001FC
FE000001FC
7C000000F8
3800000070
7E000000F8
FE000001FC
FE000001FC
FF000001FC
FE000001FC
7E000001F8
3800000070
3C000000F0
7E000001FC
FE000001FC
FF000001FC
FE000001FC
FE000001FC
7C000000F8
1000000020
7C000000F8
FE000001FC
FE000001FC
FF000001FC
FE000001FC
FE000001FC
7C000000F8
0030303000
007CFCFC00
00FEFFFC00
00FFFFFE00
00FFFFFE00
00FFFFFC00
00FCFCFC00
0078787800
ENDCHAR
STARTCHAR Oacute
ENCODING 211
SWIDTH 461 0
DWIDTH 46 0
BBX 38 69 4 0
BITMAP
000000F800
000000FC00
000001FC00
000001FE00
000001FE00
000001FC00
000000F800
0000000000
0000FC0000
0000FC0000
0001FE0000
0001FE0000
0001FE0000
0000FC0000
0000780000
0000000000
0000000000
0000000000
0000000000
0000000000
0000000000
0000000000
0000000000
007C787800
00FEFCFC00
00FFFFFC00
00FFFFFE00
00FFFFFE00
00FEFDFC00
007CFCF800
0010000000
7C000000F8
FE000001FC
FE000001FC
FF000001FC
FE000001FC
FE000001FC
7C000000F8
3800000070
7E000000F8
FE000001FC
FE000001FC
FF000001FC
FE000001FC
7E000001F8
3800000070
3C000000F0
7E000001FC
FE000001FC
FF000001FC
FE000001FC
FE000001FC
7C000000F8
1000000020
7C000000F8
FE000001FC
FE000001FC
FF000001FC
FE000001FC
FE000001FC
7C000000F8
0030303000
007CFCFC00
00FEFFFC00
00FFFFFE00
00FFFFFE00
00FFFFFC00
00FCFCFC00
0078787800
ENDCHAR
STARTCHAR Ocircumflex
ENCODING 212
SWIDTH 461 0
DWIDTH 46 0
BBX 38 69 4 0
BITMAP
0000780000
0000FC0000
0001FE0000
0001FE0000
0001FE0000
0000FC0000
0000FC0000
0010000000
007C00F800
00FE01FC00
00FE01FE00
00FE01FE00
00FE01FC00
00FE00FC00
007C007800
0000000000
0000000000
0000000000
0000000000
0000000000
0000000000
0000000000
0000000000
007C787800
00FEFCFC00
00FFFFFC00
00FFFFFE00
00FFFFFE00
00FEFDFC00
007CFCF800
0010000000
7C000000F8
FE000001FC
FE000001FC
FF000001FC
FE000001FC
FE000001FC
7C000000F8
3800000070
7E000000F8
FE000001FC
FE000001FC
FF000001FC
FE000001FC
7E000001F8
3800000070
3C000000F0
7E000001FC
FE000001FC
FF000001FC
FE000001FC
FE000001FC
7C000000F8
1000000020
7C000000F8
FE000001FC
FE000001FC
FF000001FC
FE000001FC
FE000001FC
7C000000F8
0030303000
007CFCFC00
00FEFFFC00
00FFFFFE00
00FFFFFE00
00FFFFFC00
00FCFCFC00
0078787800
ENDCHAR
STARTCHAR Otilde
ENCODING 213
SWIDTH 461 0
DWIDTH 46 0
BBX 38 69 4 0
BITMAP
007C7800F8
00FEFC01FC
00FFFE01FC
00FFFE01FC
00FFFE01FC
00FEFC01FC
007CFC00F8
0000000000
7C00FCF800
FE00FDFC00
FE01FFFE00
FF01FFFE00
FE01FFFC00
FE00FCFC00
7C00787800
0000000000
0000000000
0000000000
0000000000
0000000000
0000000000
0000000000
0000000000
007C787800
00FEFCFC00
00FFFFFC00
00FFFFFE00
00FFFFFE00
00FEFDFC00
007CFCF800
0010000000
7C000000F8
FE000001FC
FE000001FC
FF000001FC
FE000001FC
FE000001FC
7C000000F8
3800000070
7E000000F8
FE000001FC
FE000001FC
FF000001FC
FE000001FC
7E000001F8
3800000070
3C000000F0
7E000001FC
FE000001FC
FF000001FC
FE000001FC
FE000001FC
7C000000F8
1000000020
7C000000F8
FE000001FC
FE000001FC
FF000001FC
FE000001FC
FE000001FC
7C000000F8
0030303000
007CFCFC00
00FEFFFC00
00FFFFFE00
00FFFFFE00
00FFFFFC00
00FCFCFC00
0078787800
ENDCHAR
STARTCHAR Odieresis
ENCODING 214
SWIDTH 461 0
DWIDTH 46 0
BBX 38 69 4 0
BITMAP
007C00F800
00FE00FC00
00FE01FC00
00FE01FE00
00FE01FE00
00FE01FC00
007C00F800
0000000000
0000000000
0000000000
0000000000
0000000000
0000000000
0000000000
0000000000
0038787000
00FCFCFC00
00FFFFFC00
00FFFFFE00
00FFFFFE00
00FFFFFC00
00FCFCFC00
0038787000
7C000000F8
FE000001FC
FE000001FC
FF000001FC
FE000001FC
FE000001FC
7C000000F8
0000000020
7C000000F8
FE000001FC
FE000001FC
FF000001FC
FE000001FC
FE000001FC
7C000000F8
3800000070
7E000000F8
FE000001FC
FE000001FC
FF000001FC
FE000001FC
7E000001F8
3800000070
3C000000F0
7E000001FC
FE000001FC
FF000001FC
FE000001FC
FE000001FC
7C000000F8
1000000020
7C000000F8
FE000001FC
FE000001FC
FF000001FC
FE000001FC
FE000001FC
7C000000F8
0030303000
007CFCFC00
00FEFFFC00
00FFFFFE00
00FFFFFE00
00FFFFFC00
00FCFCFC00
0078787800
ENDCHAR
STARTCHAR Oslash
ENCODING 216
SWIDTH 461 0
DWIDTH 46 0
BBX 38 54 4 0
BITMAP
0038787000
00FCFCFC00
00FFFFFC00
00FFFFFE00
00FFFFFE00
00FFFFFC00
00FCFCFC00
0038787000
7C000000F8
FE000001FC
FE000001FC
FF000001FC
FE000001FC
FE000001FC
7C000000F8
0000000020
7C0000F8F8
FE0001FDFC
FE0001FDFC
FF0001FFFC
FE0001FDFC
FE0000FDFC
7C0000F8F8
3800300070
7E00FC00F8
FE00FE01FC
FE01FE01FC
FF01FE01FC
FE01FE01FC
7E00FC01F8
3800780070
3C780000F0
7EFC0001FC
FEFE0001FC
FFFE0001FC
FEFE0001FC
FEFE0001FC
7C7C0000F8
1010000020
7C000000F8
FE000001FC
FE000001FC
FF000001FC
FE000001FC
FE000001FC
7C000000F8
0030303000
007CFCFC00
00FEFFFC00
00FFFFFE00
00FFFFFE00
00FFFFFC00
00FCFCFC00
0078787800
ENDCHAR
STARTCHAR Ugrave
ENCODING 217
SWIDTH 461 0
DWIDTH 46 0
BBX 38 69 4 0
BITMAP
000000F800
000000FC00
000001FC00
000001FE00
000001FE00
000001FC00
000000F800
0000000000
0000FC0000
0000FC0000
0001FE0000
0001FE0000
0001FE0000
0000FC0000
0000780000
0000000000
0000000000
0000000000
0000000000
0000000000
0000000000
0000000000
0000000000
7C000000F8
FE000001FC
FE000001FC
FF000001FC
FE000001FC
FE000001FC
7C000000F8
0000000020
7C000000F8
FE000001FC
FE000001FC
FF000001FC
FE000001FC
FE000001FC
7C000000F8
3800000070
7E000000F8
FE000001FC
FE000001FC
FF000001FC
FE000001FC
7E000001F8
3800000070
3C000000F0
7E000001FC
FE000001FC
FF000001FC
FE000001FC
FE000001FC
7C000000F8
1000000020
7C000000F8
FE000001FC
FE000001FC
FF000001FC
FE000001FC
FE000001FC
7C000000F8
0030303000
007CFCFC00
00FEFFFC00
00FFFFFE00
00FFFFFE00
00FFFFFC00
00FCFCFC00
0078787800
ENDCHAR
STARTCHAR Uacute
ENCODING 218
SWIDTH 461 0
DWIDTH 46 0
BBX 38 69 4 0
BITMAP
000000F800
000000FC00
000001FC00
000001FE00
000001FE00
000001FC00
000000F800
0000000000
0000FC0000
0000FC0000
0001FE0000
0001FE0000
0001FE0000
0000FC0000
0000780000
0000000000
0000000000
0000000000
0000000000
0000000000
0000000000
0000000000
0000000000
7C000000F8
FE000001FC
FE000001FC
FF000001FC
FE000001FC
FE000001FC
7C000000F8
0000000020
7C000000F8
FE000001FC
FE000001FC
FF000001FC
FE000001FC
FE000001FC
7C000000F8
3800000070
7E000000F8
FE000001FC
FE000001FC
FF000001FC
FE000001FC
7E000001F8
3800000070
3C000000F0
7E000001FC
FE000001FC
FF000001FC
FE000001FC
FE000001FC
7C000000F8
1000000020
7C000000F8
FE000001FC
FE000001FC
FF000001FC
FE000001FC
FE000001FC
7C000000F8
0030303000
007CFCFC00
00FEFFFC00
00FFFFFE00
00FFFFFE00
00FFFFFC00
00FCFCFC00
0078787800
ENDCHAR
STARTCHAR Ucircumflex
ENCODING 219
SWIDTH 461 0
DWIDTH 46 0
BBX 38 69 4 0
BITMAP
0000780000
0000FC0000
0001FE0000
0001FE0000
0001FE0000
0000FC0000
0000FC0000
0010000000
007C00F800
00FE01FC00
00FE01FE00
00FE01FE00
00FE01FC00
00FE00FC00
007C007800
0000000000
0000000000
0000000000
0000000000
0000000000
0000000000
0000000000
0000000000
7C000000F8
FE000001FC
FE000001FC
FF000001FC
FE000001FC
FE000001FC
7C000000F8
0000000020
7C000000F8
FE000001FC
FE000001FC
FF000001FC
FE000001FC
FE000001FC
7C000000F8
3800000070
7E000000F8
FE000001FC
FE000001FC
FF000001FC
FE000001FC
7E000001F8
3800000070
3C000000F0
7E000001FC
FE000001FC
FF000001FC
FE000001FC
FE000001FC
7C000000F8
1000000020
7C000000F8
FE000001FC
FE000001FC
FF000001FC
FE000001FC
FE000001FC
7C000000F8
0030303000
007CFCFC00
00FEFFFC00
00FFFFFE00
00FFFFFE00
00FFFFFC00
00FCFCFC00
0078787800
ENDCHAR
STARTCHAR Udieresis
ENCODING 220
SWIDTH 461 0
DWIDTH 46 0
BBX 38 69 4 0
BITMAP
007C00F800
00FE00FC00
00FE01FC00
00FE01FE00
00FE01FE00
00FE01FC00
007C00F800
0000000000
0000000000
0000000000
0000000000
0000000000
0000000000
0000000000
0000000000
3800000070
7E000000F8
FE000001FC
FE000001FC
FF000001FC
FE000001FC
7E000001F8
3800000070
7C000000F8
FE000001FC
FE000001FC
FF000001FC
FE000001FC
FE000001FC
7C000000F8
0000000020
7C000000F8
FE000001FC
FE000001FC
FF000001FC
FE000001FC
FE000001FC
7C000000F8
3800000070
7E000000F8
FE000001FC
FE000001FC
FF000001FC
FE000001FC
7E000001F8
3800000070
3C000000F0
7E000001FC
FE000001FC
FF000001FC
FE000001FC
FE000001FC
7C000000F8
1000000020
7C000000F8
FE000001FC
FE000001FC
FF000001FC
FE000001FC
FE000001FC
7C000000F8
0030303000
007CFCFC00
00FEFFFC00
00FFFFFE00
00FFFFFE00
00FFFFFC00
00FCFCFC00
0078787800
ENDCHAR
STARTCHAR germandbls
ENCODING 223
SWIDTH 461 0
DWIDTH 46 0
BBX 38 69 4 -8
BITMAP
0000FCF800
0000FDFC00
0001FFFE00
0001FFFE00
0001FFFC00
0000FCFC00
0000787800
0038000070
00FC0000F8
00FE0001FC
00FE0001FC
00FE0001FC
00FE0001FC
00FC0001F8
0038000070
7C000000F8
FE000001FC
FE000001FC
FF000001FC
FE000001FC
FE000001FC
7C000000F8
0000000020
7C0000F800
FE0001FC00
FE0001FC00
FF0001FE00
FE0001FC00
FE0000FC00
7C0000F800
3800007000
7E0000FC00
FE0001FC00
FE0001FE00
FF0001FE00
FE0001FC00
7E0000FC00
3800007800
3C000000F0
7E000001FC
FE000001FC
FF000001FC
FE000001FC
FE000001FC
7C000000F8
1000000020
7C000000F8
FE000001FC
FE000001FC
FF000001FC
FE000001FC
FE000001FC
7C000000F8
1800303000
7C00FCFC00
FE00FFFC00
FE01FFFE00
FF01FFFE00
FE01FFFC00
7E00FCFC00
3C00787800
3C00000000
7E00000000
FE00000000
FF00000000
FE00000000
FE00000000
7E00000000
1800000000
ENDCHAR
STARTCHAR agrave
ENCODING 224
SWIDTH 461 0
DWIDTH 46 0
BBX 38 61 4 0
BITMAP
0000FC0000
0000FC0000
0001FE0000
0001FE0000
0001FE0000
0000FC0000
0000780000
0000007000
000000FC00
000001FC00
000001FE00
000001FE00
000001FC00
000000FC00
0000007000
0000000000
0000000000
0000000000
0000000000
0000000000
0000000000
0000000000
0000000000
007C7CF8F8
00FEFDFDFC
00FFFFFDFC
00FFFFFFFC
00FFFFFDFC
00FEFCFDFC
007C78F8F8
3800000070
7E000000F8
FE000001FC
FE000001FC
FF000001FC
FE000001FC
7E000001F8
3800000070
3C000000F0
7E000001FC
FE000001FC
FF000001FC
FE000001FC
FE000001FC
7C000000F8
1000000020
7C0000F8F8
FE0001FDFC
FE0001FDFC
FF0001FFFC
FE0001FDFC
FE0001FDFC
7C0000F8F8
0030300060
007CFC00F8
00FEFE01FC
00FFFE01FC
00FFFE01FC
00FFFE01FC
00FCFC01FC
0078780070
ENDCHAR
STARTCHAR aacute
ENCODING 225
SWIDTH 461 0
DWIDTH 46 0
BBX 38 61 4 0
BITMAP
000000F800
000001FC00
000001FE00
000001FE00
000001FC00
000000FC00
0000007800
0000780000
0000FC0000
0001FE0000
0001FE0000
0001FE0000
0001FE0000
0000FC0000
0000780000
0000000000
0000000000
0000000000
0000000000
0000000000
0000000000
0000000000
0000000000
007C7CF8F8
00FEFDFDFC
00FFFFFDFC
00FFFFFFFC
00FFFFFDFC
00FEFCFDFC
007C78F8F8
3800000070
7E000000F8
FE000001FC
FE000001FC
FF000001FC
FE000001FC
7E000001F8
3800000070
3C000000F0
7E000001FC
FE000001FC
FF000001FC
FE000001FC
FE000001FC
7C000000F8
1000000020
7C0000F8F8
FE0001FDFC
FE0001FDFC
FF0001FFFC
FE0001FDFC
FE0001FDFC
7C0000F8F8
0030300060
007CFC00F8
00FEFE01FC
00FFFE01FC
00FFFE01FC
00FFFE01FC
00FCFC01FC
0078780070
ENDCHAR
STARTCHAR acircumflex
ENCODING 226
SWIDTH 461 0
DWIDTH 46 0
BBX 38 61 4 0
BITMAP
0000FC0000
0000FC0000
0001FE0000
0001FE0000
0001FE0000
0000FC0000
0000780000
0038007000
00FC00FC00
00FE01FC00
00FE01FE00
00FE01FE00
00FE01FC00
00FC00FC00
0038007000
0000000000
0000000000
0000000000
0000000000
0000000000
0000000000
0000000000
0000000000
007C7CF8F8
00FEFDFDFC
00FFFFFDFC
00FFFFFFFC
00FFFFFDFC
00FEFCFDFC
007C78F8F8
3800000070
7E000000F8
FE000001FC
FE000001FC
FF000001FC
FE000001FC
7E000001F8
3800000070
3C000000F0
7E000001FC
FE000001FC
FF000001FC
FE000001FC
FE000001FC
7C000000F8
1000000020
7C0000F8F8
FE0001FDFC
FE0001FDFC
FF0001FFFC
FE0001FDFC
FE0001FDFC
7C0000F8F8
0030300060
007CFC00F8
00FEFE01FC
00FFFE01FC
00FFFE01FC
00FFFE01FC
00FCFC01FC
0078780070
ENDCHAR
STARTCHAR atilde
ENCODING 227
SWIDTH 461 0
DWIDTH 46 0
BBX 38 62 4 0
BITMAP
0010000020
007CFC00F8
00FEFC01FC
00FFFE01FC
00FFFE01FC
00FFFE01FC
00FEFC01FC
007C7800F8
3800787000
7E00FCFC00
FE01FFFC00
FE01FFFE00
FF01FFFE00
FE01FFFC00
7E00FCFC00
3800787000
0000000000
0000000000
0000000000
0000000000
0000000000
0000000000
0000000000
0000000000
007C7CF8F8
00FEFDFDFC
00FFFFFDFC
00FFFFFFFC
00FFFFFDFC
00FEFCFDFC
007C78F8F8
3800000070
7E000000F8
FE000001FC
FE000001FC
FF000001FC
FE000001FC
7E000001F8
3800000070
3C000000F0
7E000001FC
FE000001FC
FF000001FC
FE000001FC
FE000001FC
7C000000F8
1000000020
7C0000F8F8
FE0001FDFC
FE0001FDFC
FF0001FFFC
FE0001FDFC
FE0001FDFC
7C0000F8F8
0030300060
007CFC00F8
00FEFE01FC
00FFFE01FC
00FFFE01FC
00FFFE01FC
00FCFC01FC
0078780070
ENDCHAR
STARTCHAR adieresis
ENCODING 228
SWIDTH 461 0
DWIDTH 46 0
BBX 38 54 4 0
BITMAP
0038007000
00FC00FC00
00FE01FC00
00FE01FE00
00FE01FE00
00FE01FC00
00FC00FC00
0038007000
0000000000
0000000000
0000000000
0000000000
0000000000
0000000000
0000000000
0000000000
007C7CF8F8
00FEFDFDFC
00FFFFFDFC
00FFFFFFFC
00FFFFFDFC
00FEFCFDFC
007C78F8F8
3800000070
7E000000F8
FE000001FC
FE000001FC
FF000001FC
FE000001FC
7E000001F8
3800000070
3C000000F0
7E000001FC
FE000001FC
FF000001FC
FE000001FC
FE000001FC
7C000000F8
1000000020
7C0000F8F8
FE0001FDFC
FE0001FDFC
FF0001FFFC
FE0001FDFC
FE0001FDFC
7C0000F8F8
0030300060
007CFC00F8
00FEFE01FC
00FFFE01FC
00FFFE01FC
00FFFE01FC
00FCFC01FC
0078780070
ENDCHAR
STARTCHAR aring
ENCODING 229
SWIDTH 461 0
DWIDTH 46 0
BBX 38 69 4 0
BITMAP
000078F800
0000FCFC00
0001FFFC00
0001FFFE00
0001FFFE00
0000FDFC00
0000FCF800
0010000020
007C0000F8
00FE0001FC
00FE0001FC
00FE0001FC
00FE0001FC
00FE0001FC
007C0000F8
0000787000
0000FCFC00
0001FFFC00
0001FFFE00
0001FFFE00
0001FFFC00
0000FCFC00
0000787000
0000000000
0000000000
0000000000
0000000000
0000000000
0000000000
0000000000
0000000000
007C7CF8F8
00FEFDFDFC
00FFFFFDFC
00FFFFFFFC
00FFFFFDFC
00FEFCFDFC
007C78F8F8
3800000070
7E000000F8
FE000001FC
FE000001FC
FF000001FC
FE000001FC
7E000001F8
3800000070
3C000000F0
7E000001FC
FE000001FC
FF000001FC
FE000001FC
FE000001FC
7C000000F8
1000000020
7C0000F8F8
FE0001FDFC
FE0001FDFC
FF0001FFFC
FE0001FDFC
FE0001FDFC
7C0000F8F8
0030300060
007CFC00F8
00FEFE01FC
00FFFE01FC
00FFFE01FC
00FFFE01FC
00FCFC01FC
0078780070
ENDCHAR
STARTCHAR ae
ENCODING 230
SWIDTH 461 0
DWIDTH 46 0
BBX 38 38 4 0
BITMAP
007C7CF800
00FEFDFC00
00FFFFFC00
00FFFFFE00
00FFFFFC00
00FEFCFC00
007C78F800
3800300070
7E00FC00F8
FE00FE01FC
FE01FE01FC
FF01FE01FC
FE01FE01FC
7E00FC01F8
3800780070
3C007878F0
7E00FCFDFC
FE01FFFDFC
FF01FFFFFC
FE01FFFFFC
FE00FFFDFC
7C00FCFCF8
1000302020
7C007C0000
FE00FC0000
FE01FE0000
FF01FE0000
FE01FE0000
FE00FC0000
7C00780000
0030303060
007CFCFCF8
00FEFFFDFC
00FFFFFFFC
00FFFFFFFC
00FFFFFDFC
00FCFCFDFC
0078787870
ENDCHAR
STARTCHAR ccedilla
ENCODING 231
SWIDTH 461 0
DWIDTH 46 0
BBX 38 53 4 -15
BITMAP
007C7CF800
00FEFDFC00
00FFFFFC00
00FFFFFE00
00FFFFFC00
00FEFCFC00
007C78F800
3800000070
7E000000F8
FE000001FC
FE000001FC
FF000001FC
FE000001FC
7E000001F8
3800000070
3C00000000
7E00000000
FE00000000
FF00000000
FE00000000
FE00000000
7C00000000
1000000000
7C00000000
FE00000000
FE00000000
FF00000000
FE00000000
FE00000000
7C00000000
0030303060
007CFCFCF8
00FEFFFDFC
00FFFFFFFC
00FFFFFFFC
00FFFFFDFC
00FCFCFDFC
0078787870
0000780000
0000FC0000
0001FE0000
0001FE0000
0001FE0000
0000FE0000
0000FC0000
0000300000
007C000000
00FE000000
00FE000000
00FE000000
00FE000000
00FE000000
007C000000
ENDCHAR
STARTCHAR egrave
ENCODING 232
SWIDTH 461 0
DWIDTH 46 0
BBX 38 62 4 0
BITMAP
0010000000
007C000000
00FE000000
00FE000000
00FE000000
00FE000000
00FE000000
007C000000
0000780000
0000FC0000
0001FE0000
0001FE0000
0001FE0000
0001FE0000
0000FC0000
0000780000
0000000000
0000000000
0000000000
0000000000
0000000000
0000000000
0000000000
0000000000
007C7CF800
00FEFDFC00
00FFFFFC00
00FFFFFE00
00FFFFFC00
00FEFCFC00
007C78F800
3800000070
7E000000F8
FE000001FC
FE000001FC
FF000001FC
FE000001FC
7E000001F8
3800000070
3C787878F0
7EFCFCFDFC
FEFFFFFDFC
FFFFFFFFFC
FEFFFFFFFC
FEFEFFFDFC
7C7CFCFCF8
1010302020
7C00000000
FE00000000
FE00000000
FF00000000
FE00000000
FE00000000
7C00000000
0030303060
007CFCFCF8
00FEFFFDFC
00FFFFFFFC
00FFFFFFFC
00FFFFFDFC
00FCFCFDFC
0078787870
ENDCHAR
STARTCHAR eacute
ENCODING 233
SWIDTH 461 0
DWIDTH 46 0
BBX 38 61 4 0
BITMAP
000000F800
000001FC00
000001FE00
000001FE00
000001FC00
000000FC00
0000007800
0000780000
0000FC0000
0001FE0000
0001FE0000
0001FE0000
0001FE0000
0000FC0000
0000780000
0000000000
0000000000
0000000000
0000000000
0000000000
0000000000
0000000000
0000000000
007C7CF800
00FEFDFC00
00FFFFFC00
00FFFFFE00
00FFFFFC00
00FEFCFC00
007C78F800
3800000070
7E000000F8
FE000001FC
FE000001FC
FF000001FC
FE000001FC
7E000001F8
3800000070
3C787878F0
7EFCFCFDFC
FEFFFFFDFC
FFFFFFFFFC
FEFFFFFFFC
FEFEFFFDFC
7C7CFCFCF8
1010302020
7C00000000
FE00000000
FE00000000
FF00000000
FE00000000
FE00000000
7C00000000
0030303060
007CFCFCF8
00FEFFFDFC
00FFFFFFFC
00FFFFFFFC
00FFFFFDFC
00FCFCFDFC
0078787870
ENDCHAR
STARTCHAR ecircumflex
ENCODING 234
SWIDTH 461 0
DWIDTH 46 0
BBX 38 61 4 0
BITMAP
0000FC0000
0000FC0000
0001FE0000
0001FE0000
0001FE0000
0000FC0000
0000780000
0038007000
00FC00FC00
00FE01FC00
00FE01FE00
00FE01FE00
00FE01FC00
00FC00FC00
0038007000
0000000000
0000000000
0000000000
0000000000
0000000000
0000000000
0000000000
0000000000
007C7CF800
00FEFDFC00
00FFFFFC00
00FFFFFE00
00FFFFFC00
00FEFCFC00
007C78F800
3800000070
7E000000F8
FE000001FC
FE000001FC
FF000001FC
FE000001FC
7E000001F8
3800000070
3C787878F0
7EFCFCFDFC
FEFFFFFDFC
FFFFFFFFFC
FEFFFFFFFC
FEFEFFFDFC
7C7CFCFCF8
1010302020
7C00000000
FE00000000
FE00000000
FF00000000
FE00000000
FE00000000
7C00000000
0030303060
007CFCFCF8
00FEFFFDFC
00FFFFFFFC
00FFFFFFFC
00FFFFFDFC
00FCFCFDFC
0078787870
ENDCHAR
STARTCHAR edieresis
ENCODING 235
SWIDTH 461 0
DWIDTH 46 0
BBX 38 54 4 0
BITMAP
0038007000
00FC00FC00
00FE01FC00
00FE01FE00
00FE01FE00
00FE01FC00
00FC00FC00
0038007000
0000000000
0000000000
0000000000
0000000000
0000000000
0000000000
0000000000
0000000000
007C7CF800
00FEFDFC00
00FFFFFC00
00FFFFFE00
00FFFFFC00
00FEFCFC00
007C78F800
3800000070
7E000000F8
FE000001FC
FE000001FC
FF000001FC
FE000001FC
7E000001F8
3800000070
3C787878F0
7EFCFCFDFC
FEFFFFFDFC
FFFFFFFFFC
FEFFFFFFFC
FEFEFFFDFC
7C7CFCFCF8
1010302020
7C00000000
FE00000000
FE00000000
FF00000000
FE00000000
FE00000000
7C00000000
0030303060
007CFCFCF8
00FEFFFDFC
00FFFFFFFC
00FFFFFFFC
00FFFFFDFC
00FCFCFDFC
0078787870
ENDCHAR
STARTCHAR igrave
ENCODING 236
SWIDTH 461 0
DWIDTH 46 0
BBX 23 62 12 0
BITMAP
100000
7C0000
FE0000
FE0000
FE0000
FE0000
FE0000
7C0000
007800
00FC00
01FE00
01FE00
01FE00
01FE00
00FC00
007800
000000
000000
000000
000000
000000
000000
000000
000000
7C7C00
FEFC00
FFFE00
FFFE00
FFFE00
FEFC00
7C7800
003000
00FC00
00FE00
01FE00
01FE00
01FE00
00FC00
007800
007800
00FC00
01FE00
01FE00
01FE00
00FE00
00FC00
003000
007C00
00FC00
01FE00
01FE00
01FE00
00FC00
007800
303030
7CFCFC
FEFFFC
FFFFFE
FFFFFE
FFFFFC
FCFCFC
787878
ENDCHAR
STARTCHAR iacute
ENCODING 237
SWIDTH 461 0
DWIDTH 46 0
BBX 23 61 12 0
BITMAP
0000F8
0001FC
0001FE
0001FE
0001FC
0000FC
000078
007800
00FC00
01FE00
01FE00
01FE00
01FE00
00FC00
007800
000000
000000
000000
000000
000000
000000
000000
000000
7C7C00
FEFC00
FFFE00
FFFE00
FFFE00
FEFC00
7C7800
003000
00FC00
00FE00
01FE00
01FE00
01FE00
00FC00
007800
007800
00FC00
01FE00
01FE00
01FE00
00FE00
00FC00
003000
007C00
00FC00
01FE00
01FE00
01FE00
00FC00
007800
303030
7CFCFC
FEFFFC
FFFFFE
FFFFFE
FFFFFC
FCFCFC
787878
ENDCHAR
STARTCHAR icircumflex
ENCODING 238
SWIDTH 461 0
DWIDTH 46 0
BBX 23 61 12 0
BITMAP
00FC00
00FC00
01FE00
01FE00
01FE00
00FC00
007800
380070
FC00FC
FE01FC
FE01FE
FE01FE
FE01FC
FC00FC
380070
000000
000000
000000
000000
000000
000000
000000
000000
7C7C00
FEFC00
FFFE00
FFFE00
FFFE00
FEFC00
7C7800
003000
00FC00
00FE00
01FE00
01FE00
01FE00
00FC00
007800
007800
00FC00
01FE00
01FE00
01FE00
00FE00
00FC00
003000
007C00
00FC00
01FE00
01FE00
01FE00
00FC00
007800
303030
7CFCFC
FEFFFC
FFFFFE
FFFFFE
FFFFFC
FCFCFC
787878
ENDCHAR
STARTCHAR idieresis
ENCODING 239
SWIDTH 461 0
DWIDTH 46 0
BBX 23 54 12 0
BITMAP
380070
FC00FC
FE01FC
FE01FE
FE01FE
FE01FC
FC00FC
380070
000000
000000
000000
000000
000000
000000
000000
000000
7C7C00
FEFC00
FFFE00
FFFE00
FFFE00
FEFC00
7C7800
003000
00FC00
00FE00
01FE00
01FE00
01FE00
00FC00
007800
007800
00FC00
01FE00
01FE00
01FE00
00FE00
00FC00
003000
007C00
00FC00
01FE00
01FE00
01FE00
00FC00
007800
303030
7CFCFC
FEFFFC
FFFFFE
FFFFFE
FFFFFC
FCFCFC
787878
ENDCHAR
STARTCHAR ntilde
ENCODING 241
SWIDTH 461 0
DWIDTH 46 0
BBX 38 62 4 0
BITMAP
0010000020
007CFC00F8
00FEFC01FC
00FFFE01FC
00FFFE01FC
00FFFE01FC
00FEFC01FC
007C7800F8
3800787000
7E00FCFC00
FE01FFFC00
FE01FFFE00
FF01FFFE00
FE01FFFC00
7E00FCFC00
3800787000
0000000000
0000000000
0000000000
0000000000
0000000000
0000000000
0000000000
0000000000
7C007CF800
FE00FDFC00
FE01FFFC00
FF01FFFE00
FE01FFFC00
FE00FCFC00
7C0078F800
3838000070
7EFC0000F8
FEFE0001FC
FEFE0001FC
FFFE0001FC
FEFE0001FC
7EFC0001F8
3838000070
3C000000F0
7E000001FC
FE000001FC
FF000001FC
FE000001FC
FE000001FC
7C000000F8
1000000020
7C000000F8
FE000001FC
FE000001FC
FF000001FC
FE000001FC
FE000001FC
7C000000F8
1800000060
7C000000F8
FE000001FC
FE000001FC
FF000001FC
FE000001FC
7E000001FC
3C00000070
ENDCHAR
STARTCHAR ograve
ENCODING 242
SWIDTH 461 0
DWIDTH 46 0
BBX 38 62 4 0
BITMAP
0010000000
007C000000
00FE000000
00FE000000
00FE000000
00FE000000
00FE000000
007C000000
0000780000
0000FC0000
0001FE0000
0001FE0000
0001FE0000
0001FE0000
0000FC0000
0000780000
0000000000
0000000000
0000000000
0000000000
0000000000
0000000000
0000000000
0000000000
007C7CF800
00FEFDFC00
00FFFFFC00
00FFFFFE00
00FFFFFC00
00FEFCFC00
007C78F800
3800000070
7E000000F8
FE000001FC
FE000001FC
FF000001FC
FE000001FC
7E000001F8
3800000070
3C000000F0
7E000001FC
FE000001FC
FF000001FC
FE000001FC
FE000001FC
7C000000F8
1000000020
7C000000F8
FE000001FC
FE000001FC
FF000001FC
FE000001FC
FE000001FC
7C000000F8
0030303000
007CFCFC00
00FEFFFC00
00FFFFFE00
00FFFFFE00
00FFFFFC00
00FCFCFC00
0078787800
ENDCHAR
STARTCHAR oacute
ENCODING 243
SWIDTH 461 0
DWIDTH 46 0
BBX 38 61 4 0
BITMAP
000000F800
000001FC00
000001FE00
000001FE00
000001FC00
000000FC00
0000007800
0000780000
0000FC0000
0001FE0000
0001FE0000
0001FE0000
0001FE0000
0000FC0000
0000780000
0000000000
0000000000
0000000000
0000000000
0000000000
0000000000
0000000000
0000000000
007C7CF800
00FEFDFC00
00FFFFFC00
00FFFFFE00
00FFFFFC00
00FEFCFC00
007C78F800
3800000070
7E000000F8
FE000001FC
FE000001FC
FF000001FC
FE000001FC
7E000001F8
3800000070
3C000000F0
7E000001FC
FE000001FC
FF000001FC
FE000001FC
FE000001FC
7C000000F8
1000000020
7C000000F8
FE000001FC
FE000001FC
FF000001FC
FE000001FC
FE000001FC
7C000000F8
0030303000
007CFCFC00
00FEFFFC00
00FFFFFE00
00FFFFFE00
00FFFFFC00
00FCFCFC00
0078787800
ENDCHAR
STARTCHAR ocircumflex
ENCODING 244
SWIDTH 461 0
DWIDTH 46 0
BBX 38 61 4 0
BITMAP
0000FC0000
0000FC0000
0001FE0000
0001FE0000
0001FE0000
0000FC0000
0000780000
0038007000
00FC00FC00
00FE01FC00
00FE01FE00
00FE01FE00
00FE01FC00
00FC00FC00
0038007000
0000000000
0000000000
0000000000
0000000000
0000000000
0000000000
0000000000
0000000000
007C7CF800
00FEFDFC00
00FFFFFC00
00FFFFFE00
00FFFFFC00
00FEFCFC00
007C78F800
3800000070
7E000000F8
FE000001FC
FE000001FC
FF000001FC
FE000001FC
7E000001F8
3800000070
3C000000F0
7E000001FC
FE000001FC
FF000001FC
FE000001FC
FE000001FC
7C000000F8
1000000020
7C000000F8
FE000001FC
FE000001FC
FF000001FC
FE000001FC
FE000001FC
7C000000F8
0030303000
007CFCFC00
00FEFFFC00
00FFFFFE00
00FFFFFE00
00FFFFFC00
00FCFCFC00
0078787800
ENDCHAR
STARTCHAR otilde
ENCODING 245
SWIDTH 461 0
DWIDTH 46 0
BBX 38 62 4 0
BITMAP
0010000020
007CFC00F8
00FEFC01FC
00FFFE01FC
00FFFE01FC
00FFFE01FC
00FEFC01FC
007C7800F8
3800787000
7E00FCFC00
FE01FFFC00
FE01FFFE00
FF01FFFE00
FE01FFFC00
7E00FCFC00
3800787000
0000000000
0000000000
0000000000
0000000000
0000000000
0000000000
0000000000
0000000000
007C7CF800
00FEFDFC00
00FFFFFC00
00FFFFFE00
00FFFFFC00
00FEFCFC00
007C78F800
3800000070
7E000000F8
FE000001FC
FE000001FC
FF000001FC
FE000001FC
7E000001F8
3800000070
3C000000F0
7E000001FC
FE000001FC
FF000001FC
FE000001FC
FE000001FC
7C000000F8
1000000020
7C000000F8
FE000001FC
FE000001FC
FF000001FC
FE000001FC
FE000001FC
7C000000F8
0030303000
007CFCFC00
00FEFFFC00
00FFFFFE00
00FFFFFE00
00FFFFFC00
00FCFCFC00
0078787800
ENDCHAR
STARTCHAR odieresis
ENCODING 246
SWIDTH 461 0
DWIDTH 46 0
BBX 38 54 4 0
BITMAP
0038007000
00FC00FC00
00FE01FC00
00FE01FE00
00FE01FE00
00FE01FC00
00FC00FC00
0038007000
0000000000
0000000000
0000000000
0000000000
0000000000
0000000000
0000000000
0000000000
007C7CF800
00FEFDFC00
00FFFFFC00
00FFFFFE00
00FFFFFC00
00FEFCFC00
007C78F800
3800000070
7E000000F8
FE000001FC
FE000001FC
FF000001FC
FE000001FC
7E000001F8
3800000070
3C000000F0
7E000001FC
FE000001FC
FF000001FC
FE000001FC
FE000001FC
7C000000F8
1000000020
7C000000F8
FE000001FC
FE000001FC
FF000001FC
FE000001FC
FE000001FC
7C000000F8
0030303000
007CFCFC00
00FEFFFC00
00FFFFFE00
00FFFFFE00
00FFFFFC00
00FCFCFC00
0078787800
ENDCHAR
STARTCHAR divide
ENCODING 247
SWIDTH 461 0
DWIDTH 46 0
BBX 38 38 4 8
BITMAP
0000780000
0000FC0000
0000FE0000
0001FE0000
0001FE0000
0000FE0000
0000FC0000
0000780000
0000000000
0000000000
0000000000
0000000000
0000000000
0000000000
0000000000
3C38787070
7EFCFCF8F8
FFFEFFFDFC
FFFFFFFDFC
FFFFFFFDFC
FFFEFFFDFC
7EFCFCF8F8
3C38787070
0000000000
0000000000
0000000000
0000000000
0000000000
0000000000
0000000000
0000780000
0000FC0000
0000FE0000
0001FE0000
0001FE0000
0000FE0000
0000FC0000
0000780000
ENDCHAR
STARTCHAR oslash
ENCODING 248
SWIDTH 461 0
DWIDTH 46 0
BBX 38 38 4 0
BITMAP
007C7CF800
00FEFDFC00
00FFFFFC00
00FFFFFE00
00FFFFFC00
00FEFCFC00
007C78F800
3800007070
7E0000FCF8
FE0001FDFC
FE0001FFFC
FF0001FFFC
FE0001FDFC
7E0000FDF8
3800007870
3C007800F0
7E00FC01FC
FE01FE01FC
FF01FE01FC
FE01FE01FC
FE00FE01FC
7C00FC00F8
1000300020
7C7C0000F8
FEFE0001FC
FEFE0001FC
FFFE0001FC
FEFE0001FC
FEFE0001FC
7C7C0000F8
0030303000
007CFCFC00
00FEFFFC00
00FFFFFE00
00FFFFFE00
00FFFFFC00
00FCFCFC00
0078787800
ENDCHAR
STARTCHAR ugrave
ENCODING 249
SWIDTH 461 0
DWIDTH 46 0
BBX 38 62 4 0
BITMAP
0010000000
007C000000
00FE000000
00FE000000
00FE000000
00FE000000
00FE000000
007C000000
0000780000
0000FC0000
0001FE0000
0001FE0000
0001FE0000
0001FE0000
0000FC0000
0000780000
0000000000
0000000000
0000000000
0000000000
0000000000
0000000000
0000000000
0000000000
7C000000F8
FE000001FC
FE000001FC
FF000001FC
FE000001FC
FE000001FC
7C000000F8
3800000070
7E000000F8
FE000001FC
FE000001FC
FF000001FC
FE000001FC
7E000001F8
3800000070
3C000000F0
7E000001FC
FE000001FC
FF000001FC
FE000001FC
FE000001FC
7C000000F8
1000000020
7C0000F8F8
FE0001FDFC
FE0001FDFC
FF0001FFFC
FE0001FDFC
FE0001FDFC
7C0000F8F8
0030300060
007CFC00F8
00FEFE01FC
00FFFE01FC
00FFFE01FC
00FFFE01FC
00FCFC01FC
0078780070
ENDCHAR
STARTCHAR uacute
ENCODING 250
SWIDTH 461 0
DWIDTH 46 0
BBX 38 61 4 0
BITMAP
0000FC0000
0000FC0000
0001FE0000
0001FE0000
0001FE0000
0000FC0000
0000780000
0038000000
00FC000000
00FE000000
00FE000000
00FE000000
00FE000000
00FC000000
0038000000
0000000000
0000000000
0000000000
0000000000
0000000000
0000000000
0000000000
0000000000
7C000000F8
FE000001FC
FE000001FC
FF000001FC
FE000001FC
FE000001FC
7C000000F8
3800000070
7E000000F8
FE000001FC
FE000001FC
FF000001FC
FE000001FC
7E000001F8
3800000070
3C000000F0
7E000001FC
FE000001FC
FF000001FC
FE000001FC
FE000001FC
7C000000F8
1000000020
7C0000F8F8
FE0001FDFC
FE0001FDFC
FF0001FFFC
FE0001FDFC
FE0001FDFC
7C0000F8F8
0030300060
007CFC00F8
00FEFE01FC
00FFFE01FC
00FFFE01FC
00FFFE01FC
00FCFC01FC
0078780070
ENDCHAR
STARTCHAR ucircumflex
ENCODING 251
SWIDTH 461 0
DWIDTH 46 0
BBX 38 61 4 0
BITMAP
0000FC0000
0000FC0000
0001FE0000
0001FE0000
0001FE0000
0000FC0000
0000780000
0038007000
00FC00FC00
00FE01FC00
00FE01FE00
00FE01FE00
00FE01FC00
00FC00FC00
0038007000
0000000000
0000000000
0000000000
0000000000
0000000000
0000000000
0000000000
0000000000
7C000000F8
FE000001FC
FE000001FC
FF000001FC
FE000001FC
FE000001FC
7C000000F8
3800000070
7E000000F8
FE000001FC
FE000001FC
FF000001FC
FE000001FC
7E000001F8
3800000070
3C000000F0
7E000001FC
FE000001FC
FF000001FC
FE000001FC
FE000001FC
7C000000F8
1000000020
7C0000F8F8
FE0001FDFC
FE0001FDFC
FF0001FFFC
FE0001FDFC
FE0001FDFC
7C0000F8F8
0030300060
007CFC00F8
00FEFE01FC
00FFFE01FC
00FFFE01FC
00FFFE01FC
00FCFC01FC
0078780070
ENDCHAR
STARTCHAR udieresis
ENCODING 252
SWIDTH 461 0
DWIDTH 46 0
BBX 38 54 4 0
BITMAP
0038007000
00FC00FC00
00FE01FC00
00FE01FE00
00FE01FE00
00FE01FC00
00FC00FC00
0038007000
0000000000
0000000000
0000000000
0000000000
0000000000
0000000000
0000000000
0000000000
7C000000F8
FE000001FC
FE000001FC
FF000001FC
FE000001FC
FE000001FC
7C000000F8
3800000070
7E000000F8
FE000001FC
FE000001FC
FF000001FC
FE000001FC
7E000001F8
3800000070
3C000000F0
7E000001FC
FE000001FC
FF000001FC
FE000001FC
FE000001FC
7C000000F8
1000000020
7C0000F8F8
FE0001FDFC
FE0001FDFC
FF0001FFFC
FE0001FDFC
FE0001FDFC
7C0000F8F8
0030300060
007CFC00F8
00FEFE01FC
00FFFE01FC
00FFFE01FC
00FFFE01FC
00FCFC01FC
0078780070
ENDCHAR
STARTCHAR ydieresis
ENCODING 255
SWIDTH 461 0
DWIDTH 46 0
BBX 38 69 4 -15
BITMAP
0038007000
00FC00FC00
00FE01FC00
00FE01FE00
00FE01FE00
00FE01FC00
00FC00FC00
0038007000
0000000000
0000000000
0000000000
0000000000
0000000000
0000000000
0000000000
0000000000
7C000000F8
FE000001FC
FE000001FC
FF000001FC
FE000001FC
FE000001FC
7C000000F8
3800000070
7E000000F8
FE000001FC
FE000001FC
FF000001FC
FE000001FC
7E000001F8
3800000070
3C000000F0
7E000001FC
FE000001FC
FF000001FC
FE000001FC
FE000001FC
7C000000F8
1000000020
7C000000F8
FE000001FC
FE000001FC
FF000001FC
FE000001FC
FE000001FC
7C000000F8
0030303060
007CFCFCF8
00FEFFFDFC
00FFFFFFFC
00FFFFFFFC
00FFFFFDFC
00FCFCFDFC
0078787870
0000000070
00000001F8
00000001FC
00000001FC
00000001FC
00000001FC
00000000F8
0000000070
007C78F800
00FEFDFC00
00FFFFFC00
00FFFFFE00
00FFFFFC00
00FEFDFC00
007C7CF800
ENDCHAR
STARTCHAR dotlessi
ENCODING 305
SWIDTH 461 0
DWIDTH 46 0
BBX 24 39 11 -1
BITMAP
3C3C00
7E7E00
FF7F00
FF7F00
FF7F00
7E7E00
3C3E00
000000
003C00
007E00
007F00
007F00
007F00
007E00
001C00
000000
003C00
007E00
007F00
007F00
007F00
003E00
000800
000000
003C00
007E00
007F00
007F00
007F00
003E00
000000
000000
3C3C3C
7E7E7E
FF7F7F
FF7FFF
FF7F7F
7E7E7E
3C3C3C
ENDCHAR
STARTCHAR OE
ENCODING 338
SWIDTH 538 0
DWIDTH 54 0
BBX 46 54 4 0
BITMAP
003878707070
00FCFCFCF9F8
00FFFFFDFDFC
00FFFFFFFFFC
00FFFFFFFFFC
00FFFFFDFDFC
00FCFCFDF9F8
003878707070
7C0000780000
FE0000FC0000
FE0001FC0000
FF0001FE0000
FE0001FE0000
FE0001FC0000
7C0000F80000
000000000000
7C0000F80000
FE0001FC0000
FE0001FC0000
FF0001FE0000
FE0001FC0000
FE0000FC0000
7C0000F80000
380000707000
7E0000FCF800
FE0001FDFC00
FE0001FFFC00
FF0001FFFC00
FE0001FDFC00
7E0000FDF800
380000787000
3C0000780000
7E0000FC0000
FE0001FC0000
FF0001FE0000
FE0001FE0000
FE0001FC0000
7C0000FC0000
100000200000
7C0000F80000
FE0001FC0000
FE0001FC0000
FF0001FE0000
FE0001FC0000
FE0001FC0000
7C0000F80000
003030306060
007CFCFCF9F8
00FEFFFDFDFC
00FFFFFFFFFC
00FFFFFFFFFC
00FFFFFDFDFC
00FCFCFDFDF8
0078787870F0
ENDCHAR
STARTCHAR oe
ENCODING 339
SWIDTH 461 0
DWIDTH 46 0
BBX 38 38 4 0
BITMAP
007C00F800
00FE01FC00
00FE01FC00
00FE01FE00
00FE01FC00
00FE00FC00
007C00F800
3800300070
7E00FC00F8
FE00FE01FC
FE01FE01FC
FF01FE01FC
FE01FE01FC
7E00FC01F8
3800780070
3C007878F0
7E00FCFDFC
FE01FFFDFC
FF01FFFFFC
FE01FFFFFC
FE00FFFDFC
7C00FCFCF8
1000302020
7C007C0000
FE00FC0000
FE01FE0000
FF01FE0000
FE01FE0000
FE00FC0000
7C00780000
0030003060
007C00FCF8
00FE01FDFC
00FE01FFFC
00FE01FFFC
00FE01FDFC
00FC00FDFC
0078007870
ENDCHAR
STARTCHAR Ydieresis
ENCODING 376
SWIDTH 461 0
DWIDTH 46 0
BBX 38 69 4 0
BITMAP
007C00F800
00FE00FC00
00FE01FC00
00FE01FE00
00FE01FE00
00FE01FC00
007C00F800
0000000000
0000000000
0000000000
0000000000
0000000000
0000000000
0000000000
0000000000
3800000070
7E000000F8
FE000001FC
FE000001FC
FF000001FC
FE000001FC
7E000001F8
3800000070
7C000000F8
FE000001FC
FE000001FC
FF000001FC
FE000001FC
FE000001FC
7C000000F8
0000000020
007C00F800
00FE01FC00
00FE01FC00
00FE01FE00
00FE01FC00
00FE00FC00
007C00F800
0000300000
0000FC0000
0000FE0000
0001FE0000
0001FE0000
0001FE0000
0000FC0000
0000780000
0000780000
0000FC0000
0001FE0000
0001FE0000
0001FE0000
0000FE0000
0000FC0000
0000300000
00007C0000
0000FC0000
0001FE0000
0001FE0000
0001FE0000
0000FC0000
0000780000
0000300000
0000FC0000
0000FE0000
0001FE0000
0001FE0000
0001FE0000
0000FC0000
0000780000
ENDCHAR
STARTCHAR Zcaron
ENCODING 381
SWIDTH 461 0
DWIDTH 46 0
BBX 38 69 4 0
BITMAP
007C00F800
00FE00FC00
00FE01FC00
00FE01FE00
00FE01FE00
00FE01FC00
007C00F800
0000000000
0000FC0000
0000FC0000
0001FE0000
0001FE0000
0001FE0000
0000FC0000
0000780000
3838787070
7EFCFCFCF8
FEFFFFFDFC
FEFFFFFFFC
FFFFFFFFFC
FEFFFFFDFC
7EFCFCFDF8
3838787070
00000000F8
00000001FC
00000001FC
00000001FC
00000001FC
00000001FC
00000000F8
0000000020
000000F800
000001FC00
000001FC00
000001FE00
000001FC00
000000FC00
000000F800
0000300000
0000FC0000
0000FE0000
0001FE0000
0001FE0000
0001FE0000
0000FC0000
0000780000
0078000000
00FC000000
00FE000000
00FE000000
00FE000000
00FE000000
007C000000
0010000000
7C00000000
FE00000000
FE00000000
FF00000000
FE00000000
FE00000000
7C00000000
1830303060
7C7CFCFCF8
FEFEFFFDFC
FEFFFFFFFC
FFFFFFFFFC
FEFFFFFDFC
7EFCFCFDFC
3C78787870
ENDCHAR
STARTCHAR zcaron
ENCODING 382
SWIDTH 461 0
DWIDTH 46 0
BBX 38 62 4 0
BITMAP
0010000000
007C00F800
00FE01FC00
00FE01FE00
00FE01FE00
00FE01FC00
00FE00FC00
007C007800
0000780000
0000FC0000
0001FE0000
0001FE0000
0001FE0000
0001FE0000
0000FC0000
0000780000
0000000000
0000000000
0000000000
0000000000
0000000000
0000000000
0000000000
0000000000
7C7C7CF8F8
FEFEFDFDFC
FEFFFFFDFC
FFFFFFFFFC
FEFFFFFDFC
FEFEFCFDFC
7C7C78F8F8
0000007000
000000FC00
000001FC00
000001FE00
000001FE00
000001FC00
000000FC00
0000007800
0000780000
0000FC0000
0001FE0000
0001FE0000
0001FE0000
0000FE0000
0000FC0000
0000300000
007C000000
00FE000000
00FE000000
00FE000000
00FE000000
00FE000000
007C000000
1830303060
7C7CFCFCF8
FEFEFFFDFC
FEFFFFFFFC
FFFFFFFFFC
FEFFFFFDFC
7EFCFCFDFC
3C78787870
ENDCHAR
STARTCHAR florin
ENCODING 402
SWIDTH 461 0
DWIDTH 46 0
BBX 38 84 4 -15
BITMAP
000000F8F8
000000FDFC
000001FDFC
000001FFFC
000001FFFC
000001FDFC
000000F8F8
0000000000
0000FC0000
0000FC0000
0001FE0000
0001FE0000
0001FE0000
0000FC0000
0000780000
0000780000
0000FC0000
0001FE0000
0001FE0000
0001FE0000
0001FE0000
0000FC0000
0000780000
0000780000
0000FC0000
0001FE0000
0001FE0000
0001FE0000
0000FC0000
0000FC0000
0000000000
007C7CF800
00FEFDFC00
00FFFFFC00
00FFFFFE00
00FFFFFC00
00FEFCFC00
007C78F800
0000300000
0000FC0000
0000FE0000
0001FE0000
0001FE0000
0001FE0000
0000FC0000
0000780000
0000780000
0000FC0000
0001FE0000
0001FE0000
0001FE0000
0000FE0000
0000FC0000
0000300000
00007C0000
0000FC0000
0001FE0000
0001FE0000
0001FE0000
0000FC0000
0000780000
0000300000
0000FC0000
0000FE0000
0001FE0000
0001FE0000
0001FE0000
0000FC0000
0000780000
0000780000
0000FC0000
0001FE0000
0001FE0000
0001FE0000
0000FE0000
0000FC0000
0000300000
7C7C000000
FEFE000000
FEFE000000
FFFE000000
FEFE000000
FEFE000000
7C7C000000
ENDCHAR
STARTCHAR circumflex
ENCODING 710
SWIDTH 461 0
DWIDTH 46 0
BBX 23 15 11 54
BITMAP
003800
007C00
00FE00
00FE00
00FE00
007C00
003800
000000
7C007C
FE00FE
FF01FE
FF01FE
FF00FE
7E00FC
3C0078
ENDCHAR
STARTCHAR caron
ENCODING 711
SWIDTH 461 0
DWIDTH 46 0
BBX 24 16 11 38
BITMAP
3C003C
7E007E
FF007F
FF00FF
FF00FF
FF007F
7E007E
3C003C
003C00
007E00
007F00
007F00
007F00
007F00
007E00
001C00
ENDCHAR
STARTCHAR macron.dup1
ENCODING 713
SWIDTH 461 0
DWIDTH 46 0
BBX 24 8 11 46
BITMAP
3C1C3C
7E7E7E
FF7F7F
FF7FFF
FF7FFF
FF7F7F
7E7E7E
3C1C3C
ENDCHAR
STARTCHAR breve
ENCODING 728
SWIDTH 461 0
DWIDTH 46 0
BBX 32 16 10 38
BITMAP
3C00003C
7E00007E
FF0000FF
FF0000FF
FF0000FF
FF0000FF
7E00007E
3C00003C
003C3C00
007E7E00
007F7F00
007FFF00
007FFF00
007F7F00
007E7E00
001C3C00
ENDCHAR
STARTCHAR dotaccent
ENCODING 729
SWIDTH 461 0
DWIDTH 46 0
BBX 16 16 18 46
BITMAP
3C1C
7E7E
FF7F
FF7F
FF7F
FF7F
7E7E
3C1C
3C1C
7E7E
FF7F
FF7F
FF7F
FF7F
7E7E
3C1C
ENDCHAR
STARTCHAR ring
ENCODING 730
SWIDTH 461 0
DWIDTH 46 0
BBX 23 24 11 38
BITMAP
003800
007C00
00FE00
00FE00
00FE00
00FE00
007C00
003800
3C0078
7E00FC
FE00FE
FF01FE
FF01FE
FE00FE
7E00FC
3C0078
003800
007C00
00FE00
00FE00
00FE00
00FE00
007C00
003800
ENDCHAR
STARTCHAR ogonek
ENCODING 731
SWIDTH 461 0
DWIDTH 46 0
BBX 24 23 19 -15
BITMAP
3C0000
7E0000
FF0000
FF0000
FF0000
FF0000
FF0000
7E0000
3C003C
7E007E
FF00FF
FF00FF
FF00FF
7E007E
3C003C
000000
007C00
00FE00
00FE00
00FE00
00FE00
00FE00
003800
ENDCHAR
STARTCHAR tilde
ENCODING 732
SWIDTH 461 0
DWIDTH 46 0
BBX 39 15 4 54
BITMAP
0038780078
007CFC00FC
00FEFE01FE
00FFFE01FE
00FEFE01FE
007CFC00FC
0038780078
0000000000
7C007CFC00
FE00FFFC00
FF01FFFE00
FF01FFFE00
FE00FFFE00
7E00FCFC00
3C00787800
ENDCHAR
STARTCHAR hungarumlaut
ENCODING 733
SWIDTH 384 0
DWIDTH 38 0
BBX 31 16 4 46
BITMAP
00380078
007E00FC
00FE01FE
00FE01FE
00FE01FE
00FE01FE
007E00FC
003C0078
3C003800
7E007C00
FE00FE00
FF00FE00
FF00FE00
FE00FE00
7E007C00
3C003800
ENDCHAR
STARTCHAR Delta
ENCODING 916
SWIDTH 461 0
DWIDTH 46 0
BBX 38 46 4 0
BITMAP
0000780000
0000FC0000
0001FE0000
0001FE0000
0001FE0000
0000FC0000
0000FC0000
0000000000
00007C0000
0000FC0000
0001FE0000
0001FE0000
0001FE0000
0000FC0000
0000780000
0038007000
00FC00FC00
00FE01FC00
00FE01FE00
00FE01FE00
00FE01FC00
00FC00FC00
0038007800
0078007800
00FC00FC00
00FE01FC00
00FE01FE00
00FE01FE00
00FE01FC00
007C00FC00
0010002000
7C000000F8
FE000001FC
FE000001FC
FF000001FC
FE000001FC
FE000001FC
7C000000F8
1830303060
7C7CFCFCF8
FEFEFFFDFC
FEFFFFFFFC
FFFFFFFFFC
FEFFFFFDFC
7EFCFCFDFC
3C78787870
ENDCHAR
STARTCHAR Omega
ENCODING 937
SWIDTH 461 0
DWIDTH 46 0
BBX 38 54 4 0
BITMAP
0038787000
00FCFCFC00
00FFFFFC00
00FFFFFE00
00FFFFFE00
00FFFFFC00
00FCFCFC00
0038787000
7C000000F8
FE000001FC
FE000001FC
FF000001FC
FE000001FC
FE000001FC
7C000000F8
0000000020
7C000000F8
FE000001FC
FE000001FC
FF000001FC
FE000001FC
FE000001FC
7C000000F8
3800000070
7E000000F8
FE000001FC
FE000001FC
FF000001FC
FE000001FC
7E000001F8
3800000070
3C000000F0
7E000001FC
FE000001FC
FF000001FC
FE000001FC
FE000001FC
7C000000F8
1000000020
007C00F800
00FE01FC00
00FE01FC00
00FE01FE00
00FE01FC00
00FE01FC00
007C00F800
1830003060
7C7C00FCF8
FEFE01FDFC
FEFE01FFFC
FFFE01FFFC
FEFE01FDFC
7EFC00FDFC
3C78007870
ENDCHAR
STARTCHAR mu.dup2
ENCODING 956
SWIDTH 461 0
DWIDTH 46 0
BBX 38 53 4 -15
BITMAP
7C0000F800
FE0001FC00
FE0001FC00
FF0001FE00
FE0001FC00
FE0000FC00
7C0000F800
3800007000
7E0000FC00
FE0001FC00
FE0001FE00
FF0001FE00
FE0001FC00
7E0000FC00
3800007800
3C00007800
7E0000FC00
FE0001FC00
FF0001FE00
FE0001FE00
FE0001FC00
7C0000FC00
1000002000
7C0000F800
FE0001FC00
FE0001FC00
FF0001FE00
FE0001FC00
FE0001FC00
7C0000F800
1830303000
7C7CFCFC00
FEFEFFFC00
FEFFFFFE00
FFFFFFFE00
FEFFFFFC00
7EFCFCFC00
3C78787800
3C00000070
7E000001F8
FE000001FC
FF000001FC
FE000001FC
FE000001FC
7E000000F8
1800000070
7C00000000
FE00000000
FE00000000
FF00000000
FE00000000
FE00000000
7C00000000
ENDCHAR
STARTCHAR pi
ENCODING 960
SWIDTH 461 0
DWIDTH 46 0
BBX 38 31 4 0
BITMAP
3838307070
7EFCFCFCF8
FEFEFFFDFC
FEFFFFFFFC
FFFFFFFFFC
FEFFFFFDFC
7EFCFCFDF8
3838787870
0078007800
00FC00FC00
00FE01FC00
00FE01FE00
00FE01FE00
00FE01FC00
007C00FC00
0010002000
007C00F800
00FE01FC00
00FE01FC00
00FE01FE00
00FE01FC00
00FE01FC00
007C00F800
0030003000
007C00FC00
00FE01FC00
00FE01FE00
00FE01FE00
00FE01FC00
00FC00FC00
0078007800
ENDCHAR
STARTCHAR hyphen.dup3
ENCODING 8208
SWIDTH 307 0
DWIDTH 31 0
BBX 24 7 3 31
BITMAP
3C3C3C
7E7E7E
FF7F7F
FF7FFF
FF7F7F
7E7E7E
3C3C3C
ENDCHAR
STARTCHAR endash
ENCODING 8211
SWIDTH 461 0
DWIDTH 46 0
BBX 24 7 11 31
BITMAP
3C3C3C
7E7E7E
FF7F7F
FF7FFF
FF7F7F
7E7E7E
3C3C3C
ENDCHAR
STARTCHAR emdash
ENCODING 8212
SWIDTH 461 0
DWIDTH 46 0
BBX 47 7 3 31
BITMAP
3C3C3C3C7878
7E7E7E7EFCFC
FF7F7FFFFEFE
FF7FFFFFFFFE
FF7F7FFFFEFE
7E7E7E7EFCFC
3C3C3C3C7878
ENDCHAR
STARTCHAR quoteleft
ENCODING 8216
SWIDTH 461 0
DWIDTH 46 0
BBX 16 23 19 31
BITMAP
003C
007E
00FF
00FF
00FF
007E
003C
0000
3C00
7E00
FF00
FF00
FF00
7E00
3C00
0000
3C3C
7E7E
FFFF
FFFF
FFFF
7E7E
3C3C
ENDCHAR
STARTCHAR quoteright
ENCODING 8217
SWIDTH 461 0
DWIDTH 46 0
BBX 16 23 11 31
BITMAP
3C3C
7E7E
FF7F
FF7F
FF7F
7E7E
3C3C
0000
003C
007E
007F
007F
007F
007E
003C
0000
3C00
7E00
FF00
FF00
FF00
7E00
3C00
ENDCHAR
STARTCHAR quotesinglbase
ENCODING 8218
SWIDTH 461 0
DWIDTH 46 0
BBX 16 23 12 -8
BITMAP
3C3C
7E7E
FEFF
FFFF
FFFF
FEFF
7E7E
3C3C
007E
00FE
00FF
00FF
00FF
00FF
007E
3C3C
7E00
FE00
FF00
FF00
FE00
7E00
3C00
ENDCHAR
STARTCHAR quotedblleft
ENCODING 8220
SWIDTH 461 0
DWIDTH 46 0
BBX 32 23 11 31
BITMAP
003C003C
007E007E
00FE00FF
00FE00FF
00FE00FF
007E007E
003C003C
00000000
3C007C00
7E007E00
FF00FE00
FF00FE00
FF00FE00
7E007C00
3C003800
00000000
3C003800
7E007C00
FF00FE00
FF00FE00
FF00FE00
7E007C00
3C003800
ENDCHAR
STARTCHAR quotedblright
ENCODING 8221
SWIDTH 461 0
DWIDTH 46 0
BBX 32 23 5 31
BITMAP
003C003C
007E007E
00FE00FF
00FE00FF
00FE00FF
007E007E
003C003C
00000000
003C003C
007E007E
00FE00FF
00FE00FF
00FE00FF
007E007E
003C003C
00000000
3C003800
7E007C00
FF00FE00
FF00FE00
FF00FE00
7E007C00
3C003800
ENDCHAR
STARTCHAR quotedblbase
ENCODING 8222
SWIDTH 461 0
DWIDTH 46 0
BBX 32 23 5 -8
BITMAP
0038003C
007E007E
00FE00FF
00FE00FF
00FE00FF
00FE00FF
007E007E
003C003C
007C007E
00FE00FE
00FE00FF
00FE00FF
00FE00FF
00FE00FF
007E007E
3C38383C
7E007C00
FE00FE00
FF00FE00
FF00FE00
FE00FE00
7E007C00
3C003800
ENDCHAR
STARTCHAR dagger
ENCODING 8224
SWIDTH 461 0
DWIDTH 46 0
BBX 23 39 11 23
BITMAP
003800
007C00
00FE00
00FE00
00FE00
007C00
003800
000000
3C3878
7E7CFC
FFFEFE
FFFFFE
FFFEFE
7E7CFC
3C3878
000000
007800
007C00
00FE00
00FE00
00FE00
007C00
003800
000000
003800
007C00
00FE00
00FE00
00FE00
007C00
003800
003800
007C00
00FE00
00FE00
00FE00
00FE00
007C00
003800
ENDCHAR
STARTCHAR daggerdbl
ENCODING 8225
SWIDTH 461 0
DWIDTH 46 0
BBX 23 62 12 -8
BITMAP
007800
00FC00
01FE00
01FE00
01FE00
01FE00
00FC00
007800
007800
00FC00
01FE00
01FE00
01FE00
00FC00
00FC00
000000
7C7CF8
FEFDFC
FFFFFC
FFFFFE
FFFFFC
FEFCFC
7C78F8
003000
00FC00
00FE00
01FE00
01FE00
01FE00
00FC00
007800
007800
00FC00
01FE00
01FE00
01FE00
00FE00
00FC00
003000
7C7CF8
FEFDFC
FFFFFC
FFFFFE
FFFFFC
FEFDFC
7C78F8
003000
00FC00
00FE00
01FE00
01FE00
01FE00
00FC00
007800
007800
00FC00
01FE00
01FE00
01FE00
00FE00
00FC00
003000
ENDCHAR
STARTCHAR bullet
ENCODING 8226
SWIDTH 461 0
DWIDTH 46 0
BBX 38 39 4 15
BITMAP
0038787000
00FCFCFC00
00FFFFFC00
00FFFFFE00
00FFFFFE00
00FFFFFC00
00FCFCFC00
0038787000
7C7C7878F8
FEFEFCFDFC
FEFFFFFDFC
FFFFFFFFFC
FEFFFFFFFC
FEFEFDFDFC
7C7CFCF8F8
0010000020
7C7C7CF8F8
FEFEFDFDFC
FEFFFFFDFC
FFFFFFFFFC
FEFFFFFDFC
FEFEFCFDFC
7C7C78F8F8
3838307070
7EFCFCFCF8
FEFEFFFDFC
FEFFFFFFFC
FFFFFFFFFC
FEFFFFFDFC
7EFCFCFDF8
3838787870
0078787800
00FCFCFC00
00FFFFFC00
00FFFFFE00
00FFFFFE00
00FEFFFC00
007CFCFC00
0010302000
ENDCHAR
STARTCHAR ellipsis
ENCODING 8230
SWIDTH 461 0
DWIDTH 46 0
BBX 38 9 4 -1
BITMAP
3C007800F0
7E00FC01F8
FF01FE03FC
FF01FE03FC
FF01FE03FC
FF01FE03FC
FF01FE03FC
7E00FC01F8
3C007800F0
ENDCHAR
STARTCHAR perthousand
ENCODING 8240
SWIDTH 615 0
DWIDTH 62 0
BBX 54 54 4 0
BITMAP
00387870700000
00FCFCFCF80000
00FFFFFDFC0000
00FFFFFFFC0000
00FFFFFFFC0000
00FFFFFDFC0000
00FCFCFDF80000
00387870700000
7C007800F80000
FE00FC01FC0000
FE01FE01FC0000
FF01FE01FC0000
FE01FE01FC0000
FE00FC01FC0000
7C00FC00F80000
00000000200000
7C007CF8000000
FE00FDFC000000
FE01FFFC000000
FF01FFFE000000
FE01FFFC000000
FE00FCFC000000
7C0078F8000000
00380070007000
00FC00FC01F800
00FE01FC01FC00
00FE01FE03FC00
00FE01FE03FC00
00FE01FC01FC00
00FC00FC01F800
0038007800F000
00787800F000F0
00FCFC01FC01F8
00FFFE01FC03F8
00FFFE01FC03FC
00FFFE01FC03FC
00FEFE01FC03F8
007CFC00F801F8
00103000200040
7C007C00F801F0
FE00FC01FC03F8
FE01FE01FC03FC
FF01FE01FC03FC
FE01FE01FC03FC
FE00FC01FC01F8
7C007800F801F0
18000030006000
7C0000FC01F800
FE0001FC01FC00
FE0001FE03FC00
FF0001FE03FC00
FE0001FC01FC00
7E0000FC01F800
3C00007800F000
ENDCHAR
STARTCHAR guilsinglleft
ENCODING 8249
SWIDTH 461 0
DWIDTH 46 0
BBX 16 23 12 23
BITMAP
003C
007E
00FF
00FF
00FF
00FF
007E
0000
3C00
7E00
FF00
FF00
FF00
7E00
7C00
0000
003C
007E
00FF
00FF
00FF
007E
003C
ENDCHAR
STARTCHAR guilsinglright
ENCODING 8250
SWIDTH 461 0
DWIDTH 46 0
BBX 16 23 18 23
BITMAP
3C00
7E00
FF00
FF00
FF00
7E00
3C00
0000
003C
007E
007F
007F
007F
007E
003C
1800
7E00
FF00
FF00
FF00
FF00
7E00
3C00
ENDCHAR
STARTCHAR fraction
ENCODING 8260
SWIDTH 461 0
DWIDTH 46 0
BBX 32 62 4 -8
BITMAP
0000003C
0000007E
000000FF
000000FF
000000FF
000000FF
0000007E
0000003C
0000003C
0000007E
000000FF
000000FF
000000FF
000000FF
0000007E
00000000
00003C00
00007E00
00007F00
0000FF00
0000FF00
00007E00
00003E00
00000000
00003C00
00007E00
00007F00
0000FF00
00007F00
00007E00
00003C00
00000000
003C0000
007E0000
007F0000
007F0000
007F0000
003E0000
00080000
00000000
003C0000
007E0000
007F0000
007F0000
007F0000
003E0000
00000000
00000000
3C000000
7E000000
FF000000
FF000000
FF000000
7E000000
3C000000
00000000
3C000000
7E000000
FF000000
FF000000
FE000000
3C000000
ENDCHAR
STARTCHAR trademark
ENCODING 8482
SWIDTH 538 0
DWIDTH 54 0
BBX 46 23 4 31
BITMAP
383878700070
7EFCFCFC01F8
FEFFFFFC01FC
FEFFFFFE03FC
FFFFFFFE03FC
FEFFFFFC01FC
7EFCFCFC01F8
383878700070
007C0078F8F0
00FE00FDFDF8
00FE01FDFFFC
00FE01FFFFFC
00FE01FFFFFC
00FE01FDFDFC
007C00F8F9F8
001000002000
007C00F8F8F8
00FE01FDFDFC
00FE01FDFFFC
00FE01FFFFFC
00FE01FDFFFC
00FE00FDFDF8
007C00F8F8F0
ENDCHAR
STARTCHAR Omega.dup4
ENCODING 8486
SWIDTH 461 0
DWIDTH 46 0
BBX 38 54 4 0
BITMAP
0038787000
00FCFCFC00
00FFFFFC00
00FFFFFE00
00FFFFFE00
00FFFFFC00
00FCFCFC00
0038787000
7C000000F8
FE000001FC
FE000001FC
FF000001FC
FE000001FC
FE000001FC
7C000000F8
0000000020
7C000000F8
FE000001FC
FE000001FC
FF000001FC
FE000001FC
FE000001FC
7C000000F8
3800000070
7E000000F8
FE000001FC
FE000001FC
FF000001FC
FE000001FC
7E000001F8
3800000070
3C000000F0
7E000001FC
FE000001FC
FF000001FC
FE000001FC
FE000001FC
7C000000F8
1000000020
007C00F800
00FE01FC00
00FE01FC00
00FE01FE00
00FE01FC00
00FE01FC00
007C00F800
1830003060
7C7C00FCF8
FEFE01FDFC
FEFE01FFFC
FFFE01FFFC
FEFE01FDFC
7EFC00FDFC
3C78007870
ENDCHAR
STARTCHAR partialdiff
ENCODING 8706
SWIDTH 461 0
DWIDTH 46 0
BBX 31 54 11 0
BITMAP
1C000000
7E000000
7F000000
FF000000
FF000000
7F000000
7E000000
1C000000
003C0000
007E0000
00FF0000
00FF0000
00FF0000
007E0000
007E0000
00000000
00007C00
0000FE00
0000FE00
0000FF00
0000FE00
00007E00
00007C00
00180038
007E007C
007F00FE
00FF00FE
00FF00FE
00FF00FE
007E00FC
003C0038
3C000078
7E0000FE
7F0000FE
7F0000FE
7F0000FE
7F0000FE
3E00007C
08000010
3E00007C
7F0000FE
7F0000FE
7F0000FE
7F0000FE
7F0000FE
3E00007C
00181800
007E7E00
007FFE00
00FFFF00
00FFFF00
00FFFE00
007E7E00
003C3C00
ENDCHAR
STARTCHAR Delta.dup5
ENCODING 8710
SWIDTH 461 0
DWIDTH 46 0
BBX 38 46 4 0
BITMAP
0000780000
0000FC0000
0001FE0000
0001FE0000
0001FE0000
0000FC0000
0000FC0000
0000000000
00007C0000
0000FC0000
0001FE0000
0001FE0000
0001FE0000
0000FC0000
0000780000
0038007000
00FC00FC00
00FE01FC00
00FE01FE00
00FE01FE00
00FE01FC00
00FC00FC00
0038007800
0078007800
00FC00FC00
00FE01FC00
00FE01FE00
00FE01FE00
00FE01FC00
007C00FC00
0010002000
7C000000F8
FE000001FC
FE000001FC
FF000001FC
FE000001FC
FE000001FC
7C000000F8
1830303060
7C7CFCFCF8
FEFEFFFDFC
FEFFFFFFFC
FFFFFFFFFC
FEFFFFFDFC
7EFCFCFDFC
3C78787870
ENDCHAR
STARTCHAR product
ENCODING 8719
SWIDTH 461 0
DWIDTH 46 0
BBX 38 54 4 0
BITMAP
3838787070
7EFCFCFCF8
FEFFFFFDFC
FEFFFFFFFC
FFFFFFFFFC
FEFFFFFDFC
7EFCFCFDF8
3838787070
007C007800
00FE00FC00
00FE01FC00
00FE01FE00
00FE01FE00
00FE01FC00
007C00F800
0010000000
007C00F800
00FE01FC00
00FE01FC00
00FE01FE00
00FE01FC00
00FE00FC00
007C00F800
0038007000
00FC00FC00
00FE01FC00
00FE01FE00
00FE01FE00
00FE01FC00
00FC00FC00
0038007800
0078007800
00FC00FC00
00FE01FC00
00FE01FE00
00FE01FE00
00FE01FC00
007C00FC00
0010002000
007C00F800
00FE01FC00
00FE01FC00
00FE01FE00
00FE01FC00
00FE01FC00
007C00F800
0030003000
007C00FC00
00FE01FC00
00FE01FE00
00FE01FE00
00FE01FC00
00FC00FC00
0078007800
ENDCHAR
STARTCHAR summation
ENCODING 8721
SWIDTH 461 0
DWIDTH 46 0
BBX 38 54 4 0
BITMAP
3838787070
7EFCFCFCF8
FEFFFFFDFC
FEFFFFFFFC
FFFFFFFFFC
FEFFFFFDFC
7EFCFCFDF8
3838787070
007C0000F8
00FE0001FC
00FE0001FC
00FE0001FC
00FE0001FC
00FE0001FC
007C0000F8
0010000020
00007C0000
0000FC0000
0001FE0000
0001FE0000
0001FE0000
0000FC0000
0000780000
0000007000
000000FC00
000001FC00
000001FE00
000001FE00
000001FC00
000000FC00
0000007800
0000780000
0000FC0000
0001FE0000
0001FE0000
0001FE0000
0000FE0000
0000FC0000
0000300000
007C0000F8
00FE0001FC
00FE0001FC
00FE0001FC
00FE0001FC
00FE0001FC
007C0000F8
1830303060
7C7CFCFCF8
FEFEFFFDFC
FEFFFFFFFC
FFFFFFFFFC
FEFFFFFDFC
7EFCFCFDFC
3C78787870
ENDCHAR
STARTCHAR minus.dup6
ENCODING 8722
SWIDTH 461 0
DWIDTH 46 0
BBX 24 7 11 31
BITMAP
3C3C3C
7E7E7E
FF7F7F
FF7FFF
FF7F7F
7E7E7E
3C3C3C
ENDCHAR
STARTCHAR periodcentered.dup7
ENCODING 8729
SWIDTH 230 0
DWIDTH 23 0
BBX 16 15 3 23
BITMAP
3C3C
7E7E
FF7F
FF7F
FF7F
7E7E
3C3C
181C
7E3E
FF7F
FF7F
FF7F
FF7F
7E7E
3C1C
ENDCHAR
STARTCHAR radical
ENCODING 8730
SWIDTH 461 0
DWIDTH 46 0
BBX 38 47 4 -1
BITMAP
0000007070
000000F9F8
000001FDFC
000001FDFC
000001FDFC
000001FDFC
000000F8F8
0000002020
0000007000
000000F800
000001FC00
000001FC00
000001FC00
000000FC00
000000F800
0000000000
0000780000
0000FC0000
0000FE0000
0001FE0000
0000FE0000
0000FC0000
0000780000
0000000000
3C00780000
7E00FC0000
FF00FE0000
FF01FE0000
FF00FE0000
7E00FC0000
3C00780000
007C000000
00FC000000
00FE000000
00FE000000
00FE000000
00FE000000
00FC000000
0038000000
007C000000
00FE000000
00FE000000
00FE000000
00FE000000
00FE000000
007C000000
0038000000
ENDCHAR
STARTCHAR infinity
ENCODING 8734
SWIDTH 461 0
DWIDTH 46 0
BBX 38 23 4 15
BITMAP
7C7C00F8F8
FEFE01FDFC
FEFE01FDFC
FFFE01FFFC
FEFE01FDFC
FEFE00FDFC
7C7C00F8F8
3800300070
7E00FC00F8
FE00FE01FC
FE01FE01FC
FF01FE01FC
FE01FE01FC
7E00FC01F8
3800780070
3C780078F0
7EFC00FDFC
FEFE01FDFC
FFFE01FFFC
FEFE01FFFC
FEFE01FDFC
7C7C00FCF8
1010002020
ENDCHAR
STARTCHAR integral
ENCODING 8747
SWIDTH 461 0
DWIDTH 46 0
BBX 38 84 4 -15
BITMAP
000000F8F8
000000FDFC
000001FDFC
000001FFFC
000001FFFC
000001FDFC
000000F8F8
0000000000
0000FC0000
0000FC0000
0001FE0000
0001FE0000
0001FE0000
0000FC0000
0000780000
0000780000
0000FC0000
0001FE0000
0001FE0000
0001FE0000
0001FE0000
0000FC0000
0000780000
0000780000
0000FC0000
0001FE0000
0001FE0000
0001FE0000
0000FC0000
0000FC0000
0000000000
00007C0000
0000FC0000
0001FE0000
0001FE0000
0001FE0000
0000FC0000
0000780000
0000300000
0000FC0000
0000FE0000
0001FE0000
0001FE0000
0001FE0000
0000FC0000
0000780000
0000780000
0000FC0000
0001FE0000
0001FE0000
0001FE0000
0000FE0000
0000FC0000
0000300000
00007C0000
0000FC0000
0001FE0000
0001FE0000
0001FE0000
0000FC0000
0000780000
0000300000
0000FC0000
0000FE0000
0001FE0000
0001FE0000
0001FE0000
0000FC0000
0000780000
0000780000
0000FC0000
0001FE0000
0001FE0000
0001FE0000
0000FE0000
0000FC0000
0000300000
7C7C000000
FEFE000000
FEFE000000
FFFE000000
FEFE000000
FEFE000000
7C7C000000
ENDCHAR
STARTCHAR approxequal
ENCODING 8776
SWIDTH 461 0
DWIDTH 46 0
BBX 38 38 4 8
BITMAP
007C7800F8
00FEFC01FC
00FFFE01FC
00FFFE01FC
00FFFE01FC
00FEFC01FC
007CFC00F8
0010000020
7C007CF800
FE00FDFC00
FE01FFFC00
FF01FFFE00
FE01FFFC00
FE00FCFC00
7C0078F800
0000000000
0000000000
0000000000
0000000000
0000000000
0000000000
0000000000
0000000000
00787800F0
00FCFC01FC
00FFFE01FC
00FFFE01FC
00FFFE01FC
00FEFE01FC
007CFC00F8
0010300020
7C007CF800
FE00FDFC00
FE01FFFC00
FF01FFFE00
FE01FFFC00
FE00FDFC00
7C0078F800
ENDCHAR
STARTCHAR notequal
ENCODING 8800
SWIDTH 461 0
DWIDTH 46 0
BBX 38 38 4 0
BITMAP
000000F800
000001FC00
000001FC00
000001FE00
000001FC00
000000FC00
000000F800
3838307070
7EFCFCFCF8
FEFEFFFDFC
FEFFFFFFFC
FFFFFFFFFC
FEFFFFFDFC
7EFCFCFDF8
3838787870
0000780000
0000FC0000
0001FE0000
0001FE0000
0001FE0000
0000FE0000
0000FC0000
0000300000
7C7C7CF8F8
FEFEFDFDFC
FEFFFFFDFC
FFFFFFFFFC
FEFFFFFDFC
FEFEFDFDFC
7C7C78F8F8
0030000000
007C000000
00FE000000
00FE000000
00FE000000
00FE000000
00FC000000
0078000000
ENDCHAR
STARTCHAR lessequal
ENCODING 8804
SWIDTH 461 0
DWIDTH 46 0
BBX 23 55 11 -1
BITMAP
000078
0000FC
0000FE
0001FE
0001FE
0000FE
0000FC
000038
003800
007C00
00FE00
00FE00
00FE00
00FE00
007C00
001000
3C0000
7E0000
FF0000
FF0000
FF0000
7E0000
7C0000
000000
003800
007C00
00FE00
00FE00
00FE00
007C00
003800
000078
0000FC
0000FE
0001FE
0001FE
0000FE
0000FC
000078
000000
000000
000000
000000
000000
000000
000000
000000
3C3878
7E7CFC
FEFEFE
FFFFFE
FFFFFE
FEFEFE
7E7CFC
3C3878
ENDCHAR
STARTCHAR greaterequal
ENCODING 8805
SWIDTH 461 0
DWIDTH 46 0
BBX 24 55 11 -1
BITMAP
3C0000
7E0000
FF0000
FF0000
FF0000
FF0000
7E0000
3C0000
001C00
007E00
007F00
007F00
007F00
007F00
003E00
000800
00003C
00007E
00007F
0000FF
0000FF
00007E
00003E
000000
003C00
007E00
007F00
007F00
007F00
007E00
001C00
000000
3C0000
7E0000
FF0000
FF0000
FF0000
FF0000
7E0000
3C0000
000000
000000
000000
000000
000000
000000
000000
3C1C3C
7E7E7E
FF7F7F
FF7FFF
FF7FFF
FF7F7F
7E7E7E
3C1C3C
ENDCHAR
STARTCHAR approxequal.dup8
ENCODING 8946
SWIDTH 461 0
DWIDTH 46 0
BBX 38 38 4 8
BITMAP
007C7800F8
00FEFC01FC
00FFFE01FC
00FFFE01FC
00FFFE01FC
00FEFC01FC
007CFC00F8
0010000020
7C007CF800
FE00FDFC00
FE01FFFC00
FF01FFFE00
FE01FFFC00
FE00FCFC00
7C0078F800
0000000000
0000000000
0000000000
0000000000
0000000000
0000000000
0000000000
0000000000
00787800F0
00FCFC01FC
00FFFE01FC
00FFFE01FC
00FFFE01FC
00FEFE01FC
007CFC00F8
0010300020
7C007CF800
FE00FDFC00
FE01FFFC00
FF01FFFE00
FE01FFFC00
FE00FDFC00
7C0078F800
ENDCHAR
STARTCHAR lozenge
ENCODING 9674
SWIDTH 461 0
DWIDTH 46 0
BBX 39 38 4 8
BITMAP
0000380000
00007C0000
0000FE0000
0000FE0000
0000FE0000
0000FE0000
00007C0000
0000380000
0038007800
00FE00FC00
00FE01FE00
00FE01FE00
00FE01FE00
00FE00FC00
007C007800
0000000000
3C00000078
7E000000FC
FF000001FE
FF000001FE
FF000001FE
7E000000FC
3C00000078
007C007800
00FE00FC00
00FE01FE00
00FE01FE00
00FE01FE00
00FE01FC00
007C00FC00
0010003000
0000380000
00007C0000
0000FE0000
0000FE0000
0000FE0000
00007C0000
0000380000
ENDCHAR
STARTCHAR apple
ENCODING 61440
SWIDTH 461 0
DWIDTH 46 0
BBX 38 69 4 0
BITMAP
000000F800
000000FC00
000001FC00
000001FE00
000001FE00
000001FC00
000000F800
0000000000
0000FC0000
0000FC0000
0001FE0000
0001FE0000
0001FE0000
0000FC0000
0000780000
0000000000
0000000000
0000000000
0000000000
0000000000
0000000000
0000000000
0000000000
007C007800
00FE00FC00
00FE01FC00
00FE01FE00
00FE01FE00
00FE01FC00
007C00F800
0010000000
7C7C7CF8F8
FEFEFDFDFC
FEFFFFFDFC
FFFFFFFFFC
FEFFFFFDFC
FEFEFCFDFC
7C7C78F8F8
3838307000
7EFCFCFC00
FEFEFFFC00
FEFFFFFE00
FFFFFFFE00
FEFFFFFC00
7EFCFCFC00
3838787800
3C78787800
7EFCFCFC00
FEFFFFFC00
FFFFFFFE00
FEFFFFFE00
FEFEFFFC00
7C7CFCFC00
1010302000
7C7C7CF8F8
FEFEFDFDFC
FEFFFFFDFC
FFFFFFFFFC
FEFFFFFDFC
FEFEFDFDFC
7C7C78F8F8
0030003000
007C00FC00
00FE01FC00
00FE01FE00
00FE01FE00
00FE01FC00
00FC00FC00
0078007800
ENDCHAR
STARTCHAR fi
ENCODING 61441
SWIDTH 461 0
DWIDTH 46 0
BBX 31 54 4 0
BITMAP
00007870
0000FCFC
0001FFFC
0001FFFE
0001FFFE
0001FFFC
0000FCFC
00007870
007C0000
00FE0000
00FE0000
00FE0000
00FE0000
00FE0000
007C0000
00100000
7C7C7CF8
FEFEFDFC
FEFFFFFC
FFFFFFFE
FEFFFFFC
FEFEFCFC
7C7C78F8
00380070
00FC00FC
00FE01FC
00FE01FE
00FE01FE
00FE01FC
00FC00FC
00380078
00780078
00FC00FC
00FE01FC
00FE01FE
00FE01FE
00FE01FC
007C00FC
00100020
007C00F8
00FE01FC
00FE01FC
00FE01FE
00FE01FC
00FE01FC
007C00F8
00300030
007C00FC
00FE01FC
00FE01FE
00FE01FE
00FE01FC
00FC00FC
00780078
ENDCHAR
STARTCHAR fl
ENCODING 61442
SWIDTH 461 0
DWIDTH 46 0
BBX 31 54 4 0
BITMAP
00007870
0000FCFC
0001FFFC
0001FFFE
0001FFFE
0001FFFC
0000FCFC
00007870
007C0078
00FE00FC
00FE01FC
00FE01FE
00FE01FE
00FE01FC
007C00F8
00100000
7C7C7CF8
FEFEFDFC
FEFFFFFC
FFFFFFFE
FEFFFFFC
FEFEFCFC
7C7C78F8
00380070
00FC00FC
00FE01FC
00FE01FE
00FE01FE
00FE01FC
00FC00FC
00380078
00780078
00FC00FC
00FE01FC
00FE01FE
00FE01FE
00FE01FC
007C00FC
00100020
007C00F8
00FE01FC
00FE01FC
00FE01FE
00FE01FC
00FE01FC
007C00F8
00300030
007C00FC
00FE01FC
00FE01FE
00FE01FE
00FE01FC
00FC00FC
00780078
ENDCHAR
STARTCHAR .notdef
ENCODING -1
SWIDTH 500 0
DWIDTH 50 0
BBX 38 78 6 -1
BITMAP
FFFFFFFFFC
FFFFFFFFFC
FFFFFFFFFC
FFFFFFFFFC
FFFFFFFFFC
FFFFFFFFFC
FC000000FC
FC000000FC
FC000000FC
FC000000FC
FC000000FC
FC000000FC
FC000000FC
FC000000FC
FC000000FC
FC000000FC
FC000000FC
FC000000FC
FC000000FC
FC000000FC
FC000000FC
FC000000FC
FC000000FC
FC000000FC
FC000000FC
FC000000FC
FC000000FC
FC000000FC
FC000000FC
FC000000FC
FC000000FC
FC000000FC
FC000000FC
FC000000FC
FC000000FC
FC000000FC
FC000000FC
FC000000FC
FC000000FC
FC000000FC
FC000000FC
FC000000FC
FC000000FC
FC000000FC
FC000000FC
FC000000FC
FC000000FC
FC000000FC
FC000000FC
FC000000FC
FC000000FC
FC000000FC
FC000000FC
FC000000FC
FC000000FC
FC000000FC
FC000000FC
FC000000FC
FC000000FC
FC000000FC
FC000000FC
FC000000FC
FC000000FC
FC000000FC
FC000000FC
FC000000FC
FC000000FC
FC000000FC
FC000000FC
FC000000FC
FC000000FC
FC000000FC
FFFFFFFFFC
FFFFFFFFFC
FFFFFFFFFC
FFFFFFFFFC
FFFFFFFFFC
FFFFFFFFFC
ENDCHAR
STARTCHAR .null
ENCODING -1
SWIDTH 0 0
DWIDTH 0 0
BBX 1 1 0 0
BITMAP
00
ENDCHAR
STARTCHAR nonmarkingreturn
ENCODING -1
SWIDTH 384 0
DWIDTH 38 0
BBX 1 1 0 0
BITMAP
00
ENDCHAR
ENDFONT
